<svg xmlns="http://www.w3.org/2000/svg" fill="none" viewBox="0 0 24 25">
  <path fill="currentColor"
    d="M5.202 2.97C7.954 5.036 10.913 9.224 12 11.472c1.087-2.248 4.046-6.436 6.798-8.502C20.783 1.48 24 .326 24 3.996c0 .733-.42 6.157-.667 7.038-.856 3.061-3.978 3.842-6.755 3.37 4.854.825 6.089 3.562 3.422 6.298-5.065 5.197-7.28-1.304-7.847-2.97-.104-.305-.152-.448-.153-.326 0-.122-.05.021-.153.326-.568 1.666-2.782 8.167-7.847 2.97-2.667-2.736-1.432-5.473 3.422-6.299-2.777.473-5.899-.308-6.755-3.37C.42 10.154 0 4.73 0 3.997 0 .326 3.217 1.479 5.202 2.97Z" />
</svg>