<svg xmlns="http://www.w3.org/2000/svg" fill="none" viewBox="0 0 24 24">
  <path fill="currentColor" fill-rule="evenodd"
    d="M11.702 0C4.95 0-.508 5.408-.508 12.1c0 5.348 3.497 9.875 8.35 11.477.606.12.828-.26.828-.58 0-.281-.02-1.242-.02-2.244-3.397.721-4.104-1.443-4.104-1.443-.546-1.402-1.355-1.762-1.355-1.762-1.111-.741.081-.741.081-.741 1.234.08 1.88 1.242 1.88 1.242 1.092 1.842 2.85 1.322 3.558 1.001.101-.781.425-1.322.769-1.622-2.71-.28-5.56-1.323-5.56-5.97a4.69 4.69 0 0 1 1.254-3.245c-.122-.3-.546-1.543.121-3.205 0 0 1.031-.32 3.356 1.242a11.86 11.86 0 0 1 6.105 0c2.324-1.563 3.355-1.242 3.355-1.242.668 1.662.243 2.905.122 3.205.788.841 1.253 1.923 1.253 3.245 0 4.647-2.85 5.669-5.58 5.97.446.38.83 1.101.83 2.243 0 1.623-.02 2.925-.02 3.325 0 .32.222.702.828.581 4.852-1.603 8.35-6.13 8.35-11.478C23.912 5.41 18.432 0 11.702 0Z"
    clip-rule="evenodd" />
</svg>