<svg width="32" height="33" fill="none" xmlns="http://www.w3.org/2000/svg"><path d="M16 .778c-4.345 0-4.89.019-6.597.097-1.703.077-2.866.348-3.884.743a7.842 7.842 0 0 0-2.834 1.846A7.842 7.842 0 0 0 .84 6.298C.444 7.315.174 8.478.096 10.18.018 11.889 0 12.433 0 16.779c0 4.346.018 4.89.096 6.597.078 1.703.348 2.866.744 3.884a7.843 7.843 0 0 0 1.845 2.834 7.842 7.842 0 0 0 2.834 1.845c1.018.396 2.181.666 3.884.744 1.707.078 2.252.096 6.597.096 4.345 0 4.89-.018 6.597-.096 1.703-.078 2.866-.348 3.883-.744a7.844 7.844 0 0 0 2.834-1.845 7.843 7.843 0 0 0 1.846-2.834c.395-1.018.666-2.181.744-3.884.077-1.707.096-2.251.096-6.597 0-4.345-.019-4.89-.096-6.596-.078-1.703-.349-2.867-.744-3.884a7.842 7.842 0 0 0-1.846-2.834 7.844 7.844 0 0 0-2.834-1.846c-1.017-.395-2.18-.666-3.883-.743C20.89.797 20.345.778 16 .778Zm0 2.883c4.272 0 4.778.017 6.465.094 1.56.07 2.407.331 2.971.55.747.29 1.28.637 1.84 1.197s.907 1.093 1.197 1.84c.219.564.48 1.41.55 2.97.078 1.688.094 2.194.094 6.466s-.016 4.779-.093 6.466c-.071 1.56-.332 2.407-.551 2.97a4.956 4.956 0 0 1-1.197 1.84c-.56.56-1.093.907-1.84 1.197-.564.22-1.41.48-2.97.551-1.688.077-2.194.093-6.466.093-4.273 0-4.778-.016-6.465-.093-1.56-.071-2.408-.332-2.971-.55a4.957 4.957 0 0 1-1.84-1.198 4.957 4.957 0 0 1-1.197-1.84c-.22-.563-.48-1.41-.55-2.97-.078-1.688-.094-2.194-.094-6.466s.016-4.778.093-6.465c.071-1.56.332-2.407.551-2.971.29-.747.637-1.28 1.197-1.84a4.958 4.958 0 0 1 1.84-1.197c.563-.219 1.41-.48 2.97-.55 1.688-.077 2.194-.094 6.466-.094Z" fill="currentColor"/><path d="M16 22.112a5.333 5.333 0 1 1 0-10.667 5.333 5.333 0 0 1 0 10.667Zm0-13.55a8.216 8.216 0 1 0 0 16.432 8.216 8.216 0 0 0 0-16.432ZM26.461 8.237a1.92 1.92 0 1 1-3.84 0 1.92 1.92 0 0 1 3.84 0Z" fill="currentColor"/></svg>