<svg width="32" height="33" fill="none" xmlns="http://www.w3.org/2000/svg"><path fill-rule="evenodd" clip-rule="evenodd" d="M28.444 32.778H3.556A3.556 3.556 0 0 1 0 29.223V4.333A3.556 3.556 0 0 1 3.556.779h24.888A3.556 3.556 0 0 1 32 4.334v24.889a3.556 3.556 0 0 1-3.556 3.555Zm-5.637-4.444h4.748v-9.755c0-4.128-2.34-6.123-5.607-6.123-3.27 0-4.646 2.546-4.646 2.546v-2.076h-4.576v15.408h4.576v-8.088c0-2.167.998-3.457 2.907-3.457 1.755 0 2.598 1.24 2.598 3.457v8.088ZM4.444 8.066a2.832 2.832 0 0 0 2.822 2.843c1.56 0 2.821-1.273 2.821-2.843s-1.262-2.843-2.82-2.843a2.832 2.832 0 0 0-2.823 2.843Zm5.231 20.268H4.903V12.926h4.772v15.408Z" fill="currentColor"/></svg>