<svg width="32" height="33" fill="none" xmlns="http://www.w3.org/2000/svg"><path d="M32 16.778c0 8.84-7.16 16-16 16s-16-7.16-16-16 7.16-16 16-16 16 7.16 16 16Zm-18.928 8.44c7.096 0 10.976-5.88 10.976-10.976 0-.168 0-.336-.008-.496a7.903 7.903 0 0 0 1.928-2 7.83 7.83 0 0 1-2.216.608 3.855 3.855 0 0 0 1.696-2.136c-.744.44-1.568.76-2.448.936a3.839 3.839 0 0 0-2.816-1.216 3.858 3.858 0 0 0-3.856 3.856c0 .304.032.6.104.88a10.943 10.943 0 0 1-7.952-4.032 3.87 3.87 0 0 0-.52 1.936c0 1.336.68 2.52 1.72 3.208a3.79 3.79 0 0 1-1.744-.48v.048a3.862 3.862 0 0 0 3.096 3.784 3.846 3.846 0 0 1-1.744.064 3.852 3.852 0 0 0 3.6 2.68 7.754 7.754 0 0 1-5.712 1.592 10.748 10.748 0 0 0 5.896 1.744Z" fill="currentColor"/></svg>