<svg xmlns="http://www.w3.org/2000/svg" fill="none" viewBox="0 0 160 120">
  <path fill="var(--logo-accent-color, #00edff)" d="M132 0v91.27H0l28 27.778h132v-91.27L132 0Z" />
  <rect width="132.01" height="91.28" fill="white" />
  <path fill="#000"
    d="M12.3 12.798h8.76v1.726h-3.48v10.952h-1.82V14.524H12.3v-1.726ZM32 19.504h-7.12v5.972h-1.82V12.798h1.82v4.98H32v-4.98h1.82v12.678H32v-5.972Zm11.24-1.726v1.726h-4.2v4.246h5.66v1.726h-7.5V12.798h7.3v1.726h-5.48v3.254h4.22ZM58.6 12.62c1.82 0 3.56.733 4.68 1.963l-1.22 1.19c-.74-.813-2.08-1.428-3.44-1.428-2.62 0-4.64 2.064-4.64 4.802 0 2.857 2.08 4.802 4.8 4.802a4.758 4.758 0 0 0 2.035-.482 4.72 4.72 0 0 0 1.626-1.304l1.3 1.15a6.47 6.47 0 0 1-2.215 1.73 6.521 6.521 0 0 1-2.745.632c-3.82 0-6.62-2.778-6.62-6.528-.02-3.67 2.76-6.528 6.44-6.528Zm13.24 5.158v1.726h-4.2v4.246h5.66v1.726h-7.48V12.798h7.3v1.726h-5.48v3.254h4.2Zm5.76-1.608v9.306h-1.82V12.798h1.28l7.66 9.305v-9.305h1.82v12.678h-1.28l-7.66-9.305Zm10.94-3.372h8.76v1.726h-3.46v10.952h-1.82V14.524h-3.46v-1.726h-.02Zm16.801 4.98v1.726h-4.2v4.246h5.66v1.726h-7.48V12.798h7.3v1.726h-5.48v3.254h4.2Zm5.74 7.698h-1.82V12.798h4.48c1.16 0 1.9.277 2.48.734a3.33 3.33 0 0 1 1.26 2.599 3.331 3.331 0 0 1-1.26 2.6 3.28 3.28 0 0 1-1.5.674l4.58 6.051h-2.2l-4.54-5.972h-1.48v5.992Zm2.56-7.698c.82 0 1.24-.179 1.54-.476a1.633 1.633 0 0 0 .357-1.775 1.6 1.6 0 0 0-.357-.527c-.3-.297-.72-.476-1.54-.476h-2.56v3.254h2.56ZM19.68 34.841v1.727h-4.2v5.972h-1.82V29.86h7.3v1.726h-5.48v3.254h4.2Zm8.58-5.158c3.62 0 6.38 2.817 6.38 6.527 0 3.69-2.78 6.528-6.38 6.528-3.62 0-6.38-2.817-6.38-6.528 0-3.71 2.78-6.527 6.38-6.527Zm0 11.31c2.62 0 4.56-2.044 4.56-4.802 0-2.739-1.96-4.802-4.56-4.802-2.62 0-4.56 2.064-4.56 4.802 0 2.758 1.96 4.801 4.56 4.801Zm10.6 1.547h-1.82V29.86h4.48c1.16 0 1.9.278 2.48.734a3.305 3.305 0 0 1 0 5.198c-.433.35-.95.582-1.5.675l4.58 6.052h-2.2l-4.54-5.972h-1.48v5.992Zm2.54-7.699c.82 0 1.24-.178 1.54-.476.307-.306.48-.72.48-1.15a1.56 1.56 0 0 0-.48-1.151c-.3-.298-.72-.477-1.54-.477h-2.56v3.254h2.56Zm13.22 7.699V29.86h3.84c2.02 0 3.34.437 4.38 1.19a6.4 6.4 0 0 1 1.894 2.27 6.34 6.34 0 0 1 .667 2.87 6.276 6.276 0 0 1-.65 2.87 6.33 6.33 0 0 1-1.89 2.269c-1.04.753-2.38 1.19-4.4 1.19h-3.84v.02ZM62 32.659c-.8-.695-1.86-1.072-3.66-1.072h-1.92v9.227h1.92c1.78 0 2.84-.377 3.66-1.072a4.74 4.74 0 0 0 1.56-3.552 4.626 4.626 0 0 0-.393-1.933A4.66 4.66 0 0 0 62 32.659Zm5.76-2.798h1.82V42.54h-1.82V29.86Zm15.78 10.496a6.535 6.535 0 0 1-2.217 1.723 6.584 6.584 0 0 1-2.742.638c-3.82 0-6.62-2.777-6.62-6.527 0-3.651 2.78-6.528 6.46-6.528 1.82 0 3.56.734 4.68 1.964l-1.22 1.19c-.74-.813-2.08-1.428-3.44-1.428-2.62 0-4.64 2.064-4.64 4.802 0 2.857 2.08 4.801 4.8 4.801a4.525 4.525 0 0 0 3.14-1.17v-3.254h-3.66V34.84h5.48l-.02 5.516Zm2.92-10.496h1.82V42.54h-1.82V29.86Zm3.84 0h8.76v1.726H95.6V42.54h-1.82V31.587h-3.46v-1.726h-.02Zm16.741 9.425h-5.38l-1.34 3.254h-1.9l5.3-12.679h1.28l5.3 12.679h-1.9l-1.36-3.254Zm-4.66-1.726h3.94l-1.98-4.703-1.96 4.703Zm11.56 3.254h5.66v1.726h-7.48V29.86h1.82v10.953ZM22.6 53.611h-7.12v5.972h-1.82V46.905h1.82v4.98h7.12v-4.98h1.82v12.678H22.6v-5.972Zm5.78 4.504c-.82-.893-1.34-2.063-1.34-3.77v-7.42h1.82v7.52c0 1.19.3 1.944.8 2.5a3.673 3.673 0 0 0 2.66 1.13 3.7 3.7 0 0 0 2.66-1.13c.52-.556.8-1.31.8-2.5v-7.52h1.82v7.42c0 1.707-.52 2.877-1.34 3.77a5.432 5.432 0 0 1-3.96 1.667 5.34 5.34 0 0 1-3.92-1.667Zm18.3-1.23H45.4l-3.74-5.813v8.531h-1.82V46.925h1.28l4.92 7.738 4.92-7.738h1.28v12.678h-1.82v-8.532l-3.74 5.814Zm15.82-.555h-5.38l-1.34 3.253h-1.9l5.3-12.678h1.28l5.3 12.678h-1.9L62.5 56.33Zm-4.64-1.707h3.94l-1.98-4.702-1.96 4.702Zm11.36-4.325v9.305H67.4V46.925h1.28l7.66 9.305v-9.305h1.82v12.678h-1.28l-7.66-9.305Zm12.14-3.373h1.82v12.678h-1.82V46.925Zm4.54 0h8.76v1.726H91.2v10.952h-1.82V48.651h-3.46v-1.726h-.02Zm11.08 0h1.82v12.678h-1.82V46.925Zm11.141 4.98v1.726h-4.2v4.246h5.66v1.726h-7.48V46.925h7.3v1.726h-5.48v3.254h4.2Zm4 4.524c.74.912 1.8 1.627 3.12 1.627 1.18 0 2.22-.754 2.22-1.905 0-1.945-2.7-2.163-4.4-3.254-.92-.595-1.62-1.468-1.62-2.798 0-1.845 1.64-3.373 3.86-3.373a5.355 5.355 0 0 1 3.44 1.27l-1.08 1.33a3.57 3.57 0 0 0-2.28-.873c-1.06 0-2.12.595-2.12 1.706 0 1.607 2.72 1.964 4.36 3.035.86.556 1.66 1.449 1.66 2.897 0 2.223-1.74 3.671-3.96 3.671a5.756 5.756 0 0 1-2.485-.554 5.714 5.714 0 0 1-1.995-1.569l1.28-1.21ZM26.26 71.032v5.615h-1.82V63.968h4.84c1.24 0 2.04.318 2.66.834a3.513 3.513 0 0 1 0 5.397c-.62.515-1.42.833-2.66.833h-3.02Zm2.92-1.706c.88 0 1.36-.219 1.68-.556a1.765 1.765 0 0 0 0-2.5c-.32-.337-.8-.556-1.68-.556h-2.92v3.631h2.92v-.02Zm7.58 1.349v5.972h-1.82V63.968h4.46c1.16 0 1.9.278 2.48.734a3.306 3.306 0 0 1 0 5.198c-.433.35-.95.582-1.5.675l4.58 6.052h-2.2l-4.54-5.972-1.46.02Zm2.54-1.727c.82 0 1.24-.178 1.54-.476.307-.306.48-.72.48-1.15a1.559 1.559 0 0 0-.48-1.151c-.3-.298-.72-.477-1.54-.477h-2.56v3.254h2.56Zm7.12-4.98h1.82v12.679h-1.82V63.968Zm5.96 3.373v9.306h-1.82V63.968h1.28l7.66 9.306v-9.306h1.82v12.679h-1.28l-7.66-9.306ZM69.4 63.79c1.82 0 3.56.734 4.68 1.964l-1.22 1.19c-.74-.813-2.08-1.428-3.44-1.428-2.62 0-4.64 2.063-4.64 4.802 0 2.857 2.08 4.801 4.8 4.801a4.758 4.758 0 0 0 2.035-.481 4.72 4.72 0 0 0 1.626-1.305l1.3 1.151a6.47 6.47 0 0 1-2.215 1.73 6.518 6.518 0 0 1-2.745.631c-3.82 0-6.62-2.777-6.62-6.527-.02-3.651 2.76-6.528 6.44-6.528Zm12.72 5.158v1.727h-4.2v4.246h5.66v1.726H76.1V63.968h7.3v1.727h-5.48v3.254h4.2Zm2.76-4.98h8.76v1.727h-3.46v10.952h-1.82V65.694H84.9l-.02-1.726Zm15.421-.178c3.62 0 6.38 2.817 6.38 6.528 0 3.69-2.78 6.527-6.38 6.527-3.62 0-6.38-2.817-6.38-6.527 0-3.69 2.78-6.528 6.38-6.528Zm0 11.33c2.62 0 4.56-2.044 4.56-4.802 0-2.739-1.96-4.802-4.56-4.802-2.6 0-4.56 2.063-4.56 4.802 0 2.758 1.96 4.801 4.56 4.801Zm9.78-7.779v9.306h-1.82V63.968h1.28l7.66 9.306v-9.306h1.82v12.679h-1.28l-7.66-9.306ZM19.2 71.726c-.4.374-.93.58-1.48.576-1 0-2.36-.774-2.36-2.302a2.29 2.29 0 0 1 .658-1.608c.422-.43.998-.679 1.603-.694.419-.009.83.109 1.18.338v-.218h1.14v2.579a1.21 1.21 0 0 0 .1.595.483.483 0 0 0 .46.238c.64 0 .78-.893.78-1.508 0-1.924-1.62-3.273-3.42-3.273a3.575 3.575 0 0 0-2.472 1.048 3.518 3.518 0 0 0-1.028 2.464 3.518 3.518 0 0 0 1 2.475 3.574 3.574 0 0 0 2.46 1.076 3.454 3.454 0 0 0 2.14-.694l.66.972a4.525 4.525 0 0 1-2.74.893 4.779 4.779 0 0 1-3.333-1.39 4.704 4.704 0 0 1-1.387-3.313 4.703 4.703 0 0 1 1.359-3.324 4.779 4.779 0 0 1 3.32-1.418c2.44 0 4.62 1.885 4.62 4.445 0 1.388-.62 2.579-2 2.579a1.645 1.645 0 0 1-1.26-.536Zm-1.42-.516a1.262 1.262 0 0 0 .98-.416 3.49 3.49 0 0 1-.02-.476v-1.19a1.325 1.325 0 0 0-.96-.378c-.328 0-.643.13-.876.36a1.225 1.225 0 0 0 0 1.74c.233.23.548.36.877.36Z" />
</svg>