<svg xmlns="http://www.w3.org/2000/svg" viewBox="0 0 160 120">
  <path fill="var(--logo-accent-color, #00edff)" d="M132 0v91.27H0l28 27.778h132v-91.27L132 0Z" />
  <rect width="132.01" height="91.28" fill="white" />
  <path fill="#000"
    d="m12.3 12.8h8.8v1.7h-3.5v11h-1.8v-11h-3.5v-1.7zm19.7 6.7h-7.1v6h-1.8v-12.7h1.8v5h7.1v-5h1.8v12.7h-1.8v-6zm11.2-1.7v1.7h-4.2v4.2h5.7v1.7h-7.5v-12.6h7.3v1.7h-5.5v3.3h4.2zm15.4-5.2c1.8 0 3.6.7 4.7 2l-1.2 1.2c-.7-.8-2.1-1.4-3.4-1.4-2.6 0-4.6 2.1-4.6 4.8 0 2.9 2.1 4.8 4.8 4.8a4.8 4.8 0 002-.5 4.7 4.7 0 001.6-1.3l1.3 1.1a6.5 6.5 0 01-2.2 1.7 6.5 6.5 0 01-2.7.6c-3.8 0-6.6-2.8-6.6-6.5 0-3.7 2.8-6.5 6.4-6.5zm13.2 5.2v1.7h-4.2v4.2h5.7v1.7h-7.5v-12.6h7.3v1.7h-5.5v3.3h4.2zm5.8-1.6v9.3h-1.8v-12.7h1.3l7.7 9.3v-9.3h1.8v12.7h-1.3l-7.7-9.3zm10.9-3.4h8.8v1.7h-3.5v11h-1.8v-11h-3.5v-1.7h0zm16.8 5v1.7h-4.2v4.2h5.7v1.7h-7.5v-12.6h7.3v1.7h-5.5v3.3h4.2zm5.7 7.7h-1.8v-12.7h4.5c1.2 0 1.9.3 2.5.7a3.3 3.3 0 011.3 2.6 3.3 3.3 0 01-1.3 2.6 3.3 3.3 0 01-1.5.7l4.6 6.1h-2.2l-4.5-6h-1.5v6zm2.6-7.7c.8 0 1.2-.2 1.5-.5a1.6 1.6 0 00.4-1.8 1.6 1.6 0 00-.4-.5c-.3-.3-.7-.5-1.5-.5h-2.6v3.3h2.6zm-93.9 17v1.7h-4.2v6h-1.8v-12.6h7.3v1.7h-5.5v3.3h4.2zm8.6-5.2c3.6 0 6.4 2.8 6.4 6.5 0 3.7-2.8 6.5-6.4 6.5-3.6 0-6.4-2.8-6.4-6.5 0-3.7 2.8-6.5 6.4-6.5zm0 11.3c2.6 0 4.6-2 4.6-4.8 0-2.7-2-4.8-4.6-4.8-2.6 0-4.6 2.1-4.6 4.8 0 2.8 2 4.8 4.6 4.8zm10.6 1.5h-1.8v-12.5h4.5c1.2 0 1.9.3 2.5.7a3.3 3.3 0 010 5.2c-.4.3-.9.6-1.5.7l4.6 6.1h-2.2l-4.5-6h-1.5v6zm2.5-7.7c.8 0 1.2-.2 1.5-.5.3-.3.5-.7.5-1.1a1.6 1.6 0 00-.5-1.2c-.3-.3-.7-.5-1.5-.5h-2.6v3.3h2.6zm13.2 7.7v-12.5h3.8c2 0 3.3.4 4.4 1.2a6.4 6.4 0 011.9 2.3 6.3 6.3 0 01.7 2.9 6.3 6.3 0 01-.7 2.9 6.3 6.3 0 01-1.9 2.3c-1 .8-2.4 1.2-4.4 1.2h-3.8v0zm7.4-9.7c-.8-.7-1.9-1.1-3.7-1.1h-1.9v9.2h1.9c1.8 0 2.8-.4 3.7-1.1a4.7 4.7 0 001.6-3.6 4.6 4.6 0 00-.4-1.9 4.7 4.7 0 00-1.2-1.5zm5.8-2.8h1.8v12.6h-1.8v-12.6zm15.8 10.5a6.5 6.5 0 01-2.2 1.7 6.6 6.6 0 01-2.7.6c-3.8 0-6.6-2.8-6.6-6.5 0-3.7 2.8-6.5 6.5-6.5 1.8 0 3.6.7 4.7 2l-1.2 1.2c-.7-.8-2.1-1.4-3.4-1.4-2.6 0-4.6 2.1-4.6 4.8 0 2.9 2.1 4.8 4.8 4.8a4.5 4.5 0 003.1-1.2v-3.3h-3.7v-1.8h5.5l0 5.5zm2.9-10.5h1.8v12.6h-1.8v-12.6zm3.8 0h8.8v1.7h-3.5v10.9h-1.8v-10.9h-3.5v-1.7h0zm16.7 9.4h-5.4l-1.3 3.3h-1.9l5.3-12.7h1.3l5.3 12.7h-1.9l-1.4-3.3zm-4.7-1.7h3.9l-2-4.7-2 4.7zm11.6 3.3h5.7v1.7h-7.5v-12.7h1.8v11zm-91.3 12.7h-7.1v6h-1.8v-12.7h1.8v5h7.1v-5h1.8v12.7h-1.8v-6zm5.8 4.5c-.8-.9-1.3-2.1-1.3-3.8v-7.4h1.8v7.5c0 1.2.3 1.9.8 2.5a3.7 3.7 0 002.7 1.1 3.7 3.7 0 002.7-1.1c.5-.6.8-1.3.8-2.5v-7.5h1.8v7.4c0 1.7-.5 2.9-1.3 3.8a5.4 5.4 0 01-4 1.7 5.3 5.3 0 01-3.9-1.7zm18.3-1.2h-1.3l-3.7-5.8v8.5h-1.8v-12.7h1.3l4.9 7.7 4.9-7.7h1.3v12.7h-1.8v-8.5l-3.7 5.8zm15.8-.6h-5.4l-1.3 3.3h-1.9l5.3-12.7h1.3l5.3 12.7h-1.9l-1.4-3.3zm-4.6-1.7h3.9l-2-4.7-2 4.7zm11.4-4.3v9.3h-1.9v-12.7h1.3l7.7 9.3v-9.3h1.8v12.7h-1.3l-7.7-9.3zm12.1-3.4h1.8v12.7h-1.8v-12.7zm4.5 0h8.8v1.7h-3.5v11h-1.8v-10.9h-3.5v-1.7h0zm11.1 0h1.8v12.7h-1.8v-12.7zm11.1 5v1.7h-4.2v4.2h5.7v1.7h-7.5v-12.6h7.3v1.7h-5.5v3.3h4.2zm4 4.5c.7.9 1.8 1.6 3.1 1.6 1.2 0 2.2-.8 2.2-1.9 0-1.9-2.7-2.2-4.4-3.3-.9-.6-1.6-1.5-1.6-2.8 0-1.8 1.6-3.4 3.9-3.4a5.4 5.4 0 013.4 1.3l-1.1 1.3a3.6 3.6 0 00-2.3-.9c-1.1 0-2.1.6-2.1 1.7 0 1.6 2.7 2 4.4 3 .9.6 1.7 1.4 1.7 2.9 0 2.2-1.7 3.7-4 3.7a5.8 5.8 0 01-2.5-.6 5.7 5.7 0 01-2-1.6l1.3-1.2zm-85.8 14.6v5.6h-1.8v-12.6h4.8c1.2 0 2 .3 2.7.8a3.5 3.5 0 010 5.4c-.6.5-1.4.8-2.7.8h-3zm2.9-1.7c.9 0 1.4-.2 1.7-.6a1.8 1.8 0 000-2.5c-.3-.3-.8-.6-1.7-.6h-2.9v3.6h2.9v0zm7.6 1.3v6h-1.8v-12.6h4.5c1.2 0 1.9.3 2.5.7a3.3 3.3 0 010 5.2c-.4.3-.9.6-1.5.7l4.6 6.1h-2.2l-4.5-6-1.5 0zm2.5-1.7c.8 0 1.2-.2 1.5-.5.3-.3.5-.7.5-1.1a1.6 1.6 0 00-.5-1.2c-.3-.3-.7-.5-1.5-.5h-2.6v3.3h2.6zm7.1-5h1.8v12.7h-1.8v-12.6zm6 3.4v9.3h-1.8v-12.6h1.3l7.7 9.3v-9.3h1.8v12.7h-1.3l-7.7-9.3zm17-3.5c1.8 0 3.6.7 4.7 2l-1.2 1.2c-.7-.8-2.1-1.4-3.4-1.4-2.6 0-4.6 2.1-4.6 4.8 0 2.9 2.1 4.8 4.8 4.8a4.8 4.8 0 002-.5 4.7 4.7 0 001.6-1.3l1.3 1.2a6.5 6.5 0 01-2.2 1.7 6.5 6.5 0 01-2.7.6c-3.8 0-6.6-2.8-6.6-6.5 0-3.7 2.8-6.5 6.4-6.5zm12.7 5.2v1.7h-4.2v4.2h5.7v1.7h-7.5v-12.6h7.3v1.7h-5.5v3.3h4.2zm2.8-5h8.8v1.7h-3.5v11h-1.8v-11h-3.5l0-1.7zm15.4-.2c3.6 0 6.4 2.8 6.4 6.5 0 3.7-2.8 6.5-6.4 6.5-3.6 0-6.4-2.8-6.4-6.5 0-3.7 2.8-6.5 6.4-6.5zm0 11.3c2.6 0 4.6-2 4.6-4.8 0-2.7-2-4.8-4.6-4.8-2.6 0-4.6 2.1-4.6 4.8 0 2.8 2 4.8 4.6 4.8zm9.8-7.8v9.3h-1.8v-12.6h1.3l7.7 9.3v-9.3h1.8v12.7h-1.3l-7.7-9.3zm-90.9 4.4c-.4.4-.9.6-1.5.6-1 0-2.4-.8-2.4-2.3a2.3 2.3 0 01.7-1.6c.4-.4 1-.7 1.6-.7.4 0 .8.1 1.2.3v-.2h1.1v2.6a1.2 1.2 0 00.1.6.5.5 0 00.5.2c.6 0 .8-.9.8-1.5 0-1.9-1.6-3.3-3.4-3.3a3.6 3.6 0 00-2.5 1 3.5 3.5 0 00-1 2.5 3.5 3.5 0 001 2.5 3.6 3.6 0 002.5 1.1 3.5 3.5 0 002.1-.7l.7 1a4.5 4.5 0 01-2.7.9 4.8 4.8 0 01-3.3-1.4 4.7 4.7 0 01-1.4-3.3 4.7 4.7 0 011.4-3.3 4.8 4.8 0 013.3-1.4c2.4 0 4.6 1.9 4.6 4.4 0 1.4-.6 2.6-2 2.6a1.6 1.6 0 01-1.3-.5zm-1.4-.5a1.3 1.3 0 001-.4 3.5 3.5 0 010-.5v-1.2a1.3 1.3 0 00-1-.4c-.3 0-.6.1-.9.4a1.2 1.2 0 000 1.7c.2.2.5.4.9.4" />
</svg>