<svg xmlns="http://www.w3.org/2000/svg" fill="none" viewBox="0 0 244 17">
  <g fill="currentColor">
    <path
      d="M128.407 2.77a.453.453 0 0 0-.044-.2h-.339c-.743 0-1.217.027-2.556.027-.461 0-1.144-.028-1.308-.028h-.386c-.046.028-.061.187-.061.246a.366.366 0 0 0 .075.246 6.38 6.38 0 0 1 1.531.42c.281.443.43.954.431 1.476.015.22.031.433.031 1.028v3.026a5.2 5.2 0 0 1-.031.623c-.252-.275-.609-.797-1.203-1.449l-4.97-5.356a1.046 1.046 0 0 0-.226-.19c-.12 0-.328-.011-.452-.011-.95 0-2.675-.045-2.927-.045a.521.521 0 0 0-.06.203c.009.093.024.185.046.275a2.05 2.05 0 0 1 1.113.55c.301.272.567.579.791.913.048.15.067.306.058.462 0 .753-.044 1.81-.044 2.824v2.936c.003.37-.027.737-.09 1.1a3.128 3.128 0 0 1-1.561.74.836.836 0 0 0-.057.26c0 .044.013.19.044.204h.282c.296 0 .982-.043 1.426-.043.654 0 1.1.043 1.71.043h.891c.061-.014.074-.189.074-.246a.636.636 0 0 0-.043-.232 2.876 2.876 0 0 1-1.784-.897 7.928 7.928 0 0 1-.194-1.796c0-.464-.015-1.1-.015-1.953 0-1.145.015-2.144.031-2.65.089.102.193.23.266.319l6.868 7.513a.88.88 0 0 0 .416.086.35.35 0 0 0 .179-.03 1.59 1.59 0 0 0 .134-.65c0-.42-.015-.853-.015-1.071V5.406c0-1.81.878-2.316 1.904-2.36a.622.622 0 0 0 .057-.275m-17.027 4.605c0 2.185-.622 4.11-1.468 4.79a2.463 2.463 0 0 1-1.582.521 2.273 2.273 0 0 1-1.12-.228 2.206 2.206 0 0 1-.856-.741 7.536 7.536 0 0 1-.878-3.764c0-2.014.535-3.59 1.486-4.358.43-.363.979-.563 1.547-.565.394-.002.783.088 1.135.262.351.173.655.426.886.737.637 1 .934 2.172.847 3.346m2.691.275a4.755 4.755 0 0 0-.651-2.623 4.93 4.93 0 0 0-1.99-1.879 5.865 5.865 0 0 0-2.824-.741 6.18 6.18 0 0 0-2.853.737 5.995 5.995 0 0 0-2.155 1.962 5.428 5.428 0 0 0-.862 2.924c.002.818.194 1.625.562 2.36a5.424 5.424 0 0 0 1.564 1.881 5.69 5.69 0 0 0 3.389 1.043 6.308 6.308 0 0 0 2.259-.421 5.309 5.309 0 0 0 2.066-1.375 5.509 5.509 0 0 0 1.502-3.864m-13.069-1.828V2.872c0-.22-.088-.275-.313-.275-.446 0-2.795.058-5.171.058-1.845 0-3.376-.027-4.208-.027h-1.1c-.194 0-.252.043-.252.244v2.766a.448.448 0 0 0 .238.058c.11.005.22-.005.326-.03A4.9 4.9 0 0 1 92.6 3.244c.445-.045 1.323-.06 1.56-.06.016.161.03.666.045 1.274.015 1.042.015 1.491.015 3.95 0 2.13-.015 3.087-.044 3.319-.06.404.015.708-1.768.78a.802.802 0 0 0-.046.33 1.2 1.2 0 0 0 .014.232h.581c.55 0 1.843-.058 2.378-.058.431 0 1.814.043 2.721.043h.417a.72.72 0 0 0 .044-.303.506.506 0 0 0-.06-.26 3.147 3.147 0 0 1-1.53-.276 4.348 4.348 0 0 1-.135-1.087c-.016-1.562-.03-2.155-.03-3.199 0-1.345.014-2.258.014-4.761.21 0 .685-.015 1.13 0a2.91 2.91 0 0 1 1.769 1.1 7.17 7.17 0 0 1 .791 1.577.844.844 0 0 0 .535-.027m-12.816 4.713a3.136 3.136 0 0 0-.015-.421.329.329 0 0 0-.226-.045c-.11-.005-.22.005-.328.03a5.564 5.564 0 0 1-1.634 2.215 2.337 2.337 0 0 1-1.114.16h-1.22a5.357 5.357 0 0 1-.98-.074c-.227-.043-.462-.389-.566-.62a1.505 1.505 0 0 1-.161-.914v-3.17h.549c.312.009.62.078.904.203.288.122.524.337.668.609.134.389.22.793.252 1.202.124.043.255.062.387.056.105.006.21-.02.299-.073 0-.389-.09-1.446-.09-2.026 0-.724.103-1.724.148-2.243a.62.62 0 0 0-.296-.058 1.149 1.149 0 0 0-.388.043c-.045.204-.208.81-.238.854-.232.362-.592.63-1.011.753-.282.07-.57.11-.861.116h-.313V5.782c0-1.389.03-1.837.044-2.1.016-.174.046-.361.06-.492.297-.028.595-.037.892-.028.862 0 1.263.016 1.398.016.34 0 .67.1.95.287a6.239 6.239 0 0 1 1.433 1.796c.102.023.207.033.312.029.09 0 .104-.029.226-.086 0-.88-.061-2.026-.09-2.39-.015-.143-.044-.186-.34-.186-.118 0-.683-.031-1.278-.031-.847 0-1.188.015-2.485.015-.7 0-2.147.016-2.752.016-.891 0-1.65-.031-2.033-.031h-.506a.48.48 0 0 0-.075.232c.002.101.028.2.075.29.365.027.728.08 1.085.16.16.105.29.244.384.408.093.163.146.346.153.533.028.304.044 1.143.044 1.81v2.98c0 .609-.016 1.492-.03 1.853a4.073 4.073 0 0 1-.327 1.375c-.43.149-.882.223-1.338.22a.79.79 0 0 0-.074.318.522.522 0 0 0 .074.261h.49c.475 0 2.23-.044 2.63-.044.373 0 1.086.029 1.948.029.476 0 1.873.088 4.877.088.134.01.27 0 .4-.03a.45.45 0 0 0 .06-.232c.03-.289.03-1.143.03-2.31m-12.579.499a.482.482 0 0 0-.19-.26.504.504 0 0 0-.315-.088c-.029 0-.073.015-.103.015-.306.51-.741.933-1.265 1.23a3.572 3.572 0 0 1-1.723.463 3.315 3.315 0 0 1-1.796-.515 3.189 3.189 0 0 1-1.207-1.395 7.808 7.808 0 0 1-.46-2.63 6.224 6.224 0 0 1 .444-2.53c.655-1.68 1.607-2.2 2.766-2.2.473.022.934.15 1.347.377.413.226.766.542 1.03.925.34.542.595 1.13.758 1.745.107.025.217.039.327.041a.75.75 0 0 0 .357-.129c-.015-.158-.163-1.273-.163-1.621 0-.435.113-1.144.113-1.42a1.241 1.241 0 0 0-.58-.158 2.937 2.937 0 0 0-.504.593 4.989 4.989 0 0 0-3.3-1.026 5.198 5.198 0 0 0-2.015.342 5.091 5.091 0 0 0-1.713 1.088 5.484 5.484 0 0 0-1.228 1.882 5.372 5.372 0 0 0-.36 2.202 5.18 5.18 0 0 0 .517 2.407 5.32 5.32 0 0 0 1.579 1.92 6.028 6.028 0 0 0 3.463.97 4.721 4.721 0 0 0 2.09-.336 4.606 4.606 0 0 0 1.716-1.212c.171-.206.311-.435.415-.68ZM64.05 2.771a.452.452 0 0 0-.045-.202h-.34c-.742 0-1.218.028-2.554.028-.462 0-1.146-.028-1.31-.028h-.394c-.044.028-.06.187-.06.246a.38.38 0 0 0 .074.246c.526.076 1.04.217 1.53.42.282.443.431.954.433 1.476.014.22.028.433.028 1.028v3.026a5.6 5.6 0 0 1-.028.623c-.254-.275-.609-.797-1.205-1.449L55.215 2.83a1.04 1.04 0 0 0-.226-.19c-.113 0-.327-.011-.445-.011-.952 0-2.676-.045-2.929-.045a.538.538 0 0 0-.06.203c.01.093.024.185.045.275.422.065.812.257 1.115.55.301.272.567.578.791.913.049.15.069.306.06.462 0 .753-.044 1.81-.044 2.824v2.936c.003.37-.027.737-.09 1.1a3.135 3.135 0 0 1-1.56.74.818.818 0 0 0-.06.26c0 .044.015.19.044.204h.282c.298 0 .982-.043 1.428-.043.655 0 1.099.043 1.709.043h.891c.06-.014.076-.189.076-.246a.67.67 0 0 0-.044-.232 2.88 2.88 0 0 1-1.785-.897 7.961 7.961 0 0 1-.19-1.796c0-.464-.018-1.1-.018-1.953 0-1.145.017-2.144.03-2.65.091.102.194.23.27.319l6.865 7.513c.13.062.273.092.416.086a.347.347 0 0 0 .179-.03c.09-.205.135-.427.133-.65 0-.42-.012-.853-.012-1.071V5.406c0-1.81.875-2.316 1.9-2.36a.611.611 0 0 0 .06-.275M49.342 12.808a.901.901 0 0 0-.043-.29 10.56 10.56 0 0 1-1.099-.129 2.253 2.253 0 0 1-.506-1.121c-.015-.694-.03-2.129-.03-3.474V4.233c-.013-.283.082-.56.266-.78a2.54 2.54 0 0 1 1.323-.376.845.845 0 0 0 .045-.275.425.425 0 0 0-.075-.233h-.43c-.625 0-2.082.07-2.587.07-.31 0-1.769-.042-2.422-.056h-.328a.349.349 0 0 0-.074.246c.004.092.014.184.028.275a3.24 3.24 0 0 1 1.162.203 1.563 1.563 0 0 1 .49 1.231c.015.275.03.868.043 2.2.016.724.032 1.738.032 2.576 0 .422-.032 1.362-.045 1.87-.015.3-.086.594-.209.868-.178.145-.355.406-1.441.478a1.01 1.01 0 0 0-.044.305c0 .11.028.173.028.245h.254c.593 0 2.081-.072 2.853-.072.226 0 1.77.043 2.259.043h.491a.543.543 0 0 0 .057-.246M37.42 5.246c.01.44-.113.875-.354 1.248s-.59.67-1.001.852c-.4.087-.81.126-1.22.116a3.872 3.872 0 0 1-.548-.028l-.014-1.227V3.54a.452.452 0 0 1 .09-.318c.199-.073.412-.103.624-.088 1.16 0 1.666.1 2.081.782.235.405.352.866.339 1.331m4.31 7.572a.686.686 0 0 0-.074-.305 2.334 2.334 0 0 1-.98-.187 3.199 3.199 0 0 1-.254-.363 14.835 14.835 0 0 0-.639-1.663 5.42 5.42 0 0 0-1.1-1.723 4.621 4.621 0 0 0-1.113-.477 17.5 17.5 0 0 1-.611-.235c.226-.04.329-.055.611-.085a2.696 2.696 0 0 0 1.635-.535c.295-.22.533-.506.693-.833.16-.327.238-.687.227-1.05a2.726 2.726 0 0 0-.501-1.603 2.843 2.843 0 0 0-1.357-1.03 7.463 7.463 0 0 0-1.778-.16c-1.116 0-2.677.102-3.42.102-.226 0-1.516-.031-2.034-.031-.226 0-.79-.028-.878-.028a.848.848 0 0 0-.073.275 1.6 1.6 0 0 0 .03.262c.252.029.712.084.952.13.283.194.5.466.624.781.073.464.088 1.65.088 3.692 0 1.476.015 3.184-.06 3.734-.002.2-.06.396-.167.567a1.13 1.13 0 0 1-.442.404c-.194.029-.548.086-.848.101a.711.711 0 0 0-.073.289c.01.08.03.157.059.232.208 0 2.485-.043 2.958-.043.951 0 1.755.043 2.598.043a.607.607 0 0 0 .06-.22.847.847 0 0 0-.06-.303c-.298-.03-.67-.116-.831-.146a1.103 1.103 0 0 1-.48-.419 1.062 1.062 0 0 1-.16-.607l-.015-3.346c.128-.01.257-.015.386-.013.281.002.556.083.79.232a2.82 2.82 0 0 1 1.177 1.055c.505.973.822 2.028.935 3.113.044.305.163.565.445.593.12.016.904.043 1.469.043h2.126a.374.374 0 0 0 .089-.245M25.59 5.32c.013.337-.048.672-.179.985-.13.312-.329.593-.58.824-.455.298-1 .436-1.546.39a5.21 5.21 0 0 1-.64-.029c-.118-.013-.191-.028-.191-.101l.012-4.24a6.24 6.24 0 0 1 .863-.072c1.011 0 1.636.244 1.933.852.22.432.331.909.328 1.39Zm2.66.058a2.72 2.72 0 0 0-.422-1.484 2.824 2.824 0 0 0-1.169-1.036A7.613 7.613 0 0 0 24 2.528c-1.146 0-2.93.085-3.718.085-.549 0-1.382-.058-1.843-.058a.54.54 0 0 0-.073.232.7.7 0 0 0 .044.29c.282.086.743.157 1.041.23.236.217.378.511.4.826.045.507.073 1.145.073 2.245 0 3.053-.012 4.66-.058 5.009-.027.232-.12.451-.27.633-.15.182-.35.318-.578.393a8.446 8.446 0 0 1-.861.146c-.02.1-.03.202-.03.303a.37.37 0 0 0 .044.203c.477 0 1.873-.057 2.41-.057 1.32 0 2.676.057 3.224.057h.37a.397.397 0 0 0 .044-.23.712.712 0 0 0-.03-.262 2.476 2.476 0 0 1-1.396-.462 1.22 1.22 0 0 1-.298-.856l-.044-3.184c.892.058 1.843.088 2.364.088a5.76 5.76 0 0 0 1.731-.263c.514-.201.952-.55 1.257-1 .305-.45.462-.98.451-1.518M244 2.655c0-.086-.06-.11-.089-.174-.61 0-1.412.046-1.725.046-.758 0-1.68-.059-2.081-.059a.304.304 0 0 0-.059.174c.001.059.01.117.03.173.43.088 1.055.189 1.173.39.099.173.146.369.135.566.006.182-.025.363-.089.534-.134.363-.417.927-.818 1.724-.678 1.347-1.115 2.185-1.356 2.517-.386-.636-1.249-2.31-1.457-2.75l-.833-1.76a1.293 1.293 0 0 1-.058-.39.929.929 0 0 1 .058-.377c.135-.26.596-.288 1.219-.36a.596.596 0 0 0 .045-.22c0-.1-.045-.071-.089-.144h-.268c-.996 0-.699.043-2.408.043-.729 0-1.605-.043-1.724-.043-.06.103-.089.11-.089.22a.304.304 0 0 0 .059.174c.996.232 1.293.406 1.397.595l2.598 4.964c.197.345.357.71.476 1.087.104.573.144 1.155.12 1.736a1.215 1.215 0 0 1-.477 1.115 7.15 7.15 0 0 1-1.188.187.338.338 0 0 0-.075.204c.006.06.021.118.044.174.759 0 1.546-.015 1.993-.015.311 0 .79.015 1.665.03.505.013.891.029 1.159.029a.436.436 0 0 0 .074-.19.308.308 0 0 0-.06-.187 3.698 3.698 0 0 1-1.293-.29 1.09 1.09 0 0 1-.386-.926l-.113-2.172a.822.822 0 0 1 .058-.346c.041-.14.096-.277.164-.406l2.29-4.415a3.04 3.04 0 0 1 .951-.972c.309-.133.633-.23.966-.288a.534.534 0 0 0 .061-.198Zm-12.01 2.983V2.829c0-.22-.089-.275-.313-.275-.452 0-2.497.058-4.876.058-1.843 0-3.077-.03-3.909-.03h-1.099c-.195 0-.253.046-.253.247v2.622c.05.04.113.06.178.056a.41.41 0 0 0 .179-.028c.579-1.26.876-1.925 1.872-2.42.446-.043 2.007-.057 2.245-.057.015.158.029.665.044 1.274.015 1.042.015 1.605.015 4.07 0 2.127-.015 3.227-.044 3.459-.06.407.014.71-1.769.782a.452.452 0 0 0-.045.248.635.635 0 0 0 .015.173h.58c.55 0 1.277-.06 1.807-.06.432 0 1.25.045 2.156.045h.416a.376.376 0 0 0 .044-.22.329.329 0 0 0-.058-.204 3.144 3.144 0 0 1-1.532-.275 4.371 4.371 0 0 1-.133-1.085c-.015-1.565-.031-2.3-.031-3.344 0-1.346.016-2.374.016-4.879.208 0 1.308-.013 1.753 0 .687.138 1.29.533 1.68 1.1.321.482.548 1.017.669 1.58a.6.6 0 0 0 .226.028.273.273 0 0 0 .163-.059m-12.352 7.151a.458.458 0 0 0-.045-.202 11.284 11.284 0 0 1-1.101-.129 2.274 2.274 0 0 1-.505-1.117 222.87 222.87 0 0 1-.029-3.619V4.046a1.129 1.129 0 0 1 .268-.782 2.593 2.593 0 0 1 1.323-.377.45.45 0 0 0 .044-.187.236.236 0 0 0-.075-.173h-.43c-.625 0-1.516.07-2.022.07-.312 0-1.204-.043-1.859-.057h-.326a.208.208 0 0 0-.075.189 1 1 0 0 0 .03.188 3.25 3.25 0 0 1 1.16.202 1.57 1.57 0 0 1 .49 1.231c.015.276.03 1.013.044 2.345.016.724.031 1.708.031 2.548 0 .419-.031 1.503-.045 2.01a2.4 2.4 0 0 1-.208.869c-.179.146-.357.407-1.442.48a.556.556 0 0 0-.045.22c0 .116.03.116.03.189h.253c.594 0 1.516-.073 2.289-.073.226 0 1.204.043 1.695.043h.49a.357.357 0 0 0 .06-.19m-7.343-2.662a2.627 2.627 0 0 0-.436-1.526c-.3-.454-.733-.81-1.243-1.021a8.315 8.315 0 0 0-1.65-.58 11.067 11.067 0 0 1-2.155-.796 1.76 1.76 0 0 1-.665-.67 1.707 1.707 0 0 1-.213-.907c.058-.492.308-.942.698-1.258a2.004 2.004 0 0 1 1.399-.437 2.54 2.54 0 0 1 1.143.266c.354.176.659.433.89.748.378.51.688 1.064.922 1.65a.594.594 0 0 0 .149.03.484.484 0 0 0 .326-.145c-.062-.432-.1-.867-.112-1.303.015-.38.06-.758.133-1.13a.452.452 0 0 0-.445-.202 3.26 3.26 0 0 0-.58.52 3.78 3.78 0 0 0-2.527-.896 2.98 2.98 0 0 0-1.167.142c-.375.124-.72.322-1.013.58a2.79 2.79 0 0 0-.957 2.04 2.87 2.87 0 0 0 .55 1.595c.368.479.868.845 1.442 1.055.431.174 2.364.74 2.631.84 1.189.45 1.635.84 1.635 1.87a2.23 2.23 0 0 1-.654 1.464 2.07 2.07 0 0 1-.746.523 2.124 2.124 0 0 1-.904.158 3.41 3.41 0 0 1-1.366-.276 3.333 3.333 0 0 1-1.13-.796 6.782 6.782 0 0 1-1.017-1.956.546.546 0 0 0-.208-.027.538.538 0 0 0-.284.086c0 .189.06 1.145.06 1.43a5.78 5.78 0 0 1-.163 1.29.58.58 0 0 0 .475.29c.212-.205.465-.363.743-.466.129.01.253.056.357.13.732.485 1.6.738 2.486.724 2.095 0 3.596-1.028 3.596-3.039ZM199.139 5.13c-.012.48-.176.944-.469 1.33-.292.386-.7.675-1.167.828a8.186 8.186 0 0 1-1.546.116c-.178 0-.678 0-.904-.028l-.017-1.279V3.365c0-.187.044-.288.104-.33a5.075 5.075 0 0 1 1.041-.086c1.397 0 2.033.13 2.541.837.281.396.427.867.417 1.348m3.121 7.674a.382.382 0 0 0-.074-.22 2.31 2.31 0 0 1-.981-.19 3.15 3.15 0 0 1-.253-.36 18.448 18.448 0 0 0-.625-1.809 5.395 5.395 0 0 0-1.099-1.722 4.126 4.126 0 0 0-1.071-.478c-.237-.088-.43-.16-.609-.232.202-.04.405-.069.609-.086a2.766 2.766 0 0 0 1.576-.538c.304-.213.552-.494.722-.82.171-.325.259-.685.259-1.05a2.721 2.721 0 0 0-.504-1.594 2.83 2.83 0 0 0-1.353-1.022 7.582 7.582 0 0 0-1.784-.156c-1.116 0-1.948.101-2.691.101-.226 0-.951-.03-1.468-.03-.226 0-.791-.028-.877-.028-.045.101-.075.13-.075.187a.979.979 0 0 0 .03.201c.253.031.714.088.951.132.282.195.5.467.625.781.074.462.089 1.767.089 3.809 0 1.475.015 3.33-.06 3.88-.002.2-.06.396-.167.566-.107.171-.26.31-.442.403-.193.03-.55.086-.847.1a.39.39 0 0 0-.075.205c.011.06.031.12.06.174.208 0 1.921-.045 2.393-.045.951 0 1.189.045 2.033.045a.375.375 0 0 0 .06-.16.428.428 0 0 0-.06-.221c-.297-.027-.669-.11-.832-.143a1.107 1.107 0 0 1-.479-.42 1.062 1.062 0 0 1-.161-.607l-.014-3.621c.113-.013.55-.013.668-.013.407-.02.814.05 1.19.202a3.327 3.327 0 0 1 1.457 1.173c.507.987.824 2.056.937 3.154.044.306.162.566.445.593.286.038.574.053.863.045h1.544a.255.255 0 0 0 .066-.084.234.234 0 0 0 .024-.104m-12.471-2.2c.005-.14.001-.281-.011-.422a.334.334 0 0 0-.226-.045.436.436 0 0 0-.193.03 3.828 3.828 0 0 1-1.531 2.216c-.403.146-.836.2-1.264.158h-1.666a6.73 6.73 0 0 1-.981-.073c-.226-.043-.461-.391-.565-.623a1.851 1.851 0 0 1-.163-.997v-3.3h.475c.431-.026.863.042 1.264.198.324.126.603.343.802.622.12.39.191.794.209 1.202a.388.388 0 0 0 .238.058.357.357 0 0 0 .238-.074c0-.39-.089-1.448-.089-2.025 0-.725.104-1.607.148-2.13a.405.405 0 0 0-.238-.056.443.443 0 0 0-.238.043c-.044.202-.164.81-.193.854a2.15 2.15 0 0 1-1.144.77c-.4.09-.81.13-1.219.116h-.239V5.71c0-1.39.031-1.955.046-2.214.014-.175.044-.363.058-.492.135-.015.565-.029 1.25-.029.862 0 1.501.014 1.634.014.34 0 .672.101.951.29a3.676 3.676 0 0 1 1.324 1.795c.058.025.12.036.182.033.089 0 .105-.028.226-.088 0-.88-.06-1.882-.089-2.244-.015-.143-.045-.188-.339-.188-.119 0-.683-.029-1.278-.029-.847 0-1.189.016-2.485.016-.698 0-1.933.013-2.542.013-.892 0-1.085-.029-1.468-.029h-.505a.295.295 0 0 0-.075.175.332.332 0 0 0 .075.202c.365.027.727.08 1.084.16.209.173.403.22.536.912.029.303.045 1.287.045 1.953v2.978c0 .608-.016 1.607-.03 1.97a4.25 4.25 0 0 1-.327 1.403 4 4 0 0 1-1.338.22.47.47 0 0 0-.074.232.339.339 0 0 0 .074.201h.491c.475 0 1.665-.043 2.066-.043.372 0 .877.028 1.738.028.476 0 1.873.09 4.877.09.134.01.27 0 .401-.03a.451.451 0 0 0 .059-.232c.03-.289.03-.999.03-2.171m-11-7.903c0-.059-.015-.147-.075-.161h-.504c-.357 0-.922.03-1.175.03-1.203 0-1.635-.074-1.808-.074h-.267c-.03.074-.075.117-.075.187 0 .07.031.103.031.162.348.04.692.113 1.025.22.237.248.37.574.372.913a5.413 5.413 0 0 1-.357 1.32l-2.394 5.731-2.937-7.25c.014-.163.065-.32.15-.461.085-.141.201-.261.34-.352.319-.06.642-.096.966-.11a.516.516 0 0 0 .06-.203c0-.06-.015-.146-.074-.16h-.372c-.461 0-1.159.058-1.948.058-.338 0-1.009-.029-1.663-.029h-.581a.318.318 0 0 0-.015.347 5.14 5.14 0 0 1 1.227.476 24.88 24.88 0 0 1 1.219 2.64l1.233 2.895c1.026 2.405 1.635 4.01 1.71 4.285.074.045 0 .088.133.088s.12-.031.149-.101l3.841-8.975c.128-.303.309-.582.535-.825a2.38 2.38 0 0 1 1.189-.464.721.721 0 0 0 .059-.187M165.773 12.79a.458.458 0 0 0-.044-.202 11.197 11.197 0 0 1-1.1-.129 2.246 2.246 0 0 1-.506-1.116c-.015-.694-.03-2.272-.03-3.62V4.046a1.139 1.139 0 0 1 .268-.782 2.593 2.593 0 0 1 1.323-.377.45.45 0 0 0 .045-.187.236.236 0 0 0-.074-.173h-.432c-.625 0-1.516.07-2.021.07-.313 0-1.204-.043-1.858-.057h-.328a.208.208 0 0 0-.074.189.999.999 0 0 0 .03.188c.396-.004.789.065 1.159.202a1.574 1.574 0 0 1 .49 1.232c.016.275.031 1.012.046 2.344.014.724.029 1.708.029 2.548 0 .419-.029 1.503-.044 2.01-.014.3-.085.594-.209.869-.177.146-.356.407-1.441.48a.575.575 0 0 0-.044.22c0 .116.029.116.029.189h.253c.594 0 1.516-.073 2.289-.073.226 0 1.204.043 1.694.043h.49a.347.347 0 0 0 .06-.19m-6.719-10.12a.24.24 0 0 0-.044-.144h-.339c-.743 0-1.07.027-2.408.027-.461 0-1.145-.027-1.308-.027h-.387c-.044.027-.058.128-.058.187a.183.183 0 0 0 .073.158 6.59 6.59 0 0 1 1.532.421c.281.444.43.955.43 1.477.015.22.031.434.031 1.026v4.3a5.18 5.18 0 0 1-.031.623c-.252-.275-.683-.81-1.263-1.476l-5.687-6.457a1.028 1.028 0 0 0-.226-.19c-.12 0-.268-.013-.387-.013-.952 0-1.783-.043-2.033-.043a.272.272 0 0 0-.045.143c.004.064.014.127.03.189.41.045.802.184 1.145.407.279.253.524.54.728.853.048.15.068.307.059.464 0 .753-.044 2.129-.044 3.14v3.081c.002.368-.028.736-.089 1.1-.439.385-.98.642-1.561.74a.403.403 0 0 0-.059.173c0 .043.014.129.044.144h.282c.297 0 .982-.043 1.427-.043.654 0 .951.043 1.561.043h.893c.058-.015.073-.13.073-.189a.275.275 0 0 0-.044-.144 2.892 2.892 0 0 1-1.784-.898 8.361 8.361 0 0 1-.193-1.825c0-.46-.015-1.215-.015-2.068 0-1.143.015-2.723.03-3.228.089.101.226.26.326.376l7.047 8.031c.073.073.104.086.178.086.075 0 .03 0 .09-.029a2.17 2.17 0 0 0 .073-.652c0-.419-.015-.854-.015-1.07V5.217c0-1.81.878-2.31 1.904-2.36a.307.307 0 0 0 .058-.187m-13.764.072a.29.29 0 0 0-.075-.19h-.43c-.461 0-1.086.03-1.621.03-.594 0-1.263-.03-1.694-.03h-.536a.356.356 0 0 0-.059.19.485.485 0 0 0 .044.187c.061 0 1.147.016 1.339.275.254.323.45.686.579 1.073.087.526.127 1.059.12 1.592 0 1.23 0 2.056-.016 2.49a7.552 7.552 0 0 1-.266 1.925 2.658 2.658 0 0 1-1.106 1.457 2.778 2.778 0 0 1-1.809.424 4.171 4.171 0 0 1-1.738-.362 2.5 2.5 0 0 1-.956-.736 2.419 2.419 0 0 1-.488-1.087l-.074-4.342-.015-1.767c0-.33.432-.638.579-.81a7.224 7.224 0 0 1 1.144-.144.408.408 0 0 0 .075-.203.243.243 0 0 0-.104-.187l-.564.013c-.551.014-1.279.03-1.74.03-.713 0-1.263-.016-1.709-.016h-.624a.252.252 0 0 0-.061.093.24.24 0 0 0-.013.11.225.225 0 0 0 .058.173c.476.059.791.101.997.147.243.147.428.372.522.635.012.19.043.652.043 1.565V8.75c-.024.65.026 1.3.149 1.938a2.87 2.87 0 0 0 1.292 1.781 4.966 4.966 0 0 0 2.72.695 5.243 5.243 0 0 0 2.558-.593 3.03 3.03 0 0 0 .942-.812c.253-.332.432-.71.526-1.114a6.42 6.42 0 0 0 .237-1.721v-2.78c0-.52.03-1.174.03-1.43a2.857 2.857 0 0 1 .446-1.592c.403-.11.816-.177 1.234-.203a.35.35 0 0 0 .059-.173M4.984 3.578a.092.092 0 0 0-.048.015.089.089 0 0 0-.033.037l-.173.374h-.013s-.012 0-.017-.017a1.848 1.848 0 0 0-.07-.166L4.576 3.7a.78.78 0 0 0-.042-.083.086.086 0 0 0-.072-.038v-.022h.237v.022c-.02 0-.068 0-.068.03a.075.075 0 0 0 0 .025l.113.261.094-.22a.128.128 0 0 0 .02-.055c0-.024-.019-.034-.066-.04v-.024h.192v.023Zm.478.418h-.434V3.97a.175.175 0 0 0 .07-.013.14.14 0 0 0 .014-.069v-.257c0-.048-.024-.048-.076-.054v-.023h.39c.01 0 .015 0 .015.011l.007.099h-.026a.222.222 0 0 0-.069-.076.08.08 0 0 0-.04-.01h-.056a.32.32 0 0 0-.05 0l-.007.015c-.007.015 0 .03 0 .088v.058h.015a.22.22 0 0 0 .052 0 .08.08 0 0 0 .042-.031l.013-.03h.026v.181a.019.019 0 0 1-.014 0h-.011c0-.038-.01-.064-.043-.077a.135.135 0 0 0-.05-.01H5.2v.111a.134.134 0 0 0 .006.053c0 .007.014.023.027.024h.107a.193.193 0 0 0 .05-.006.257.257 0 0 0 .072-.094h.027v.118c-.003.016-.01.018-.026.018Zm.543-.302h-.012a.26.26 0 0 0-.033-.064.105.105 0 0 0-.086-.045h-.042v.327c0 .067.024.051.078.057v.024h-.244a.016.016 0 0 1 0-.011v-.013c.073 0 .08-.018.082-.04.002-.024 0-.072 0-.132v-.16a.23.23 0 0 0 0-.052.49.49 0 0 0-.07 0 .186.186 0 0 0-.092.098h-.021v-.116c0-.01 0-.012.013-.012h.424a.042.042 0 0 1 .022 0v.129l-.002.005-.005.004-.006.002-.006-.001Zm-1.044.69h-.013a.212.212 0 0 0-.034-.064.104.104 0 0 0-.084-.043h-.044v.327c0 .066.026.052.08.057v.024H4.62V4.66c.071 0 .08-.018.083-.04.003-.022 0-.072 0-.132v-.162a.239.239 0 0 0 0-.052.374.374 0 0 0-.071 0c-.038.012-.063.042-.09.095l-.024.007v-.114c0-.011 0-.014.013-.014h.442v.131l-.013.004Zm.517.302h-.431v-.023a.133.133 0 0 0 .067-.013c.009-.008.013-.028.016-.067v-.261c0-.05-.025-.05-.077-.055v-.024h.392c.011 0 .016 0 .016.01l.005.1h-.023a.208.208 0 0 0-.068-.077.115.115 0 0 0-.04-.01h-.06a.299.299 0 0 0-.05 0c-.007 0 0 0-.008.015-.008.016 0 .032 0 .09v.057h.013a.206.206 0 0 0 .052 0 .092.092 0 0 0 .048-.031.291.291 0 0 0 .008-.037h.028v.182h-.027c0-.037-.008-.064-.043-.077a.125.125 0 0 0-.049-.008h-.033v.11c0 .018.002.035.006.052 0 .009.015.024.027.024a.22.22 0 0 0 .042 0h.065a.115.115 0 0 0 .049-.008.222.222 0 0 0 .072-.078.025.025 0 0 1 .015 0h.012v.117c0 .01-.007.012-.024.012Zm.319.009a.262.262 0 0 1-.105-.028h-.017a.1.1 0 0 0-.034.017c-.01 0-.023 0-.026-.013-.002-.014.008-.037.008-.054v-.072a.028.028 0 0 1 .02-.009h.005c.01.018.028.065.042.085a.14.14 0 0 0 .1.046.106.106 0 0 0 .073-.02.064.064 0 0 0 .026-.054.057.057 0 0 0-.015-.036.113.113 0 0 0-.047-.033c-.02-.008-.09-.025-.113-.038a.154.154 0 0 1-.066-.05.13.13 0 0 1-.027-.079.121.121 0 0 1 .042-.092.129.129 0 0 1 .098-.031c.04-.004.08.006.113.029l.023-.025a.028.028 0 0 1 .025.011.511.511 0 0 0-.008.06c0 .013.008.06.008.066a.05.05 0 0 1-.02.006h-.006c-.013-.02-.025-.057-.039-.077a.105.105 0 0 0-.09-.037.075.075 0 0 0-.055.016.072.072 0 0 0-.027.049c0 .037.03.054.056.066.025.012.042.016.068.024a.57.57 0 0 1 .073.025c.022.01.04.025.054.045.013.02.02.042.02.065a.139.139 0 0 1-.05.102.147.147 0 0 1-.109.036Zm-.653.682h-.433v-.025a.165.165 0 0 0 .068-.015.127.127 0 0 0 .015-.067v-.257c0-.05-.026-.05-.076-.055v-.023h.39c.011 0 .016 0 .016.01v.1h-.016a.213.213 0 0 0-.068-.076.1.1 0 0 0-.04-.011h-.06a.339.339 0 0 0-.052 0v.161h.016a.21.21 0 0 0 .05 0 .08.08 0 0 0 .047-.03.124.124 0 0 0 .01-.037h.026v.181l-.006.001-.006-.001h-.012c0-.038-.011-.063-.044-.077a.133.133 0 0 0-.05-.008h-.04v.11a.166.166 0 0 0 0 .052.039.039 0 0 0 .027.024.225.225 0 0 0 .043 0h.064a.116.116 0 0 0 .049-.008.22.22 0 0 0 .073-.093h.027v.118c.006.024-.002.026-.018.026Zm.659-.419c-.046 0-.086.025-.086.098v.323a.037.037 0 0 1-.018.007l-.011-.007-.319-.33v.242a.055.055 0 0 0 .023.047c.018.012.04.018.06.02v.02h-.19v-.025a.108.108 0 0 0 .072-.026.134.134 0 0 0 .008-.052v-.23a.089.089 0 0 0-.017-.048l-.023-.023a.252.252 0 0 0-.051-.02V4.93h.13l.013.01.237.251.053.06v-.175a.44.44 0 0 0 0-.05.128.128 0 0 0-.013-.048c-.007-.01-.051-.017-.074-.021v-.023h.206v.023Zm1.491-1.381c-.045 0-.086.025-.086.097v.32a.029.029 0 0 1-.018.007s-.007 0-.012-.007l-.32-.33v.241a.062.062 0 0 0 .023.047.14.14 0 0 0 .06.019v.022h-.187v-.022a.114.114 0 0 0 .071-.03.121.121 0 0 0 .008-.054v-.22a.082.082 0 0 0-.016-.047l-.023-.023a.216.216 0 0 0-.051-.022v-.021h.13l.018.013.237.252a.74.74 0 0 1 .053.06v-.183a.344.344 0 0 0 0-.05.123.123 0 0 0-.012-.048c-.008-.011-.052-.016-.075-.02v-.024h.207v.011l-.007.012Zm.47.363a.23.23 0 0 1-.319 0 .22.22 0 0 1-.069-.164.224.224 0 0 1 .07-.168.228.228 0 0 1 .277-.032.23.23 0 0 1 .113.195.242.242 0 0 1-.072.17Zm-.074-.32a.103.103 0 0 0-.09-.047.098.098 0 0 0-.084.047.253.253 0 0 0-.042.155.271.271 0 0 0 .04.154.1.1 0 0 0 .089.048c.02.001.04-.004.058-.015a.1.1 0 0 0 .04-.045.269.269 0 0 0 .03-.14.247.247 0 0 0-.041-.157Zm.717-.042a.093.093 0 0 0-.048.015.09.09 0 0 0-.033.037l-.171.374H8.14s-.013 0-.017-.017a1.571 1.571 0 0 0-.07-.166L8 3.7c-.02-.045-.036-.075-.04-.083a.09.09 0 0 0-.074-.041v-.022h.236v.022c-.021 0-.067 0-.067.03a.055.055 0 0 0 0 .025l.113.26.095-.22a.138.138 0 0 0 .013-.057c0-.024-.018-.034-.066-.04V3.55h.194v.01l.003.018Zm-1.261.806h-.014A.218.218 0 0 0 7.1 4.32a.112.112 0 0 0-.084-.043h-.044v.327c0 .066.025.052.08.057a.026.026 0 0 1 0 .014v.01h-.246V4.66c.073 0 .08-.018.084-.04.003-.022 0-.072 0-.132v-.162a.239.239 0 0 0 0-.052.38.38 0 0 0-.072 0c-.036.012-.062.042-.09.095h-.023v-.11c0-.01 0-.013.014-.013h.446v.131l-.019.006Zm.542.301h-.225v-.022c.045 0 .063-.009.063-.025a.175.175 0 0 0-.014-.059l-.024-.055h-.162a.303.303 0 0 0-.033.084.094.094 0 0 0 0 .026c0 .015.015.03.064.031v.023h-.19v-.02a.097.097 0 0 0 .063-.036.783.783 0 0 0 .057-.115l.07-.164c.012-.031.025-.05.03-.065l.025-.046.018-.007c.007 0 .018 0 .019.008l.011.023c.027.06.048.11.08.19.016.039.025.062.043.101l.032.067c.012.024.044.035.071.04v.011l.002.01Zm-.284-.348a.555.555 0 0 0-.033.07 1.228 1.228 0 0 1-.037.085h.135c-.013-.026-.046-.108-.065-.155Zm.985.348h-.234v-.023H8.2c.018-.008.025-.025.025-.053v-.322l-.092.205-.032.07a.818.818 0 0 0-.04.1.013.013 0 0 1-.006.008.014.014 0 0 1-.009.002c-.006 0-.01 0-.014-.013-.004-.014-.02-.043-.025-.055l-.155-.322v.289c0 .062.033.09.085.09v.023h-.205v-.017a.218.218 0 0 0 .066-.022c.01-.007.019-.027.019-.07v-.232c0-.037 0-.05-.024-.06a.185.185 0 0 0-.06-.014v-.024h.19l.01.012.135.3.025-.061c.02-.049.052-.12.093-.198l.028-.052h.172v.022c-.02 0-.052 0-.067.029 0 .007-.01.016-.01.052v.208c0 .083.022.09.032.097a.177.177 0 0 0 .046 0v.012l.002.019Zm-1.253.39h-.014a.185.185 0 0 0-.034-.064.102.102 0 0 0-.084-.046h-.042v.327c0 .066.024.052.079.059v.023h-.246V5.35c.07 0 .079-.018.082-.041.004-.023 0-.073 0-.132v-.16a.233.233 0 0 0 0-.053.399.399 0 0 0-.072 0c-.036.013-.06.044-.09.096h-.022v-.11c0-.01 0-.013.012-.013h.446v.13l-.015.007Zm.561-.116a.093.093 0 0 0-.08.053l-.17.372a.04.04 0 0 1-.015 0s-.013 0-.016-.017a1.595 1.595 0 0 0-.07-.167l-.055-.122a1.186 1.186 0 0 0-.041-.084.087.087 0 0 0-.072-.04V4.93h.237v.022c-.022 0-.067 0-.067.03a.077.077 0 0 0 0 .026l.113.26.095-.22a.132.132 0 0 0 .013-.052c0-.024-.02-.034-.066-.04v-.023h.192v.01l.002.015Zm.7.417h-.233v-.022h.046a.052.052 0 0 0 .022-.023.05.05 0 0 0 .004-.03v-.323l-.095.205-.035.07-.04.1c-.007.018-.008.01-.014.01s-.009 0-.014-.012a.434.434 0 0 1-.023-.057l-.153-.322v.29c0 .062.034.09.086.09v.023h-.206v-.021a.274.274 0 0 0 .067-.027c.01-.008.017-.028.017-.071v-.221c0-.038 0-.05-.024-.063a.208.208 0 0 0-.058-.012v-.024h.19l.008.012.136.298.025-.06a1.85 1.85 0 0 1 .122-.25h.17v.023c-.018 0-.05 0-.066.028a.094.094 0 0 0-.01.053v.213c0 .082.022.089.031.095.015.004.03.006.045.006v.012c.006.007.004.007.002.01Z" />
    <path
      d="m12.731 2.617-.018-.21-.206.062a5.378 5.378 0 0 1-1.536.22 5.292 5.292 0 0 1-2.536-.637A5.126 5.126 0 0 1 6.543.288l-.15-.241-.148.24A5.126 5.126 0 0 1 4.352 2.05c-.775.42-1.648.64-2.535.637a5.42 5.42 0 0 1-1.535-.22L.077 2.41l-.018.209a14.281 14.281 0 0 0 .263 4.31 14.684 14.684 0 0 0 1.647 4.257c.403.7.863 1.368 1.375 1.997a15.732 15.732 0 0 0 2.942 2.789l.104.076.104-.076a15.723 15.723 0 0 0 2.949-2.78c.511-.629.97-1.296 1.374-1.995a14.729 14.729 0 0 0 1.6-4.062l.043-.206c.307-1.416.398-2.869.271-4.311ZM9.055 3.752h.257v.488h-.257v-.488Zm0 1.278h.257v.489h-.257V5.03ZM6.46 3.237a.474.474 0 0 1 .43-.18l.497.07.652.083c.192.01.385-.02.564-.092v2.65c-.181.06-.373.089-.564.082l-.627-.083-.521-.064a.651.651 0 0 0-.434.133l.003-2.599Zm-2.23-.11c.17.07.356.1.542.087l.65-.087.494-.07a.488.488 0 0 1 .434.178v2.602a.66.66 0 0 0-.439-.134l-.515.064-.624.082c-.458 0-.554-.11-.554-.11l.011-2.612Zm-.373.324.265-.056v2.381c.027.054.138.182.65.182l.65-.08.495-.069a.495.495 0 0 1 .44.178l.014-.007h.077l.015.006a.471.471 0 0 1 .428-.18l.496.068.652.084c.518 0 .647-.133.66-.148l.01-2.43.237.064v2.634a7.548 7.548 0 0 1-.938.071 12.62 12.62 0 0 1-1.25-.085l-.06-.008v.178a.925.925 0 0 1-.302.054.816.816 0 0 1-.29-.054v-.178l-.061.008c-.413.05-.827.077-1.243.085a7.406 7.406 0 0 1-.94-.071L3.857 3.45Zm-.355.301h.252v.488h-.252v-.488Zm0 1.278h.252v.489h-.252V5.03Zm2.894 10.582a15.309 15.309 0 0 1-2.774-2.64l-.01-.012 2.785-2.64 2.79 2.64-.012.015a15.407 15.407 0 0 1-2.783 2.637h.004Zm5.68-8.552a14.356 14.356 0 0 1-1.54 3.929L6.393 7.107l-4.14 3.874A14.387 14.387 0 0 1 .678 6.894H12.11l-.035.166Z" />
  </g>
</svg>