<svg id="Layer_1" data-name="Layer 1" xmlns="http://www.w3.org/2000/svg" viewBox="0 0 64 64">
  <defs>
    <style>
      .cls-1 {
        fill: #00edff;
      }

      .cls-2, .cls-4 {
        fill: none;
        stroke-miterlimit: 10;
        stroke-width: 4px;
      }

      .cls-2 {
        stroke: #00edff;
      }

      .cls-3 {
        fill: #fff;
      }

      .cls-4 {
        stroke: #000;
      }
    </style>
  </defs>
  <title>CDH_icon_location</title>
  <g id="_Group_" data-name="&lt;Group&gt;">
    <g>
      <path class="cls-1" d="M57,29c0,11.6-21,32-21,32S15,40.6,15,29a21,21,0,0,1,42,0Z"/>
      <path class="cls-2" d="M57,29c0,11.6-21,32-21,32S15,40.6,15,29a21,21,0,0,1,42,0Z"/>
    </g>
    <g>
      <path class="cls-3" d="M51,23c0,11.6-21,32-21,32S9,34.6,9,23a21,21,0,0,1,42,0Z"/>
      <path class="cls-4" d="M51,23c0,11.6-21,32-21,32S9,34.6,9,23a21,21,0,0,1,42,0Z"/>
    </g>
  </g>
  <circle id="_Path_" data-name="&lt;Path&gt;" class="cls-4" cx="30" cy="22" r="6"/>
</svg>
