<svg id="Layer_1" data-name="Layer 1" xmlns="http://www.w3.org/2000/svg" viewBox="0 0 64 64">
  <defs>
    <style>
      .cls-1, .cls-4 {
        fill: #fff;
      }

      .cls-1, .cls-5, .cls-6 {
        stroke: #000;
      }

      .cls-1, .cls-3, .cls-5, .cls-6 {
        stroke-miterlimit: 10;
        stroke-width: 4px;
      }

      .cls-2 {
        fill: #00edff;
      }

      .cls-3, .cls-5, .cls-6 {
        fill: none;
      }

      .cls-3 {
        stroke: #00edff;
      }

      .cls-6 {
        stroke-linecap: square;
      }
    </style>
  </defs>
  <title>CDH_icon_book</title>
  <path id="_Path_" data-name="&lt;Path&gt;" class="cls-1" d="M7,50V8.65A6.62,6.62,0,0,1,13.58,2H44V43.9"/>
  <g id="_Group_" data-name="&lt;Group&gt;">
    <g>
      <path class="cls-2" d="M57,12V62H19.65C16,62,13,59.29,13,56h0c0-3.31,3-6,6.65-6H50V12"/>
      <path class="cls-3" d="M57,12V62H19.65C16,62,13,59.29,13,56h0c0-3.31,3-6,6.65-6H50V12"/>
    </g>
    <g>
      <path class="cls-4" d="M51,6V56H13.65C10,56,7,53.29,7,50H7c0-3.31,3-6,6.65-6H44V6"/>
      <path class="cls-5" d="M51,6V56H13.65C10,56,7,53.29,7,50H7c0-3.31,3-6,6.65-6H44V6"/>
    </g>
  </g>
  <line id="_Path_2" data-name="&lt;Path&gt;" class="cls-6" x1="17.96" y1="50" x2="43.96" y2="50"/>
</svg>
