<svg id="Layer_1" data-name="Layer 1" xmlns="http://www.w3.org/2000/svg" viewBox="0 0 64 64">
  <defs>
    <style>
      .cls-1 {
        fill: #00edff;
      }

      .cls-2, .cls-4 {
        fill: none;
        stroke-miterlimit: 10;
        stroke-width: 4px;
      }

      .cls-2 {
        stroke: #00edff;
      }

      .cls-3 {
        fill: #fff;
      }

      .cls-4 {
        stroke: #000;
      }
    </style>
  </defs>
  <title>CDH_icon_ppl</title>
  <g id="_Group_" data-name="&lt;Group&gt;">
    <g>
      <circle class="cls-1" cx="36" cy="23" r="15"/>
      <circle class="cls-2" cx="36" cy="23" r="15"/>
    </g>
    <g>
      <circle class="cls-3" cx="30" cy="17" r="15"/>
      <circle class="cls-4" cx="30" cy="17" r="15"/>
    </g>
  </g>
  <g id="_Group_2" data-name="&lt;Group&gt;">
    <g>
      <path class="cls-1" d="M59,61H13a23,23,0,0,1,46,0Z"/>
      <path class="cls-2" d="M59,61H13a23,23,0,0,1,46,0Z"/>
    </g>
    <g>
      <path class="cls-3" d="M53,55H7A22.82,22.82,0,0,1,30,32,22.82,22.82,0,0,1,53,55Z"/>
      <path class="cls-4" d="M53,55H7A22.82,22.82,0,0,1,30,32,22.82,22.82,0,0,1,53,55Z"/>
    </g>
  </g>
</svg>
