<svg xmlns="http://www.w3.org/2000/svg" viewBox="0 0 64 64">
  <defs>
    <style>
      .cls-1 {
        fill: #00edff;
      }

      .cls-2, .cls-3 {
        fill: #fff;
      }

      .cls-2, .cls-4 {
        stroke: #000;
        stroke-miterlimit: 10;
        stroke-width: 4px;
      }

      .cls-4 {
        fill: none;
      }
    </style>
  </defs>
  <title>CDH_icon_pdf</title>
  <g id="Layer_2" data-name="Layer 2">
    <polygon id="_Path_" data-name="&lt;Path&gt;" class="cls-1" points="59 64 13 64 13 6.86 45.86 6.86 59 20 59 64"/>
    <polygon id="_Path_2" data-name="&lt;Path&gt;" class="cls-2" points="51 56 9 56 9 2 39 2 51 14 51 56"/>
    <rect id="_Rectangle_" data-name="&lt;Rectangle&gt;" class="cls-3" x="13" y="24" width="51" height="30"/>
    <path d="M19,40v7H16V30h6.32c2.18,0,3.47.53,4.41,1.53A5,5,0,0,1,28,35a5.16,5.16,0,0,1-1.27,3.56c-.92,1-2.23,1.44-4.41,1.44Zm3-3a3.13,3.13,0,0,0,2.23-.64A1.86,1.86,0,0,0,24.79,35a1.92,1.92,0,0,0-.56-1.37A3.13,3.13,0,0,0,22,33H19v4Z"/>
    <path d="M36.27,30a9.33,9.33,0,0,1,5.84,1.6C44.2,33.15,45,35.19,45,38s-.8,5.82-2.89,7.37A9.33,9.33,0,0,1,36.27,47H31V30ZM41,34.8a5.19,5.19,0,0,0-4.34-1.89H34V44.06h2.63A5.19,5.19,0,0,0,41,42.17a6.11,6.11,0,0,0,0-7.37Z"/>
    <path d="M52,33v3h6v3H52v8H49V30H59v3Z"/>
    <polyline id="_Path_3" data-name="&lt;Path&gt;" class="cls-4" points="38 2 38 15 51 15"/>
  </g>
</svg>
