<svg id="Layer_1" data-name="Layer 1" xmlns="http://www.w3.org/2000/svg" viewBox="0 0 64 64">
  <defs>
    <style>
      .cls-1, .cls-4 {
        fill: none;
      }

      .cls-1 {
        stroke: #00edff;
      }

      .cls-1, .cls-4, .cls-5 {
        stroke-miterlimit: 10;
        stroke-width: 4px;
      }

      .cls-2 {
        fill: #00edff;
      }

      .cls-3, .cls-5 {
        fill: #fff;
      }

      .cls-4, .cls-5 {
        stroke: #000;
      }
    </style>
  </defs>
  <title>CDH_icon_seed</title>
  <line id="_Path_" data-name="&lt;Path&gt;" class="cls-1" x1="36" y1="24" x2="36" y2="37"/>
  <g id="_Group_" data-name="&lt;Group&gt;">
    <g>
      <path class="cls-2" d="M20,13.08c0,9.46,7.16,17.12,16,17.12C36,20.74,28.84,13.08,20,13.08Z"/>
      <path class="cls-1" d="M20,13.08c0,9.46,7.16,17.12,16,17.12C36,20.74,28.84,13.08,20,13.08Z"/>
    </g>
    <g>
      <path class="cls-3" d="M16,9.08c0,9.46,7.16,17.12,16,17.12C32,16.74,24.84,9.08,16,9.08Z"/>
      <path class="cls-4" d="M16,9.08c0,9.46,7.16,17.12,16,17.12C32,16.74,24.84,9.08,16,9.08Z"/>
    </g>
  </g>
  <g id="_Group_2" data-name="&lt;Group&gt;">
    <g>
      <path class="cls-2" d="M36.18,30c0-13.27,9.68-24,21.64-24C57.82,19.27,48.14,30,36.18,30Z"/>
      <path class="cls-1" d="M36.18,30c0-13.27,9.68-24,21.64-24C57.82,19.27,48.14,30,36.18,30Z"/>
    </g>
    <g>
      <path class="cls-3" d="M32.18,26c0-13.27,9.68-24,21.64-24C53.82,15.27,44.14,26,32.18,26Z"/>
      <path class="cls-4" d="M32.18,26c0-13.27,9.68-24,21.64-24C53.82,15.27,44.14,26,32.18,26Z"/>
    </g>
  </g>
  <line id="_Path_2" data-name="&lt;Path&gt;" class="cls-1" x1="9" y1="42" x2="61" y2="42"/>
  <g id="_Group_3" data-name="&lt;Group&gt;">
    <g>
      <polygon class="cls-2" points="49.3 62 22.7 62 19 42 53 42 49.3 62"/>
      <polygon class="cls-1" points="49.3 62 22.7 62 19 42 53 42 49.3 62"/>
    </g>
    <g>
      <polygon class="cls-3" points="45.3 58 18.7 58 15 38 49 38 45.3 58"/>
      <polygon class="cls-4" points="45.3 58 18.7 58 15 38 49 38 45.3 58"/>
    </g>
  </g>
  <line id="_Path_3" data-name="&lt;Path&gt;" class="cls-5" x1="6" y1="38" x2="58" y2="38"/>
  <line id="_Path_4" data-name="&lt;Path&gt;" class="cls-4" x1="32" y1="24" x2="32" y2="37"/>
</svg>
