<svg id="Layer_1" data-name="Layer 1" xmlns="http://www.w3.org/2000/svg" viewBox="0 0 64 64">
  <defs>
    <style>
      .cls-1 {
        fill: #00edff;
        stroke: #00edff;
      }

      .cls-1, .cls-3 {
        stroke-miterlimit: 10;
        stroke-width: 4px;
      }

      .cls-2, .cls-3 {
        fill: #fff;
      }

      .cls-3 {
        stroke: #000;
      }
    </style>
  </defs>
  <title>CDH_icon_folder</title>
  <path id="_Path_" data-name="&lt;Path&gt;" class="cls-1" d="M14,58H54.35A6.62,6.62,0,0,0,61,51.42V26H19V51.35C19,55,17.34,58,14,58h0c-3.31,0-5-3-5-6.65L19,51"/>
  <rect class="cls-2" x="9" y="20" width="46" height="32"/>
  <path id="_Path_2" data-name="&lt;Path&gt;" class="cls-3" d="M53,13H25L22.69,9.71A4,4,0,0,0,19.42,8H3V45.35C3,49,4.71,52,8,52H8c3.31,0,5-3,5-6.65V20H55V45.42A6.62,6.62,0,0,1,48.35,52H8"/>
</svg>
