<svg id="Layer_1" data-name="Layer 1" xmlns="http://www.w3.org/2000/svg" viewBox="0 0 64 64">
  <defs>
    <style>
      .cls-1, .cls-2, .cls-3 {
        fill: #00edff;
      }

      .cls-2, .cls-3, .cls-4 {
        stroke: #00edff;
      }

      .cls-2, .cls-4, .cls-6, .cls-8 {
        stroke-linejoin: round;
      }

      .cls-2, .cls-3, .cls-4, .cls-6, .cls-7, .cls-8 {
        stroke-width: 4px;
      }

      .cls-3, .cls-7 {
        stroke-miterlimit: 10;
      }

      .cls-4, .cls-8 {
        fill: none;
      }

      .cls-5, .cls-6, .cls-7 {
        fill: #fff;
      }

      .cls-6, .cls-7, .cls-8 {
        stroke: #000;
      }
    </style>
  </defs>
  <title>CDH_icon_medal</title>
  <g>
    <g>
      <polyline id="_Path_" data-name="&lt;Path&gt;" class="cls-1" points="42 44 42 62 35 56.9 28 62 28 44"/>
      <path id="_Path_2" data-name="&lt;Path&gt;" class="cls-1" d="M55.08,29.23h0a3.16,3.16,0,0,0,0-4.46h0a14.5,14.5,0,0,1-4.25-10.25v-.19a3.16,3.16,0,0,0-3.16-3.16h-.05A14.5,14.5,0,0,1,37.37,6.92h0a3.16,3.16,0,0,0-4.46,0h0a14.5,14.5,0,0,1-10.25,4.25h-.33a3.16,3.16,0,0,0-3.16,3.16v.19a14.5,14.5,0,0,1-4.25,10.25h0a3.16,3.16,0,0,0,0,4.46h0a14.5,14.5,0,0,1,4.25,10.25v.19a3.16,3.16,0,0,0,3.16,3.16h.33A14.5,14.5,0,0,1,32.9,47.08h0a3.16,3.16,0,0,0,4.46,0h0a14.5,14.5,0,0,1,10.25-4.25h.05a3.16,3.16,0,0,0,3.16-3.16v-.19A14.5,14.5,0,0,1,55.08,29.23Z"/>
      <circle id="_Path_3" data-name="&lt;Path&gt;" class="cls-1" cx="35" cy="27" r="12"/>
      <polyline id="_Path_4" data-name="&lt;Path&gt;" class="cls-2" points="42 44 42 62 35 56.9 28 62 28 44"/>
      <path id="_Path_5" data-name="&lt;Path&gt;" class="cls-3" d="M55.08,29.23h0a3.16,3.16,0,0,0,0-4.46h0a14.5,14.5,0,0,1-4.25-10.25v-.19a3.16,3.16,0,0,0-3.16-3.16h-.05A14.5,14.5,0,0,1,37.37,6.92h0a3.16,3.16,0,0,0-4.46,0h0a14.5,14.5,0,0,1-10.25,4.25h-.33a3.16,3.16,0,0,0-3.16,3.16v.19a14.5,14.5,0,0,1-4.25,10.25h0a3.16,3.16,0,0,0,0,4.46h0a14.5,14.5,0,0,1,4.25,10.25v.19a3.16,3.16,0,0,0,3.16,3.16h.33A14.5,14.5,0,0,1,32.9,47.08h0a3.16,3.16,0,0,0,4.46,0h0a14.5,14.5,0,0,1,10.25-4.25h.05a3.16,3.16,0,0,0,3.16-3.16v-.19A14.5,14.5,0,0,1,55.08,29.23Z"/>
      <circle id="_Path_6" data-name="&lt;Path&gt;" class="cls-3" cx="35" cy="27" r="12"/>
      <polyline id="_Path_7" data-name="&lt;Path&gt;" class="cls-4" points="42 44 42 62 35 56.9 28 62 28 44"/>
      <path id="_Path_8" data-name="&lt;Path&gt;" class="cls-4" d="M55.08,29.23h0a3.16,3.16,0,0,0,0-4.46h0a14.5,14.5,0,0,1-4.25-10.25v-.19a3.16,3.16,0,0,0-3.16-3.16h-.05A14.5,14.5,0,0,1,37.37,6.92h0a3.16,3.16,0,0,0-4.46,0h0a14.5,14.5,0,0,1-10.25,4.25h-.33a3.16,3.16,0,0,0-3.16,3.16v.19a14.5,14.5,0,0,1-4.25,10.25h0a3.16,3.16,0,0,0,0,4.46h0a14.5,14.5,0,0,1,4.25,10.25v.19a3.16,3.16,0,0,0,3.16,3.16h.33A14.5,14.5,0,0,1,32.9,47.08h0a3.16,3.16,0,0,0,4.46,0h0a14.5,14.5,0,0,1,10.25-4.25h.05a3.16,3.16,0,0,0,3.16-3.16v-.19A14.5,14.5,0,0,1,55.08,29.23Z"/>
      <circle id="_Path_9" data-name="&lt;Path&gt;" class="cls-4" cx="35" cy="27" r="12"/>
    </g>
    <g>
      <g>
        <polyline id="_Path_10" data-name="&lt;Path&gt;" class="cls-5" points="38 40 38 58 31 52.9 24 58 24 40"/>
        <g>
          <path id="_Path_11" data-name="&lt;Path&gt;" class="cls-5" d="M51.08,25.23h0a3.16,3.16,0,0,0,0-4.46h0a14.5,14.5,0,0,1-4.25-10.25v-.19a3.16,3.16,0,0,0-3.16-3.16h-.05A14.5,14.5,0,0,1,33.37,2.92h0a3.16,3.16,0,0,0-4.46,0h0A14.5,14.5,0,0,1,18.65,7.17h-.33a3.16,3.16,0,0,0-3.16,3.16v.19a14.5,14.5,0,0,1-4.25,10.25h0a3.16,3.16,0,0,0,0,4.46h0a14.5,14.5,0,0,1,4.25,10.25v.19a3.16,3.16,0,0,0,3.16,3.16h.33A14.5,14.5,0,0,1,28.9,43.08h0a3.16,3.16,0,0,0,4.46,0h0a14.5,14.5,0,0,1,10.25-4.25h.05a3.16,3.16,0,0,0,3.16-3.16v-.19A14.5,14.5,0,0,1,51.08,25.23Z"/>
          <circle id="_Path_12" data-name="&lt;Path&gt;" class="cls-5" cx="31" cy="23" r="12"/>
        </g>
      </g>
      <g>
        <polyline id="_Path_13" data-name="&lt;Path&gt;" class="cls-6" points="38 40 38 58 31 52.9 24 58 24 40"/>
        <g>
          <path id="_Path_14" data-name="&lt;Path&gt;" class="cls-7" d="M51.08,25.23h0a3.16,3.16,0,0,0,0-4.46h0a14.5,14.5,0,0,1-4.25-10.25v-.19a3.16,3.16,0,0,0-3.16-3.16h-.05A14.5,14.5,0,0,1,33.37,2.92h0a3.16,3.16,0,0,0-4.46,0h0A14.5,14.5,0,0,1,18.65,7.17h-.33a3.16,3.16,0,0,0-3.16,3.16v.19a14.5,14.5,0,0,1-4.25,10.25h0a3.16,3.16,0,0,0,0,4.46h0a14.5,14.5,0,0,1,4.25,10.25v.19a3.16,3.16,0,0,0,3.16,3.16h.33A14.5,14.5,0,0,1,28.9,43.08h0a3.16,3.16,0,0,0,4.46,0h0a14.5,14.5,0,0,1,10.25-4.25h.05a3.16,3.16,0,0,0,3.16-3.16v-.19A14.5,14.5,0,0,1,51.08,25.23Z"/>
          <circle id="_Path_15" data-name="&lt;Path&gt;" class="cls-7" cx="31" cy="23" r="12"/>
        </g>
      </g>
      <g>
        <polyline id="_Path_16" data-name="&lt;Path&gt;" class="cls-8" points="38 40 38 58 31 52.9 24 58 24 40"/>
        <g>
          <path id="_Path_17" data-name="&lt;Path&gt;" class="cls-8" d="M51.08,25.23h0a3.16,3.16,0,0,0,0-4.46h0a14.5,14.5,0,0,1-4.25-10.25v-.19a3.16,3.16,0,0,0-3.16-3.16h-.05A14.5,14.5,0,0,1,33.37,2.92h0a3.16,3.16,0,0,0-4.46,0h0A14.5,14.5,0,0,1,18.65,7.17h-.33a3.16,3.16,0,0,0-3.16,3.16v.19a14.5,14.5,0,0,1-4.25,10.25h0a3.16,3.16,0,0,0,0,4.46h0a14.5,14.5,0,0,1,4.25,10.25v.19a3.16,3.16,0,0,0,3.16,3.16h.33A14.5,14.5,0,0,1,28.9,43.08h0a3.16,3.16,0,0,0,4.46,0h0a14.5,14.5,0,0,1,10.25-4.25h.05a3.16,3.16,0,0,0,3.16-3.16v-.19A14.5,14.5,0,0,1,51.08,25.23Z"/>
          <circle id="_Path_18" data-name="&lt;Path&gt;" class="cls-8" cx="31" cy="23" r="12"/>
        </g>
      </g>
    </g>
  </g>
</svg>
