<svg xmlns="http://www.w3.org/2000/svg" viewBox="0 0 64 64">
  <defs>
    <style>
      .cls-1, .cls-3, .cls-4 {
        fill: #fff;
      }

      .cls-2 {
        fill: #00edff;
      }

      .cls-3, .cls-4, .cls-5 {
        stroke: #000;
        stroke-width: 4px;
      }

      .cls-3 {
        stroke-miterlimit: 10;
      }

      .cls-4, .cls-5 {
        stroke-linejoin: round;
      }

      .cls-5 {
        fill: none;
      }
    </style>
  </defs>
  <title>CDH_icon_link</title>
  <g id="Layer_2" data-name="Layer 2">
    <polygon class="cls-1" points="52 3 22 3 22 7 7 7 7 17 7 41 7 51 51 51 51 37 55 37 55 5.92 52 3"/>
    <path class="cls-2" d="M59.43,9H44.57c-.63,0-1.2,5.38-1.45,6a1.56,1.56,0,0,0,.34,1.71L58.33,31.54A1.57,1.57,0,0,0,61,30.43V10.57A1.57,1.57,0,0,0,59.43,9Z"/>
    <rect class="cls-2" x="9" y="43" width="52" height="18"/>
    <polyline class="cls-3" points="53 37 53 53 5 53 5 5 22 5"/>
    <polygon class="cls-4" points="53 24 34 5 53 5 53 24"/>
    <line class="cls-5" x1="44" y1="14" x2="29" y2="29"/>
  </g>
</svg>
