<svg id="Layer_1" data-name="Layer 1" xmlns="http://www.w3.org/2000/svg" viewBox="0 0 64 64">
  <defs>
    <style>
      .cls-1 {
        fill: #00edff;
      }

      .cls-2, .cls-4 {
        fill: none;
        stroke-linejoin: round;
        stroke-width: 4px;
      }

      .cls-2 {
        stroke: #00edff;
      }

      .cls-3 {
        fill: #fff;
      }

      .cls-4 {
        stroke: #000;
      }
    </style>
  </defs>
  <title>CDH_icon_convo</title>
  <g id="_Group_" data-name="&lt;Group&gt;">
    <g>
      <path class="cls-1" d="M61,32.17C61,45,50.21,55.33,36.9,55.33a24.76,24.76,0,0,1-11.53-2.82C23.63,51.61,11,59,11,59s6.37-13.06,5.17-15A22.39,22.39,0,0,1,12.8,32.17C12.8,19.37,23.59,9,36.9,9S61,19.37,61,32.17Z"/>
      <path class="cls-2" d="M61,32.17C61,45,50.21,55.33,36.9,55.33a24.76,24.76,0,0,1-11.53-2.82C23.63,51.61,11,59,11,59s6.37-13.06,5.17-15A22.39,22.39,0,0,1,12.8,32.17C12.8,19.37,23.59,9,36.9,9S61,19.37,61,32.17Z"/>
    </g>
    <g>
      <path class="cls-3" d="M55,26.17C55,39,44.21,49.33,30.9,49.33a24.76,24.76,0,0,1-11.53-2.82C17.63,45.61,5,53,5,53s6.37-13.06,5.17-15A22.39,22.39,0,0,1,6.8,26.17C6.8,13.37,17.59,3,30.9,3S55,13.37,55,26.17Z"/>
      <path class="cls-4" d="M55,26.17C55,39,44.21,49.33,30.9,49.33a24.76,24.76,0,0,1-11.53-2.82C17.63,45.61,5,53,5,53s6.37-13.06,5.17-15A22.39,22.39,0,0,1,6.8,26.17C6.8,13.37,17.59,3,30.9,3S55,13.37,55,26.17Z"/>
    </g>
  </g>
  <circle id="_Path_" data-name="&lt;Path&gt;" cx="19" cy="26" r="3"/>
  <circle id="_Path_2" data-name="&lt;Path&gt;" cx="31" cy="26" r="3"/>
  <circle id="_Path_3" data-name="&lt;Path&gt;" cx="42" cy="26" r="3"/>
</svg>
