<svg id="Layer_1" data-name="Layer 1" xmlns="http://www.w3.org/2000/svg" viewBox="0 0 64 64">
  <defs>
    <style>
      .cls-1 {
        fill: #00edff;
      }

      .cls-2, .cls-4, .cls-5, .cls-6 {
        fill: none;
        stroke-width: 4px;
      }

      .cls-2 {
        stroke: #00edff;
      }

      .cls-2, .cls-4 {
        stroke-miterlimit: 10;
      }

      .cls-3 {
        fill: #fff;
      }

      .cls-4, .cls-5, .cls-6 {
        stroke: #000;
      }

      .cls-5 {
        stroke-linecap: round;
      }

      .cls-5, .cls-6 {
        stroke-linejoin: round;
      }
    </style>
  </defs>
  <title>CDH_icon_grant</title>
  <g id="_Group_" data-name="&lt;Group&gt;">
    <g>
      <path class="cls-1" d="M60.81,37.87h0a4.06,4.06,0,0,0,0-5.74h0a18.64,18.64,0,0,1-5.46-13.18v-.24a4.06,4.06,0,0,0-4.06-4.06h-.07A18.64,18.64,0,0,1,38,9.19h0a4.06,4.06,0,0,0-5.74,0h0a18.64,18.64,0,0,1-13.18,5.46h-.42a4.06,4.06,0,0,0-4.06,4.06v.24A18.64,18.64,0,0,1,9.19,32.13h0a4.06,4.06,0,0,0,0,5.74h0a18.64,18.64,0,0,1,5.46,13.18v.24a4.06,4.06,0,0,0,4.06,4.06h.42a18.64,18.64,0,0,1,13.18,5.46h0a4.06,4.06,0,0,0,5.74,0h0a18.64,18.64,0,0,1,13.18-5.46h.07a4.06,4.06,0,0,0,4.06-4.06v-.24A18.64,18.64,0,0,1,60.81,37.87Z"/>
      <path class="cls-2" d="M60.81,37.87h0a4.06,4.06,0,0,0,0-5.74h0a18.64,18.64,0,0,1-5.46-13.18v-.24a4.06,4.06,0,0,0-4.06-4.06h-.07A18.64,18.64,0,0,1,38,9.19h0a4.06,4.06,0,0,0-5.74,0h0a18.64,18.64,0,0,1-13.18,5.46h-.42a4.06,4.06,0,0,0-4.06,4.06v.24A18.64,18.64,0,0,1,9.19,32.13h0a4.06,4.06,0,0,0,0,5.74h0a18.64,18.64,0,0,1,5.46,13.18v.24a4.06,4.06,0,0,0,4.06,4.06h.42a18.64,18.64,0,0,1,13.18,5.46h0a4.06,4.06,0,0,0,5.74,0h0a18.64,18.64,0,0,1,13.18-5.46h.07a4.06,4.06,0,0,0,4.06-4.06v-.24A18.64,18.64,0,0,1,60.81,37.87Z"/>
    </g>
    <g>
      <path class="cls-3" d="M54.81,31.87h0a4.06,4.06,0,0,0,0-5.74h0a18.64,18.64,0,0,1-5.46-13.18v-.24a4.06,4.06,0,0,0-4.06-4.06h-.07A18.64,18.64,0,0,1,32,3.19h0a4.06,4.06,0,0,0-5.74,0h0A18.64,18.64,0,0,1,13.12,8.65h-.42a4.06,4.06,0,0,0-4.06,4.06v.24A18.64,18.64,0,0,1,3.19,26.13h0a4.06,4.06,0,0,0,0,5.74h0A18.64,18.64,0,0,1,8.65,45.05v.24a4.06,4.06,0,0,0,4.06,4.06h.42a18.64,18.64,0,0,1,13.18,5.46h0a4.06,4.06,0,0,0,5.74,0h0a18.64,18.64,0,0,1,13.18-5.46h.07a4.06,4.06,0,0,0,4.06-4.06v-.24A18.64,18.64,0,0,1,54.81,31.87Z"/>
      <path class="cls-4" d="M54.81,31.87h0a4.06,4.06,0,0,0,0-5.74h0a18.64,18.64,0,0,1-5.46-13.18v-.24a4.06,4.06,0,0,0-4.06-4.06h-.07A18.64,18.64,0,0,1,32,3.19h0a4.06,4.06,0,0,0-5.74,0h0A18.64,18.64,0,0,1,13.12,8.65h-.42a4.06,4.06,0,0,0-4.06,4.06v.24A18.64,18.64,0,0,1,3.19,26.13h0a4.06,4.06,0,0,0,0,5.74h0A18.64,18.64,0,0,1,8.65,45.05v.24a4.06,4.06,0,0,0,4.06,4.06h.42a18.64,18.64,0,0,1,13.18,5.46h0a4.06,4.06,0,0,0,5.74,0h0a18.64,18.64,0,0,1,13.18-5.46h.07a4.06,4.06,0,0,0,4.06-4.06v-.24A18.64,18.64,0,0,1,54.81,31.87Z"/>
    </g>
  </g>
  <g id="_Group_2" data-name="&lt;Group&gt;">
    <path id="_Path_" data-name="&lt;Path&gt;" class="cls-5" d="M23.17,35a6.28,6.28,0,0,0,5.59,3.3A6.08,6.08,0,0,0,35,32.35c0-3.27-5.21-4.27-6.24-4.64S23,26.32,23,23.06s2.56-5.32,6-5.32a5.91,5.91,0,0,1,5.63,3.9"/>
    <line id="_Path_2" data-name="&lt;Path&gt;" class="cls-6" x1="29" y1="17.68" x2="29" y2="13"/>
    <line id="_Path_3" data-name="&lt;Path&gt;" class="cls-6" x1="29" y1="43" x2="29" y2="38.32"/>
  </g>
</svg>
