<svg id="Layer_1" data-name="Layer 1" xmlns="http://www.w3.org/2000/svg" viewBox="0 0 216 14.544"><title>PUsig1-bw-bs</title><path d="M113.672,2.476a.42.42,0,0,0-.039-.183h-.3c-.658,0-1.078.025-2.263.025-.408,0-1.013-.025-1.158-.025h-.342c-.04.025-.054.17-.054.223a.343.343,0,0,0,.067.224,5.535,5.535,0,0,1,1.355.381,2.574,2.574,0,0,1,.382,1.342c.013.2.027.394.027.935v2.75a4.819,4.819,0,0,1-.027.567c-.223-.25-.539-.725-1.065-1.317l-4.4-4.869a.916.916,0,0,0-.2-.172c-.106,0-.29-.011-.4-.011-.841,0-2.368-.041-2.591-.041a.48.48,0,0,0-.053.185,1.814,1.814,0,0,0,.04.25,1.8,1.8,0,0,1,.986.5,4.46,4.46,0,0,1,.7.83,1.176,1.176,0,0,1,.051.42c0,.684-.039,1.645-.039,2.567V9.726a5.778,5.778,0,0,1-.079,1,2.74,2.74,0,0,1-1.382.672.788.788,0,0,0-.051.237c0,.039.012.172.039.185h.25c.262,0,.869-.039,1.262-.039.579,0,.974.039,1.514.039h.789c.054-.013.065-.172.065-.224a.578.578,0,0,0-.038-.211,2.524,2.524,0,0,1-1.579-.815,7.4,7.4,0,0,1-.172-1.633c0-.421-.013-1-.013-1.775,0-1.041.013-1.949.027-2.408.079.092.171.209.236.289l6.08,6.83a.769.769,0,0,0,.368.078.3.3,0,0,0,.158-.027,1.474,1.474,0,0,0,.119-.592c0-.381-.013-.775-.013-.973V4.871c0-1.645.777-2.105,1.685-2.145a.581.581,0,0,0,.051-.25M98.592,6.662c0,1.986-.551,3.736-1.3,4.355a2.143,2.143,0,0,1-1.4.473,1.971,1.971,0,0,1-1.75-.881,7,7,0,0,1-.777-3.421c0-1.831.474-3.264,1.316-3.962a2.1,2.1,0,0,1,1.369-.513,2.193,2.193,0,0,1,1.789.908,5.075,5.075,0,0,1,.75,3.041m2.382.25A4.41,4.41,0,0,0,98.633,2.82a5.086,5.086,0,0,0-2.5-.674A5.357,5.357,0,0,0,91.7,4.6a5.03,5.03,0,0,0-.763,2.658,4.906,4.906,0,0,0,1.882,3.855,4.945,4.945,0,0,0,3,.948,5.458,5.458,0,0,0,2-.383,4.7,4.7,0,0,0,1.829-1.25,5.084,5.084,0,0,0,1.329-3.512M89.408,5.254V2.568c0-.2-.078-.25-.277-.25-.395,0-2.474.053-4.578.053-1.633,0-2.988-.025-3.725-.025h-.974c-.171,0-.223.039-.223.222V5.082a.388.388,0,0,0,.211.053,1.017,1.017,0,0,0,.289-.028,4.423,4.423,0,0,1,1.842-2.2c.394-.041,1.171-.055,1.381-.055.014.147.027.606.04,1.159.013.947.013,1.355.013,3.591,0,1.936-.013,2.805-.039,3.016-.053.367.013.644-1.565.709a.746.746,0,0,0-.041.3,1.156,1.156,0,0,0,.013.211h.514c.486,0,1.631-.053,2.105-.053.382,0,1.606.039,2.409.039h.369a.671.671,0,0,0,.039-.275.471.471,0,0,0-.054-.237,2.723,2.723,0,0,1-1.354-.25,4.052,4.052,0,0,1-.119-.988c-.014-1.42-.027-1.959-.027-2.908,0-1.223.013-2.053.013-4.328.185,0,.606-.014,1,0a2.565,2.565,0,0,1,1.566,1,6.563,6.563,0,0,1,.7,1.433.619.619,0,0,0,.224.028.732.732,0,0,0,.25-.053M78.065,9.531a2.931,2.931,0,0,0-.014-.383.285.285,0,0,0-.2-.041,1.024,1.024,0,0,0-.29.028,5.051,5.051,0,0,1-1.447,2.013,2.02,2.02,0,0,1-.986.145h-1.08a4.622,4.622,0,0,1-.868-.067c-.2-.039-.408-.353-.5-.564a1.4,1.4,0,0,1-.143-.83V6.951h.486a2.066,2.066,0,0,1,.8.184,1.213,1.213,0,0,1,.592.553,4.568,4.568,0,0,1,.223,1.093.906.906,0,0,0,.342.051.458.458,0,0,0,.265-.066c0-.354-.08-1.315-.08-1.842,0-.658.092-1.567.131-2.039a.536.536,0,0,0-.262-.053.992.992,0,0,0-.343.039c-.04.186-.184.736-.211.777a1.6,1.6,0,0,1-.895.684,3.389,3.389,0,0,1-.762.106h-.277V5.213c0-1.262.027-1.67.039-1.908.014-.159.041-.329.053-.448a6.23,6.23,0,0,1,.79-.025c.763,0,1.118.014,1.237.014a1.491,1.491,0,0,1,.842.261A5.649,5.649,0,0,1,76.775,4.74a1.041,1.041,0,0,0,.276.026c.08,0,.092-.026.2-.078,0-.8-.054-1.842-.08-2.172-.013-.131-.039-.17-.3-.17-.105,0-.605-.028-1.132-.028-.75,0-1.052.014-2.2.014-.619,0-1.9.014-2.436.014-.789,0-1.46-.028-1.8-.028h-.448a.444.444,0,0,0-.066.211.606.606,0,0,0,.066.264,6.454,6.454,0,0,1,.961.145,1.081,1.081,0,0,1,.475.855c.025.277.039,1.039.039,1.645v2.71c0,.553-.014,1.356-.027,1.684a3.783,3.783,0,0,1-.289,1.25,3.468,3.468,0,0,1-1.184.2.732.732,0,0,0-.066.289.483.483,0,0,0,.066.237h.434c.42,0,1.973-.04,2.328-.04.33,0,.961.026,1.724.026.421,0,1.658.08,4.317.08a1.149,1.149,0,0,0,.355-.027.418.418,0,0,0,.053-.211c.026-.262.026-1.039.026-2.1M66.932,9.99a.437.437,0,0,0-.447-.316c-.026,0-.065.013-.092.013a3.1,3.1,0,0,1-2.645,1.539A2.878,2.878,0,0,1,61.09,9.49,7.272,7.272,0,0,1,60.682,7.1a5.794,5.794,0,0,1,.394-2.3c.58-1.527,1.422-2,2.448-2a2.691,2.691,0,0,1,2.105,1.183A5.9,5.9,0,0,1,66.3,5.57a1.361,1.361,0,0,0,.289.037.652.652,0,0,0,.316-.117c-.013-.144-.144-1.158-.144-1.474,0-.395.1-1.04.1-1.29a1.077,1.077,0,0,0-.513-.144,2.651,2.651,0,0,0-.447.539,4.338,4.338,0,0,0-2.921-.933,4.494,4.494,0,0,0-3.3,1.3A5,5,0,0,0,58.274,7.2a4.811,4.811,0,0,0,1.855,3.934,5.234,5.234,0,0,0,3.066.882,4.08,4.08,0,0,0,3.369-1.408,2.5,2.5,0,0,0,.368-.619M56.7,2.476a.42.42,0,0,0-.04-.183h-.3c-.658,0-1.079.025-2.262.025-.409,0-1.014-.025-1.159-.025H52.59c-.039.025-.053.17-.053.223a.353.353,0,0,0,.065.224,5.547,5.547,0,0,1,1.355.381,2.574,2.574,0,0,1,.383,1.342c.012.2.025.394.025.935v2.75a5.211,5.211,0,0,1-.025.567c-.225-.25-.539-.725-1.067-1.317L48.879,2.529a.925.925,0,0,0-.2-.172c-.1,0-.29-.011-.394-.011-.843,0-2.369-.041-2.593-.041a.5.5,0,0,0-.053.185,1.98,1.98,0,0,0,.04.25,1.8,1.8,0,0,1,.987.5,4.408,4.408,0,0,1,.7.83,1.168,1.168,0,0,1,.053.42c0,.684-.039,1.645-.039,2.567V9.726a5.659,5.659,0,0,1-.08,1,2.745,2.745,0,0,1-1.381.672.763.763,0,0,0-.053.237c0,.039.014.172.039.185h.25c.264,0,.869-.039,1.264-.039.58,0,.973.039,1.513.039h.789c.053-.013.067-.172.067-.224a.624.624,0,0,0-.039-.211,2.526,2.526,0,0,1-1.58-.815A7.421,7.421,0,0,1,48,8.937c0-.421-.015-1-.015-1.775,0-1.041.015-1.949.027-2.408.08.092.171.209.238.289l6.078,6.83a.767.767,0,0,0,.368.078.3.3,0,0,0,.158-.027,1.481,1.481,0,0,0,.118-.592c0-.381-.011-.775-.011-.973V4.871c0-1.645.775-2.105,1.683-2.145a.569.569,0,0,0,.053-.25M43.679,11.6a.839.839,0,0,0-.038-.264,9.128,9.128,0,0,1-.973-.117A2.074,2.074,0,0,1,42.22,10.2c-.013-.631-.027-1.935-.027-3.158V3.805a1.05,1.05,0,0,1,.236-.709A2.206,2.206,0,0,1,43.6,2.754a.787.787,0,0,0,.04-.25.394.394,0,0,0-.066-.211h-.381c-.553,0-1.843.064-2.29.064-.275,0-1.566-.039-2.144-.052h-.291a.323.323,0,0,0-.065.224,2.178,2.178,0,0,0,.025.25,2.8,2.8,0,0,1,1.028.184,1.455,1.455,0,0,1,.434,1.119c.013.25.027.789.038,2,.014.658.028,1.58.028,2.342,0,.383-.028,1.238-.039,1.7a2.276,2.276,0,0,1-.185.789c-.158.131-.315.369-1.276.434a.941.941,0,0,0-.039.277c0,.1.025.158.025.223h.225c.525,0,1.842-.065,2.525-.065.2,0,1.567.039,2,.039h.435a.505.505,0,0,0,.05-.224M33.127,4.726a2.049,2.049,0,0,1-1.2,1.909,4.394,4.394,0,0,1-1.079.105,3.339,3.339,0,0,1-.486-.025L30.35,5.6V3.174a.419.419,0,0,1,.079-.289,1.323,1.323,0,0,1,.553-.08c1.026,0,1.475.091,1.842.711a2.326,2.326,0,0,1,.3,1.21m3.816,6.883a.638.638,0,0,0-.066-.277,2.02,2.02,0,0,1-.867-.17,2.9,2.9,0,0,1-.225-.33,13.7,13.7,0,0,0-.566-1.512,4.946,4.946,0,0,0-.973-1.566,4.035,4.035,0,0,0-.986-.434c-.211-.08-.383-.146-.541-.213.2-.037.291-.05.541-.078a2.345,2.345,0,0,0,1.447-.486,2.077,2.077,0,0,0,.815-1.711,2.525,2.525,0,0,0-1.645-2.394A6.439,6.439,0,0,0,32.3,2.293c-.988,0-2.37.092-3.028.092-.2,0-1.342-.028-1.8-.028-.2,0-.7-.025-.777-.025a.787.787,0,0,0-.065.25,1.493,1.493,0,0,0,.026.238c.224.026.631.076.843.118a1.55,1.55,0,0,1,.553.71c.064.422.078,1.5.078,3.356,0,1.342.013,2.894-.053,3.394a1.009,1.009,0,0,1-.54.883c-.171.026-.485.078-.75.092a.661.661,0,0,0-.065.262.865.865,0,0,0,.052.211c.184,0,2.2-.039,2.619-.039.842,0,1.553.039,2.3.039a.562.562,0,0,0,.053-.2.789.789,0,0,0-.053-.275c-.264-.027-.593-.106-.736-.133a.985.985,0,0,1-.567-.933l-.013-3.041a3.257,3.257,0,0,1,.342-.012,1.3,1.3,0,0,1,.7.211,2.52,2.52,0,0,1,1.041.959,8.062,8.062,0,0,1,.828,2.83c.039.277.144.513.394.539.106.014.8.039,1.3.039h1.882a.346.346,0,0,0,.079-.223M22.653,4.793a2.148,2.148,0,0,1-.672,1.645,2.132,2.132,0,0,1-1.368.355,4.492,4.492,0,0,1-.566-.027c-.105-.012-.17-.026-.17-.092l.011-3.854a5.5,5.5,0,0,1,.764-.066c.895,0,1.448.222,1.711.775a2.8,2.8,0,0,1,.29,1.264m2.355.053A2.523,2.523,0,0,0,23.6,2.555a6.574,6.574,0,0,0-2.354-.3c-1.015,0-2.594.078-3.291.078-.486,0-1.224-.053-1.632-.053a.5.5,0,0,0-.065.211.652.652,0,0,0,.039.264c.25.078.658.142.922.209a1.133,1.133,0,0,1,.354.75c.04.461.065,1.041.065,2.041,0,2.775-.011,4.236-.052,4.553a1.117,1.117,0,0,1-.75.933,7.322,7.322,0,0,1-.763.133,1.394,1.394,0,0,0-.026.275.347.347,0,0,0,.039.184c.422,0,1.658-.051,2.133-.051,1.169,0,2.369.051,2.854.051H21.4a.369.369,0,0,0,.04-.209.663.663,0,0,0-.026-.238,2.154,2.154,0,0,1-1.237-.42,1.128,1.128,0,0,1-.263-.778l-.039-2.894c.789.053,1.631.08,2.092.08A4.977,4.977,0,0,0,23.5,7.135a2.415,2.415,0,0,0,1.512-2.289" fill="#231f20"/><path d="M216,2.371c0-.078-.053-.1-.079-.158-.54,0-1.25.041-1.527.041-.671,0-1.487-.053-1.842-.053a.28.28,0,0,0-.052.158.5.5,0,0,0,.026.157c.381.08.934.172,1.039.355a.952.952,0,0,1,.119.514,1.289,1.289,0,0,1-.079.486c-.118.33-.369.842-.724,1.567-.6,1.224-.987,1.986-1.2,2.288-.342-.578-1.106-2.1-1.29-2.5l-.737-1.6a1.192,1.192,0,0,1-.052-.355.873.873,0,0,1,.052-.342c.119-.236.527-.262,1.079-.328a.577.577,0,0,0,.04-.2c0-.091-.04-.064-.079-.13h-.237c-.882,0-.619.039-2.132.039-.645,0-1.421-.039-1.526-.039-.053.093-.079.1-.079.2a.283.283,0,0,0,.052.158c.882.211,1.145.369,1.237.541l2.3,4.512a5.128,5.128,0,0,1,.421.988,7.313,7.313,0,0,1,.106,1.578,1.118,1.118,0,0,1-.422,1.014,6.176,6.176,0,0,1-1.052.17.312.312,0,0,0-.066.185.563.563,0,0,0,.039.158c.672,0,1.369-.013,1.764-.013.276,0,.7.013,1.474.027.447.012.789.026,1.026.026a.4.4,0,0,0,.066-.172.285.285,0,0,0-.053-.17,3.2,3.2,0,0,1-1.145-.264,1.015,1.015,0,0,1-.342-.842l-.1-1.974a.757.757,0,0,1,.052-.315,2.028,2.028,0,0,1,.145-.369l2.027-4.013a2.723,2.723,0,0,1,.842-.883,3.711,3.711,0,0,1,.855-.262A.5.5,0,0,0,216,2.371M205.368,5.082V2.529c0-.2-.079-.25-.277-.25-.4,0-2.21.053-4.316.053-1.632,0-2.724-.027-3.461-.027h-.973c-.172,0-.224.041-.224.224V4.912a.23.23,0,0,0,.158.051.352.352,0,0,0,.158-.025c.513-1.145.776-1.75,1.658-2.2.394-.039,1.776-.052,1.987-.052.013.144.026.605.039,1.158.013.947.013,1.459.013,3.7,0,1.933-.013,2.933-.039,3.144-.053.37.013.645-1.566.711a.422.422,0,0,0-.04.225.619.619,0,0,0,.014.158h.513c.487,0,1.131-.055,1.6-.055.382,0,1.106.041,1.908.041h.369a.36.36,0,0,0,.039-.2.306.306,0,0,0-.052-.185,2.72,2.72,0,0,1-1.356-.25,4.1,4.1,0,0,1-.118-.987c-.013-1.422-.027-2.091-.027-3.039,0-1.224.014-2.158.014-4.435.184,0,1.158-.012,1.552,0a2.365,2.365,0,0,1,1.487,1,4.231,4.231,0,0,1,.592,1.435.52.52,0,0,0,.2.026.239.239,0,0,0,.145-.053m-10.935,6.5a.425.425,0,0,0-.04-.184,9.728,9.728,0,0,1-.974-.117,2.082,2.082,0,0,1-.447-1.015c-.013-.631-.026-2.065-.026-3.29V3.635a1.046,1.046,0,0,1,.237-.711,2.25,2.25,0,0,1,1.171-.342.412.412,0,0,0,.039-.17.215.215,0,0,0-.066-.158h-.381c-.553,0-1.342.064-1.79.064-.276,0-1.066-.039-1.645-.052h-.289a.188.188,0,0,0-.066.172.926.926,0,0,0,.026.171,2.794,2.794,0,0,1,1.027.184,1.452,1.452,0,0,1,.434,1.119c.013.25.026.92.039,2.131.014.658.027,1.553.027,2.316,0,.381-.027,1.367-.04,1.828a2.222,2.222,0,0,1-.184.789c-.158.133-.316.37-1.276.436a.518.518,0,0,0-.04.2c0,.106.026.106.026.172h.224c.526,0,1.342-.066,2.027-.066.2,0,1.066.039,1.5.039h.434a.329.329,0,0,0,.053-.172m-6.5-2.42a2.443,2.443,0,0,0-1.487-2.316,7.235,7.235,0,0,0-1.46-.526,9.642,9.642,0,0,1-1.908-.724,1.576,1.576,0,0,1-.777-1.434,1.742,1.742,0,0,1,1.856-1.541,2.2,2.2,0,0,1,1.8.922,6.714,6.714,0,0,1,.816,1.5.517.517,0,0,0,.132.027.425.425,0,0,0,.289-.132,10.555,10.555,0,0,1-.1-1.184,7.01,7.01,0,0,1,.118-1.028.4.4,0,0,0-.394-.183,2.918,2.918,0,0,0-.513.473,3.293,3.293,0,0,0-2.237-.815,2.574,2.574,0,0,0-2.777,2.512,2.651,2.651,0,0,0,.487,1.449,2.843,2.843,0,0,0,1.276.959c.382.158,2.093.672,2.329.764,1.053.408,1.448.763,1.448,1.7a2.057,2.057,0,0,1-.579,1.33,1.84,1.84,0,0,1-1.461.619,2.953,2.953,0,0,1-2.21-.974,6.256,6.256,0,0,1-.9-1.778.469.469,0,0,0-.184-.025.464.464,0,0,0-.251.078c0,.172.053,1.041.053,1.3a5.384,5.384,0,0,1-.145,1.172.508.508,0,0,0,.421.263,1.9,1.9,0,0,1,.658-.422.627.627,0,0,1,.316.118,3.8,3.8,0,0,0,2.2.658c1.855,0,3.184-.934,3.184-2.762M176.287,4.621a2.125,2.125,0,0,1-1.448,1.961,7.067,7.067,0,0,1-1.369.106c-.157,0-.6,0-.8-.026L172.655,5.5V3.016c0-.17.039-.262.092-.3a4.372,4.372,0,0,1,.921-.078c1.237,0,1.8.119,2.25.761a2.082,2.082,0,0,1,.369,1.225M179.05,11.6a.356.356,0,0,0-.066-.2,2,2,0,0,1-.868-.172,2.826,2.826,0,0,1-.224-.328,17.239,17.239,0,0,0-.553-1.644,4.934,4.934,0,0,0-.973-1.566,3.613,3.613,0,0,0-.948-.434c-.21-.08-.381-.145-.539-.211a4.592,4.592,0,0,1,.539-.078,2.41,2.41,0,0,0,1.395-.489,2.091,2.091,0,0,0,.868-1.7A2.514,2.514,0,0,0,176.037,2.4a6.539,6.539,0,0,0-1.579-.142c-.988,0-1.724.092-2.382.092-.2,0-.842-.028-1.3-.028-.2,0-.7-.025-.776-.025-.04.092-.066.119-.066.17a.859.859,0,0,0,.026.183c.224.028.632.08.842.12a1.562,1.562,0,0,1,.553.71c.066.42.079,1.606.079,3.462,0,1.341.013,3.027-.053,3.527a1.007,1.007,0,0,1-.539.881c-.171.027-.487.078-.75.091a.354.354,0,0,0-.066.186.535.535,0,0,0,.053.158c.184,0,1.7-.041,2.118-.041.842,0,1.053.041,1.8.041a.347.347,0,0,0,.053-.146.4.4,0,0,0-.053-.2c-.263-.025-.592-.1-.737-.13a.989.989,0,0,1-.566-.934l-.013-3.291c.1-.012.487-.012.592-.012a2.439,2.439,0,0,1,1.053.184,2.957,2.957,0,0,1,1.29,1.066,8.239,8.239,0,0,1,.829,2.867c.039.278.144.514.394.539a4.734,4.734,0,0,0,.764.041h1.367a.227.227,0,0,0,.08-.171m-11.04-2A3.12,3.12,0,0,0,168,9.215a.289.289,0,0,0-.2-.041.379.379,0,0,0-.171.027,3.482,3.482,0,0,1-1.355,2.014,2.5,2.5,0,0,1-1.119.144H163.68a5.8,5.8,0,0,1-.868-.066c-.2-.039-.408-.356-.5-.567a1.726,1.726,0,0,1-.145-.906v-3h.421A2.6,2.6,0,0,1,163.707,7a1.583,1.583,0,0,1,.71.566,4.508,4.508,0,0,1,.185,1.092.334.334,0,0,0,.21.053.31.31,0,0,0,.211-.067c0-.355-.079-1.316-.079-1.841,0-.659.092-1.461.131-1.936a.35.35,0,0,0-.21-.051.384.384,0,0,0-.211.039c-.039.184-.145.737-.171.776a1.9,1.9,0,0,1-1.013.7,4.172,4.172,0,0,1-1.079.106h-.211V5.148c0-1.263.027-1.777.04-2.013.013-.159.039-.33.052-.447.119-.014.5-.026,1.106-.026.763,0,1.329.012,1.447.012a1.481,1.481,0,0,1,.842.264,3.34,3.34,0,0,1,1.172,1.632A.363.363,0,0,0,167,4.6c.079,0,.093-.026.2-.08,0-.8-.053-1.711-.079-2.04-.013-.13-.04-.171-.3-.171-.105,0-.605-.026-1.131-.026-.75,0-1.053.014-2.2.014-.618,0-1.711.012-2.25.012-.79,0-.961-.026-1.3-.026h-.447a.273.273,0,0,0-.066.159.308.308,0,0,0,.066.183,6.755,6.755,0,0,1,.96.145c.185.158.356.2.474.83.026.275.04,1.17.04,1.775V8.082c0,.553-.014,1.461-.027,1.791a3.939,3.939,0,0,1-.289,1.275,3.446,3.446,0,0,1-1.185.2.433.433,0,0,0-.065.211.316.316,0,0,0,.065.183h.435c.421,0,1.474-.039,1.829-.039.329,0,.776.025,1.539.025.421,0,1.658.081,4.317.081a1.146,1.146,0,0,0,.355-.026.418.418,0,0,0,.052-.211c.027-.263.027-.908.027-1.974m-9.738-7.184c0-.053-.013-.133-.066-.146h-.447c-.316,0-.816.027-1.04.027-1.065,0-1.447-.067-1.6-.067h-.237c-.026.067-.066.106-.066.17s.027.094.027.147a4.649,4.649,0,0,1,.908.2,1.231,1.231,0,0,1,.329.83,5.018,5.018,0,0,1-.316,1.2l-2.119,5.21-2.6-6.591a.989.989,0,0,1,.434-.739,6.039,6.039,0,0,1,.855-.1.476.476,0,0,0,.053-.184c0-.054-.013-.133-.066-.146h-.329c-.408,0-1.026.053-1.724.053-.3,0-.894-.026-1.473-.026h-.514a.3.3,0,0,0-.013.315A4.482,4.482,0,0,1,149.364,3,23.015,23.015,0,0,1,150.443,5.4l1.092,2.631c.908,2.186,1.447,3.645,1.513,3.895.066.041,0,.08.118.08s.106-.028.132-.092l3.4-8.158a2.585,2.585,0,0,1,.474-.75,2.075,2.075,0,0,1,1.052-.422.638.638,0,0,0,.053-.17m-11.527,9.17a.424.424,0,0,0-.039-.184,9.694,9.694,0,0,1-.974-.117,2.074,2.074,0,0,1-.448-1.015c-.013-.631-.026-2.065-.026-3.29V3.635a1.051,1.051,0,0,1,.237-.711,2.25,2.25,0,0,1,1.171-.342.413.413,0,0,0,.04-.17.218.218,0,0,0-.066-.158h-.382c-.553,0-1.342.064-1.789.064-.277,0-1.066-.039-1.645-.052h-.29a.191.191,0,0,0-.066.172.935.935,0,0,0,.027.171,2.791,2.791,0,0,1,1.026.184,1.448,1.448,0,0,1,.434,1.119c.014.25.027.92.04,2.131.013.658.026,1.553.026,2.316,0,.381-.026,1.367-.039,1.828a2.22,2.22,0,0,1-.185.789c-.157.133-.315.37-1.276.436a.536.536,0,0,0-.039.2c0,.106.026.106.026.172h.224c.526,0,1.342-.066,2.026-.066.2,0,1.066.039,1.5.039h.434a.32.32,0,0,0,.053-.172m-5.948-9.2a.221.221,0,0,0-.039-.131h-.3c-.658,0-.947.025-2.132.025-.408,0-1.013-.025-1.158-.025h-.342c-.039.025-.052.117-.052.17a.166.166,0,0,0,.065.144,5.66,5.66,0,0,1,1.356.383,2.563,2.563,0,0,1,.381,1.342c.013.2.027.395.027.933V9.135a4.8,4.8,0,0,1-.027.566c-.223-.25-.605-.736-1.118-1.342L132.428,2.49a.89.89,0,0,0-.2-.172c-.106,0-.237-.013-.342-.013-.843,0-1.579-.039-1.8-.039a.258.258,0,0,0-.04.13.907.907,0,0,0,.027.172,2.283,2.283,0,0,1,1.013.37,3.927,3.927,0,0,1,.645.775,1.188,1.188,0,0,1,.052.422c0,.685-.039,1.935-.039,2.855v2.8a5.919,5.919,0,0,1-.079,1,2.765,2.765,0,0,1-1.382.672.378.378,0,0,0-.052.158c0,.039.013.117.039.131h.25c.263,0,.869-.039,1.263-.039.579,0,.842.039,1.382.039h.79c.052-.014.065-.119.065-.172a.26.26,0,0,0-.039-.131,2.536,2.536,0,0,1-1.579-.816,7.748,7.748,0,0,1-.171-1.659c0-.419-.013-1.105-.013-1.88,0-1.039.013-2.475.026-2.934.079.092.2.236.289.342l6.238,7.3c.065.066.092.078.158.078s.026,0,.079-.026a2.033,2.033,0,0,0,.065-.593c0-.381-.013-.776-.013-.973V4.7c0-1.646.777-2.1,1.685-2.146a.287.287,0,0,0,.052-.17m-12.185.066a.271.271,0,0,0-.066-.172h-.381c-.408,0-.961.026-1.435.026-.526,0-1.118-.026-1.5-.026h-.474a.326.326,0,0,0-.052.172.453.453,0,0,0,.039.17c.054,0,1.015.014,1.185.25a3.276,3.276,0,0,1,.513.975,8.543,8.543,0,0,1,.106,1.447c0,1.119,0,1.869-.014,2.264a7.071,7.071,0,0,1-.236,1.75,2.408,2.408,0,0,1-2.58,1.709,3.61,3.61,0,0,1-1.539-.329A2.221,2.221,0,0,1,120.9,9.029l-.066-3.947-.013-1.606c0-.3.382-.58.513-.736a6.226,6.226,0,0,1,1.012-.131.384.384,0,0,0,.067-.185.222.222,0,0,0-.092-.17l-.5.012c-.487.013-1.132.027-1.54.027-.631,0-1.118-.014-1.513-.014h-.552a.226.226,0,0,0-.066.184.211.211,0,0,0,.052.158c.421.053.7.092.882.133a1.11,1.11,0,0,1,.462.578c.011.172.038.592.038,1.422V7.912a7.99,7.99,0,0,0,.132,1.762,2.608,2.608,0,0,0,1.144,1.619,4.307,4.307,0,0,0,2.408.631,4.541,4.541,0,0,0,2.264-.539,2.7,2.7,0,0,0,1.3-1.75,6.019,6.019,0,0,0,.21-1.565V5.543c0-.473.026-1.067.026-1.3a2.655,2.655,0,0,1,.395-1.447,5.317,5.317,0,0,1,1.092-.184.324.324,0,0,0,.053-.158" fill="#231f20"/><path d="M4.412,3.21a.08.08,0,0,0-.072.047l-.153.34-.011,0s-.011,0-.015-.015-.022-.06-.062-.151l-.048-.111c-.018-.041-.033-.068-.037-.076A.077.077,0,0,0,3.95,3.21l0-.01,0-.01h.1l.094,0H4.16l0,.009,0,.011c-.018,0-.06,0-.06.027a.07.07,0,0,0,0,.023l.1.237.083-.2A.118.118,0,0,0,4.3,3.247c0-.022-.016-.031-.058-.037l0-.01,0-.011h.012c.018,0,.037,0,.079,0h.079l0,.009Z" fill="#231f20"/><path d="M4.835,3.59c-.121,0-.187,0-.2,0H4.574c-.017,0-.056,0-.1,0H4.451V3.566a.151.151,0,0,0,.062-.012.131.131,0,0,0,.012-.062V3.434c0-.032,0-.069,0-.114V3.258c0-.044-.021-.044-.067-.049l0-.011,0-.01h.153l.151,0h.042c.009,0,.013,0,.013.01l.006.09-.012,0H4.8a.2.2,0,0,0-.061-.069.069.069,0,0,0-.035-.01H4.654a.276.276,0,0,0-.045,0s0,0-.006.014,0,.028,0,.08v.053h.014a.189.189,0,0,0,.046,0A.071.071,0,0,0,4.7,3.328L4.711,3.3l.012,0,.011,0c0,.015,0,.047,0,.086,0,.018,0,.061,0,.079a.016.016,0,0,1-.012,0l-.01,0c0-.034-.009-.058-.038-.07a.117.117,0,0,0-.044-.008l-.028,0v.1a.125.125,0,0,0,.006.048c0,.007.012.021.024.022s.016,0,.037,0h.057a.166.166,0,0,0,.044-.005.233.233,0,0,0,.064-.086l.013,0,.011,0v.107C4.856,3.588,4.849,3.59,4.835,3.59Z" fill="#231f20"/><path d="M5.316,3.315l-.011,0a.239.239,0,0,0-.029-.058A.094.094,0,0,0,5.2,3.216H5.163v.176c0,.027,0,.06,0,.121s.021.047.069.052l0,.013,0,.009H5.216l-.1,0-.1,0a.015.015,0,0,1,0-.01l0-.012c.064,0,.07-.016.072-.037s0-.065,0-.119V3.264a.215.215,0,0,0,0-.048.422.422,0,0,0-.062,0,.167.167,0,0,0-.081.089h-.01l-.009,0V3.2c0-.009,0-.011.012-.011h.189c.1,0,.168,0,.186,0a.036.036,0,0,1,.02,0v.117A.013.013,0,0,1,5.316,3.315Z" fill="#231f20"/><path d="M4.392,3.942l-.012,0a.194.194,0,0,0-.03-.058.093.093,0,0,0-.074-.039H4.237v.175c0,.029,0,.062,0,.122s.023.048.07.052l0,.013,0,.009H4.291l-.1,0-.1,0,0-.01,0-.012c.063,0,.07-.016.073-.036s0-.066,0-.12V3.891a.223.223,0,0,0,0-.048.323.323,0,0,0-.063,0c-.033.011-.055.039-.08.087L4,3.936,4,3.932v-.1c0-.01,0-.012.012-.012H4.2c.095,0,.167,0,.185,0s.016,0,.019,0v.119Z" fill="#231f20"/><path d="M4.849,4.217c-.12,0-.186,0-.2,0H4.589c-.016,0-.056,0-.1,0H4.468l0-.008,0-.013a.115.115,0,0,0,.059-.012c.008-.007.012-.025.014-.061,0-.019,0-.039,0-.06s0-.067,0-.113V3.886c0-.045-.022-.045-.068-.05l0-.011,0-.011h.153l.152,0H4.82c.01,0,.014,0,.014.01l.005.091-.011,0h-.01a.188.188,0,0,0-.06-.071.1.1,0,0,0-.035-.009H4.669a.259.259,0,0,0-.044,0c-.006,0,0,0-.007.014s0,.029,0,.082v.051H4.63a.178.178,0,0,0,.046,0,.081.081,0,0,0,.042-.028.272.272,0,0,0,.007-.033l.014,0,.011,0c0,.016,0,.047,0,.086,0,.019,0,.061,0,.079l-.011,0-.013,0c0-.034-.007-.058-.038-.07a.108.108,0,0,0-.043-.007H4.616v.1a.16.16,0,0,0,.005.047c0,.008.013.022.024.022a.19.19,0,0,0,.037,0H4.74a.1.1,0,0,0,.043-.007A.2.2,0,0,0,4.847,4.1a.022.022,0,0,1,.013,0l.011,0v.106C4.871,4.215,4.864,4.217,4.849,4.217Z" fill="#231f20"/><path d="M5.132,4.225A.227.227,0,0,1,5.039,4.2l-.015,0a.087.087,0,0,0-.03.015c-.009,0-.021,0-.023-.012s.007-.033.007-.049,0-.053,0-.065a.025.025,0,0,1,.018-.008H5c.009.016.025.059.037.077a.124.124,0,0,0,.089.042.092.092,0,0,0,.064-.019.058.058,0,0,0,.023-.049A.053.053,0,0,0,5.2,4.1a.1.1,0,0,0-.042-.03c-.018-.008-.079-.023-.1-.035A.137.137,0,0,1,5,3.99a.12.12,0,0,1-.024-.072A.113.113,0,0,1,5.1,3.806a.151.151,0,0,1,.1.026L5.22,3.81a.024.024,0,0,1,.022.01.475.475,0,0,0-.007.055c0,.011.007.053.007.059a.043.043,0,0,1-.017.006l-.006,0c-.011-.019-.022-.052-.034-.07a.093.093,0,0,0-.08-.034.065.065,0,0,0-.072.059c0,.034.027.049.049.06s.037.015.06.022A.5.5,0,0,1,5.207,4a.108.108,0,0,1,.065.1A.129.129,0,0,1,5.132,4.225Z" fill="#231f20"/><path d="M4.554,4.845c-.122,0-.188,0-.205,0H4.292l-.1,0H4.17l0-.008V4.822a.143.143,0,0,0,.061-.013.118.118,0,0,0,.013-.061c0-.019,0-.039,0-.06s0-.067,0-.113V4.514c0-.045-.023-.045-.067-.05l0-.011,0-.01h.345c.01,0,.014,0,.014.01l0,.091-.011,0H4.522a.192.192,0,0,0-.06-.07.086.086,0,0,0-.035-.01H4.373a.294.294,0,0,0-.046,0s0,0,0,.014,0,.029,0,.081v.052h.014a.181.181,0,0,0,.045,0,.071.071,0,0,0,.041-.028.115.115,0,0,0,.009-.033l.013,0,.01,0c0,.015,0,.046,0,.085v.079a.012.012,0,0,1-.011,0l-.01,0c0-.034-.01-.057-.039-.07a.115.115,0,0,0-.045-.007H4.319v.1a.155.155,0,0,0,0,.047.035.035,0,0,0,.024.022.194.194,0,0,0,.038,0h.057a.1.1,0,0,0,.043-.007.2.2,0,0,0,.065-.085l.011,0,.013,0v.107C4.575,4.843,4.568,4.845,4.554,4.845Z" fill="#231f20"/><path d="M5.137,4.464c-.041,0-.076.023-.076.089v.206c0,.008,0,.065,0,.088a.032.032,0,0,1-.016.006l-.01-.006-.282-.3,0,.062v.112c0,.009,0,.03,0,.046a.051.051,0,0,0,.02.043.114.114,0,0,0,.054.017l0,.009,0,.01h-.1l-.06,0H4.658V4.834l0-.011A.094.094,0,0,0,4.722,4.8a.125.125,0,0,0,.007-.048V4.6c0-.023,0-.034,0-.057A.082.082,0,0,0,4.714,4.5l-.02-.021a.22.22,0,0,0-.046-.019l0-.01,0-.01h.011l.085,0h.019l.012.008.21.229c.016.017.036.041.047.055V4.572a.409.409,0,0,0,0-.045.119.119,0,0,0-.012-.044c-.006-.009-.045-.015-.065-.019l0-.012V4.443h.012l.07,0h.1v.02Z" fill="#231f20"/><path d="M6.457,3.209c-.04,0-.076.023-.076.088V3.5c0,.007,0,.065,0,.088a.025.025,0,0,1-.016.006s-.006,0-.011-.006l-.283-.3,0,.062v.112c0,.01,0,.029,0,.045a.058.058,0,0,0,.02.043.122.122,0,0,0,.054.017l0,.01,0,.01h-.1l-.06,0H5.979l0-.009,0-.011a.1.1,0,0,0,.063-.027.113.113,0,0,0,.007-.049V3.349c0-.023,0-.035,0-.058a.076.076,0,0,0-.014-.043l-.021-.021a.189.189,0,0,0-.045-.02l0-.009,0-.01H5.98l.084,0h.02L6.1,3.2l.21.229a.666.666,0,0,1,.047.055V3.317a.319.319,0,0,0,0-.045.114.114,0,0,0-.011-.044c-.007-.01-.046-.015-.066-.019l0-.012V3.188h.013l.07,0h.1l0,.01Z" fill="#231f20"/><path d="M6.873,3.539a.2.2,0,0,1-.282,0A.2.2,0,0,1,6.53,3.39a.208.208,0,0,1,.061-.153.2.2,0,0,1,.246-.029.206.206,0,0,1,.1.177A.223.223,0,0,1,6.873,3.539Zm-.065-.292a.092.092,0,0,0-.08-.043.085.085,0,0,0-.074.043.235.235,0,0,0-.037.141.252.252,0,0,0,.035.14.089.089,0,0,0,.079.044.09.09,0,0,0,.087-.055.25.25,0,0,0,.027-.127A.229.229,0,0,0,6.808,3.247Z" fill="#231f20"/><path d="M7.442,3.21a.081.081,0,0,0-.071.047l-.152.34-.012,0s-.012,0-.015-.015a1.448,1.448,0,0,0-.062-.151l-.048-.111c-.018-.041-.032-.068-.036-.076a.08.08,0,0,0-.065-.037l0-.01,0-.01h.1l.1,0H7.19l0,.009,0,.011c-.019,0-.059,0-.059.027a.051.051,0,0,0,0,.023l.1.237.084-.2a.128.128,0,0,0,.011-.052c0-.022-.016-.031-.058-.037l0-.01,0-.011h.012c.019,0,.037,0,.08,0h.079l0,.009Z" fill="#231f20"/><path d="M6.326,3.942l-.012,0a.2.2,0,0,0-.029-.058.1.1,0,0,0-.074-.039H6.172v.175c0,.029,0,.062,0,.122s.022.048.07.052a.024.024,0,0,1,0,.013l0,.009H6.225l-.1,0-.1,0,0-.01,0-.012c.065,0,.071-.016.074-.036s0-.066,0-.12V3.891a.223.223,0,0,0,0-.048.328.328,0,0,0-.063,0c-.032.011-.055.039-.08.087l-.011,0-.009,0v-.1c0-.01,0-.012.012-.012h.19c.095,0,.168,0,.185,0s.017,0,.02,0v.119Z" fill="#231f20"/><path d="M6.806,4.216H6.775c-.02,0-.044,0-.068,0s-.086,0-.1,0l0-.01,0-.01c.039,0,.055-.008.055-.023a.142.142,0,0,0-.012-.053l-.021-.05s0,0-.011,0H6.486a.28.28,0,0,0-.03.076.088.088,0,0,0,0,.024c0,.013.013.027.057.028l0,.012v.009H6.5l-.07,0-.086,0V4.2A.084.084,0,0,0,6.4,4.168a.72.72,0,0,0,.051-.105c.022-.052.05-.121.061-.149s.023-.046.028-.059l.021-.042.016-.006c.007,0,.016,0,.017.007l.01.021c.024.055.042.1.071.173.014.035.022.056.038.092s.017.04.028.061.039.031.063.036l0,.01ZM6.554,3.9h0a.51.51,0,0,0-.029.064c-.021.052-.029.069-.033.077h.12C6.6,4.017,6.571,3.942,6.554,3.9Z" fill="#231f20"/><path d="M7.426,4.216l-.164,0H7.219l0-.01,0-.011a.315.315,0,0,0,.04,0c.016-.007.022-.023.022-.048V3.854h0L7.2,4.041c-.009.02-.02.043-.029.064a.756.756,0,0,0-.035.091.012.012,0,0,1-.013.008c-.006,0-.01,0-.013-.012s-.018-.039-.022-.05L6.951,3.85h0v.074l0,.188c0,.057.029.083.075.083l0,.011,0,.009h-.02c-.006,0-.036,0-.078,0H6.845V4.2a.19.19,0,0,0,.058-.02c.009-.007.017-.025.017-.064V3.905c0-.033,0-.045-.021-.055a.16.16,0,0,0-.053-.012l0-.011,0-.011h.168l.009.011.119.272.022-.055c.018-.044.046-.109.083-.18.009-.015.018-.035.024-.047l.153,0,0,.01,0,.01c-.018,0-.046,0-.06.026,0,.007-.008.015-.008.048V4.1c0,.075.019.082.028.088a.173.173,0,0,0,.041,0l0,.011Z" fill="#231f20"/><path d="M6.317,4.571l-.012,0a.17.17,0,0,0-.03-.059A.091.091,0,0,0,6.2,4.471H6.163v.175c0,.029,0,.062,0,.122s.021.047.07.053l0,.012v.009H6.115l-.1,0,0-.01,0-.011c.063,0,.07-.016.073-.037s0-.066,0-.12V4.518a.218.218,0,0,0,0-.047.344.344,0,0,0-.064,0c-.032.011-.053.04-.079.087l-.011,0-.009,0v-.1c0-.01,0-.012.011-.012h.191c.1,0,.168,0,.185,0s.017,0,.019,0v.118Z" fill="#231f20"/><path d="M6.814,4.465a.081.081,0,0,0-.071.048l-.151.338a.034.034,0,0,1-.013,0s-.011,0-.014-.015-.022-.06-.062-.152l-.049-.111c-.018-.041-.031-.067-.036-.076a.078.078,0,0,0-.064-.037l0-.01,0-.01h.1l.095,0h.015l0,.009,0,.011c-.019,0-.059,0-.059.027a.072.072,0,0,0,0,.024l.1.236.084-.2A.123.123,0,0,0,6.7,4.5c0-.022-.017-.031-.058-.037l0-.009,0-.012h.012c.019,0,.037,0,.08,0h.078l0,.009Z" fill="#231f20"/><path d="M7.433,4.844l-.161,0H7.227l0-.01,0-.01a.19.19,0,0,0,.041,0,.047.047,0,0,0,.023-.048V4.482h0l-.084.187c-.011.02-.021.043-.031.064-.019.044-.03.075-.036.091s-.007.008-.012.008-.008,0-.012-.011a.4.4,0,0,1-.021-.051l-.135-.293h0v.076l0,.187c0,.057.03.083.076.083l0,.011,0,.009H7.014s-.034,0-.076,0H6.854l0-.009,0-.01A.239.239,0,0,0,6.913,4.8c.008-.008.015-.026.015-.065V4.534c0-.034,0-.046-.021-.057a.18.18,0,0,0-.052-.011l0-.011,0-.011h.169l.007.011.12.271.022-.054a1.7,1.7,0,0,1,.084-.18.509.509,0,0,1,.024-.047l.15,0,0,.01,0,.01c-.015,0-.044,0-.058.026a.087.087,0,0,0-.008.048v.193c0,.075.019.081.027.087a.135.135,0,0,0,.04.005l0,.011C7.437,4.841,7.435,4.841,7.433,4.844Z" fill="#231f20"/><path d="M11.27,2.336l-.016-.19-.182.056a4.646,4.646,0,0,1-1.36.2A4.588,4.588,0,0,1,5.792.219L5.66,0,5.528.219A4.588,4.588,0,0,1,1.608,2.4,4.666,4.666,0,0,1,.25,2.2L.068,2.147l-.016.19A13.322,13.322,0,0,0,.285,6.255a13.565,13.565,0,0,0,1.458,3.87A13.786,13.786,0,0,0,2.96,11.94a14.086,14.086,0,0,0,2.605,2.535l.092.069.092-.069a14.079,14.079,0,0,0,2.61-2.527,13.864,13.864,0,0,0,1.217-1.813,13.6,13.6,0,0,0,1.416-3.693l.038-.187A13.408,13.408,0,0,0,11.27,2.336ZM8.016,3.368h.227v.444H8.016Zm0,1.162h.227v.444H8.016ZM5.719,2.9A.421.421,0,0,1,6.1,2.736l.439.063.577.076a1.143,1.143,0,0,0,.5-.083V5.2a1.378,1.378,0,0,1-.5.075L6.561,5.2,6.1,5.141a.566.566,0,0,0-.384.121ZM3.744,2.8a1.069,1.069,0,0,0,.48.079L4.8,2.8l.437-.063a.422.422,0,0,1,.384.161V5.263a.574.574,0,0,0-.388-.122L4.777,5.2l-.553.074c-.405,0-.489-.1-.49-.1S3.743,2.959,3.744,2.8Zm-.33.294c.044-.01.172-.036.235-.051V5.208c.024.049.122.165.575.165L4.8,5.3l.438-.062a.428.428,0,0,1,.389.162l.013-.007h.068l.013.006A.419.419,0,0,1,6.1,5.235l.439.062.577.076c.459,0,.573-.121.585-.134l.009-2.21.209.059V5.482a6.431,6.431,0,0,1-.83.065A10.88,10.88,0,0,1,5.983,5.47L5.93,5.462v.162a.8.8,0,0,1-.268.049.706.706,0,0,1-.257-.049V5.462l-.054.008a10.864,10.864,0,0,1-1.1.077,6.387,6.387,0,0,1-.832-.065ZM3.1,3.368h.223v.444H3.1Zm0,1.162h.223v.444H3.1Zm2.562,9.619a13.712,13.712,0,0,1-2.456-2.4l-.009-.011,2.466-2.4,2.47,2.4-.011.014A13.8,13.8,0,0,1,5.658,14.149ZM10.69,6.375A13.261,13.261,0,0,1,9.327,9.946L5.659,6.418,1.994,9.939A13.291,13.291,0,0,1,.6,6.224H10.721Z" fill="#231f20"/></svg>