<svg width="64" height="64" xmlns="http://www.w3.org/2000/svg">
 <defs>
  <style>.cls-1 {
        fill: #00edff;
      }

      .cls-2 {
        fill: none;
      }</style>
 </defs>
 <title>cdh_icon_book</title>
 <g>
  <title>background</title>
  <rect fill="none" id="canvas_background" height="402" width="582" y="-1" x="-1"/>
 </g>
 <g>
  <title>Layer 1</title>
  <rect id="svg_7" height="40.610618" width="35.19078" y="3.374096" x="7.839736" fill-opacity="null" stroke-opacity="null" stroke-width="1.5" stroke="#000" fill="#fff"/>
  <g id="Layer_1">
   <path id="svg_1" d="m57,12l-4,0l0,46l-39.34863,0a9.23892,9.23892 0 0 1 -2.45435,-0.33362a8.53751,8.53751 0 0 0 8.45435,6.33362l39.34863,0l0,-52l-2,0z" class="cls-1"/>
  </g>
  <g id="Layer_2">
   <!-- book outline -->
   <path id="svg_2" d="m51,5.923664l-2,0l0,48l-35.34863,0c-2.56446,0 -4.65137,-1.80518 -4.65137,-4.02393c0,-2.19238 2.08691,-3.97607 4.65137,-3.97607l32.34863,0l0,-46l-32.41895,0a8.62568,8.62568 0 0 0 -8.58105,8.65039l0,41.34961l0.00128,0c0.01416,4.41327 3.88831,8 8.65009,8l39.34863,0l0,-52l-2,0zm-37.41895,-2l28.41895,0l0,38l-28.34863,0a9.12526,9.12526 0 0 0 -4.65137,1.26184l0,-34.61145a4.621,4.621 0 0 1 4.58105,-4.65039z"/>
   <rect id="svg_3" height="4" width="30" y="47.923664" x="16"/>
  </g>
  <path id="svg_6" d="m25.272728,28.121213" opacity="0.5" stroke-width="1.5" stroke="#000" fill="#fff"/>
 </g>
</svg>