<svg xmlns="http://www.w3.org/2000/svg" viewBox="0 0 64 64">
  <defs>
    <style>
      .cls-1 {
        fill: #00edff;
      }

      .cls-2 {
        fill: #fff;
      }

      .cls-3 {
        fill: none;
      }
    </style>
  </defs>
  <title>cdh_icon_convo</title>
  <g id="Layer_1" data-name="Layer 1">
    <g id="_Group_" data-name="&lt;Group&gt;">
      <g>
        <path class="cls-1" d="M61,32.16667c0,12.7946-10.79074,23.16667-24.1018,23.16667a24.7619,24.7619,0,0,1-11.52693-2.81628C23.63386,51.6059,11,59,11,59s6.37479-13.06019,5.1733-15.00022a22.38642,22.38642,0,0,1-3.37689-11.83311C12.79641,19.37207,23.58715,9,36.8982,9S61,19.37207,61,32.16667Z"/>
        <path class="cls-1" d="M11.00049,61a2.00031,2.00031,0,0,1-1.79785-2.87744c2.522-5.16748,5.11914-11.60889,5.126-13.30566A24.45762,24.45762,0,0,1,10.79639,32.1665C10.79639,18.28955,22.50586,7,36.89844,7S63,18.28955,63,32.1665s-11.709,25.167-26.10156,25.167A26.93774,26.93774,0,0,1,24.77539,54.46c-1.72314.28369-7.84521,3.38672-12.76514,6.26611A1.99533,1.99533,0,0,1,11.00049,61ZM36.89844,11c-12.187,0-22.10205,9.49512-22.10205,21.1665a20.46233,20.46233,0,0,0,3.07715,10.78027c.41309.667,1.40625,2.26953-2.47119,11.28955,8.71582-4.63672,10.14941-3.88232,10.89746-3.49023a22.89979,22.89979,0,0,0,10.59863,2.5874C49.08545,53.3335,59,43.83789,59,32.1665S49.08545,11,36.89844,11Z"/>
      </g>
      <g>
        <path class="cls-2" d="M55,26.16667c0,12.7946-10.79074,23.16667-24.1018,23.16667a24.7619,24.7619,0,0,1-11.52693-2.81628C17.63386,45.6059,5,53,5,53s6.37479-13.06019,5.1733-15.00022A22.38642,22.38642,0,0,1,6.79641,26.16667C6.79641,13.37207,17.58715,3,30.8982,3S55,13.37207,55,26.16667Z"/>
        <path d="M5.00049,55a2.00031,2.00031,0,0,1-1.79785-2.87744c2.522-5.16748,5.11914-11.60889,5.126-13.30566A24.45762,24.45762,0,0,1,4.79639,26.1665C4.79639,12.28955,16.50586,1,30.89844,1S57,12.28955,57,26.1665s-11.709,25.167-26.10156,25.167A26.93774,26.93774,0,0,1,18.77539,48.46c-1.72314.28369-7.84521,3.38672-12.76514,6.26611A1.99533,1.99533,0,0,1,5.00049,55ZM30.89844,5C18.71143,5,8.79639,14.49512,8.79639,26.1665a20.46233,20.46233,0,0,0,3.07715,10.78027c.41309.667,1.40625,2.26953-2.47119,11.28955,8.71582-4.63672,10.1499-3.88184,10.89746-3.49023a22.89979,22.89979,0,0,0,10.59863,2.5874C43.08545,47.3335,53,37.83789,53,26.1665S43.08545,5,30.89844,5Z"/>
      </g>
    </g>
    <g id="_Group_2" data-name="&lt;Group&gt;">
      <circle cx="19" cy="26" r="3"/>
    </g>
    <g id="_Group_3" data-name="&lt;Group&gt;">
      <circle cx="31" cy="26" r="3"/>
    </g>
    <g id="_Group_4" data-name="&lt;Group&gt;">
      <circle cx="42" cy="26" r="3"/>
    </g>
  </g>
  <g id="Isolation_Mode" data-name="Isolation Mode">
    <rect class="cls-3" width="64" height="64"/>
  </g>
</svg>
