<svg xmlns="http://www.w3.org/2000/svg" viewBox="0 0 64 64">
  <defs>
    <style>
      .cls-1 {
        fill: #00edff;
      }

      .cls-2 {
        fill: #fff;
      }

      .cls-3 {
        fill: none;
      }
    </style>
  </defs>
  <title>cdh_icon_grant</title>
  <g id="Layer_1" data-name="Layer 1">
    <g id="_Group_" data-name="&lt;Group&gt;">
      <g>
        <path class="cls-1" d="M60.81132,37.86973h0a4.05838,4.05838,0,0,0,0-5.73943h0a18.63994,18.63994,0,0,1-5.45955-13.18046v-.2432a4.05838,4.05838,0,0,0-4.05838-4.05838H51.225a18.63994,18.63994,0,0,1-13.18041-5.4595l-.00007-.00007a4.05838,4.05838,0,0,0-5.73941,0l-.00007.00007a18.63994,18.63994,0,0,1-13.18041,5.4595h-.41806a4.05838,4.05838,0,0,0-4.05838,4.05838v.2432A18.63994,18.63994,0,0,1,9.18868,32.13028h0a4.05838,4.05838,0,0,0,0,5.73943h0a18.63994,18.63994,0,0,1,5.45955,13.18046v.2432a4.05838,4.05838,0,0,0,4.05838,4.05838h.41807a18.63994,18.63994,0,0,1,13.18039,5.45948l.00008.00008a4.05838,4.05838,0,0,0,5.7394,0l.00008-.00008A18.63994,18.63994,0,0,1,51.225,55.35178h.06836a4.05838,4.05838,0,0,0,4.05838-4.05838v-.2432A18.63994,18.63994,0,0,1,60.81132,37.86973Z"/>
        <path class="cls-1" d="M35.1748,63.99707a6.03636,6.03636,0,0,1-4.28418-1.77148,16.5272,16.5272,0,0,0-11.76562-4.874h-.418A6.06533,6.06533,0,0,1,12.64844,51.293V51.0498a16.5272,16.5272,0,0,0-4.874-11.76562,6.06561,6.06561,0,0,1,0-8.56836,16.5272,16.5272,0,0,0,4.874-11.76562V18.707A6.06533,6.06533,0,0,1,18.707,12.64844h.418a16.5272,16.5272,0,0,0,11.76563-4.874,6.06383,6.06383,0,0,1,8.56836,0,16.5272,16.5272,0,0,0,11.76563,4.874,6.08027,6.08027,0,0,1,6.127,6.05859v.24316a16.5272,16.5272,0,0,0,4.874,11.76563,6.06561,6.06561,0,0,1,0,8.56836h0a16.5272,16.5272,0,0,0-4.874,11.76563V51.293A6.06533,6.06533,0,0,1,51.293,57.35156a16.56807,16.56807,0,0,0-11.834,4.874A6.03636,6.03636,0,0,1,35.1748,63.99707ZM18.707,16.64844A2.06137,2.06137,0,0,0,16.64844,18.707v.24316a20.50057,20.50057,0,0,1-6.0459,14.59375,2.06057,2.06057,0,0,0,0,2.91211,20.50057,20.50057,0,0,1,6.0459,14.59375V51.293A2.06137,2.06137,0,0,0,18.707,53.35156h.418a20.50057,20.50057,0,0,1,14.59375,6.0459,2.10974,2.10974,0,0,0,2.91211,0,20.50057,20.50057,0,0,1,14.59375-6.0459,2.07709,2.07709,0,0,0,2.127-2.05859V51.0498a20.50057,20.50057,0,0,1,6.0459-14.59375h0a2.06057,2.06057,0,0,0,0-2.91211,20.50057,20.50057,0,0,1-6.0459-14.59375V18.707A2.06137,2.06137,0,0,0,51.293,16.64844a20.54132,20.54132,0,0,1-14.66211-6.0459,2.10974,2.10974,0,0,0-2.91211,0A20.50057,20.50057,0,0,1,19.125,16.64844Z"/>
      </g>
      <g>
        <path class="cls-2" d="M54.81132,31.86973h0a4.05838,4.05838,0,0,0,0-5.73943h0a18.63994,18.63994,0,0,1-5.45955-13.18046v-.2432a4.05838,4.05838,0,0,0-4.05838-4.05838H45.225a18.63994,18.63994,0,0,1-13.18041-5.4595l-.00007-.00007a4.05838,4.05838,0,0,0-5.73941,0l-.00007.00007a18.63994,18.63994,0,0,1-13.18041,5.4595h-.41806a4.05838,4.05838,0,0,0-4.05838,4.05838v.2432A18.63994,18.63994,0,0,1,3.18868,26.13028h0a4.05838,4.05838,0,0,0,0,5.73943h0A18.63994,18.63994,0,0,1,8.64823,45.05019v.2432a4.05838,4.05838,0,0,0,4.05838,4.05838h.41807a18.63994,18.63994,0,0,1,13.18039,5.45948l.00008.00008a4.05838,4.05838,0,0,0,5.7394,0l.00008-.00008A18.63994,18.63994,0,0,1,45.225,49.35178h.06836a4.05838,4.05838,0,0,0,4.05838-4.05838v-.2432A18.63994,18.63994,0,0,1,54.81132,31.86973Z"/>
        <path d="M29.1748,57.99707a6.03636,6.03636,0,0,1-4.28418-1.77148,16.5272,16.5272,0,0,0-11.76562-4.874h-.418A6.06533,6.06533,0,0,1,6.64844,45.293V45.0498a16.5272,16.5272,0,0,0-4.874-11.76562,6.06561,6.06561,0,0,1,0-8.56836,16.5272,16.5272,0,0,0,4.874-11.76563V12.707A6.06533,6.06533,0,0,1,12.707,6.64844h.418a16.5272,16.5272,0,0,0,11.76563-4.874,6.06383,6.06383,0,0,1,8.56836,0,16.5272,16.5272,0,0,0,11.76563,4.874,6.08027,6.08027,0,0,1,6.127,6.05859v.24316a16.5272,16.5272,0,0,0,4.874,11.76563,6.06561,6.06561,0,0,1,0,8.56836h0a16.5272,16.5272,0,0,0-4.874,11.76563V45.293A6.06533,6.06533,0,0,1,45.293,51.35156a16.56807,16.56807,0,0,0-11.834,4.874A6.03636,6.03636,0,0,1,29.1748,57.99707ZM12.707,10.64844A2.06137,2.06137,0,0,0,10.64844,12.707v.24316a20.50057,20.50057,0,0,1-6.0459,14.59375,2.06057,2.06057,0,0,0,0,2.91211,20.50057,20.50057,0,0,1,6.0459,14.59375V45.293A2.06137,2.06137,0,0,0,12.707,47.35156h.418a20.50057,20.50057,0,0,1,14.59375,6.0459,2.10974,2.10974,0,0,0,2.91211,0,20.50057,20.50057,0,0,1,14.59375-6.0459,2.07709,2.07709,0,0,0,2.127-2.05859V45.0498a20.50057,20.50057,0,0,1,6.0459-14.59375h0a2.06057,2.06057,0,0,0,0-2.91211,20.50057,20.50057,0,0,1-6.0459-14.59375V12.707A2.06137,2.06137,0,0,0,45.293,10.64844a20.54132,20.54132,0,0,1-14.66211-6.0459,2.10974,2.10974,0,0,0-2.91211,0A20.50057,20.50057,0,0,1,13.125,10.64844Z"/>
      </g>
    </g>
    <g id="_Group_2" data-name="&lt;Group&gt;">
      <g id="_Group_3" data-name="&lt;Group&gt;">
        <path d="M28.7627,40.26367a8.24091,8.24091,0,0,1-7.36621-4.37012A2.00054,2.00054,0,1,1,24.94336,34.042a4.25265,4.25265,0,0,0,3.81934,2.22168A4.09167,4.09167,0,0,0,33,32.34473c0-.88086-1.40527-1.7334-4.17773-2.53516-.32129-.09277-.5791-.16992-.74609-.23047-.09766-.03613-.23926-.07812-.41211-.13086C25.84082,28.8916,21,27.41211,21,23.05566c0-4.24121,3.36426-7.31934,8-7.31934A7.88287,7.88287,0,0,1,36.49414,20.917a2.00026,2.00026,0,0,1-3.73633,1.42969A3.90991,3.90991,0,0,0,29,19.73633c-1.93359,0-4,.87207-4,3.31934,0,1.39648,2.78418,2.24707,3.832,2.56738.25781.0791.46875.14453.61621.19824.10938.04.27637.08594.48535.14648C31.86621,26.52637,37,28.01074,37,32.34473A8.09224,8.09224,0,0,1,28.7627,40.26367Z"/>
      </g>
      <g id="_Group_4" data-name="&lt;Group&gt;">
        <rect x="27" y="13" width="4" height="4.67578"/>
      </g>
      <g id="_Group_5" data-name="&lt;Group&gt;">
        <rect x="27" y="38.32422" width="4" height="4.67578"/>
      </g>
    </g>
  </g>
  <g id="Isolation_Mode" data-name="Isolation Mode">
    <rect class="cls-3" width="64" height="64"/>
  </g>
</svg>
