<svg xmlns="http://www.w3.org/2000/svg" viewBox="0 0 64 64">
  <defs>
    <style>
      .cls-1 {
        fill: #00edff;
      }

      .cls-2 {
        fill: #fff;
      }

      .cls-3 {
        fill: none;
      }
    </style>
  </defs>
  <title>cdh_icon_location</title>
  <g id="Layer_1" data-name="Layer 1">
    <path class="cls-1" d="M48.97693,10.02307A22.86709,22.86709,0,0,1,53,23c0,12.30176-20.72412,32.57715-21.60645,33.43457l-1.32715,1.289c2.47925,2.69727,4.29236,4.47021,4.54,4.711L36,63.78809l1.39355-1.35352C38.27539,61.57715,59,41.30176,59,29A22.99024,22.99024,0,0,0,48.97693,10.02307Z"/>
  </g>
  <g id="Layer_3" data-name="Layer 3">
    <path class="cls-2" d="M30,4A19.02161,19.02161,0,0,0,11,23c0,8.16309,12.62891,22.69629,19,29.17773C36.37109,45.69629,49,31.16309,49,23A19.02161,19.02161,0,0,0,30,4Z"/>
  </g>
  <g id="Layer_2" data-name="Layer 2">
    <path d="M30,57.78809l-1.39355-1.35352C27.72412,55.57715,7,35.30176,7,23a23,23,0,0,1,46,0c0,12.30176-20.72412,32.57715-21.60645,33.43457ZM30,4A19.02161,19.02161,0,0,0,11,23c0,8.16309,12.62891,22.69629,19,29.17773C36.37109,45.69629,49,31.16309,49,23A19.02161,19.02161,0,0,0,30,4Z"/>
    <g id="_Group_" data-name="&lt;Group&gt;">
      <path d="M30,30a8,8,0,1,1,8-8A8.00917,8.00917,0,0,1,30,30Zm0-12a4,4,0,1,0,4,4A4.00427,4.00427,0,0,0,30,18Z"/>
    </g>
  </g>
  <g id="Isolation_Mode" data-name="Isolation Mode">
    <rect class="cls-3" width="64" height="64"/>
  </g>
</svg>
