<svg xmlns="http://www.w3.org/2000/svg" viewBox="0 0 64 64">
  <defs>
    <style>
      .cls-1 {
        fill: #00edff;
      }

      .cls-2 {
        fill: #fff;
      }

      .cls-3 {
        fill: none;
      }
    </style>
  </defs>
  <title>cdh_icon_medal</title>
  <g id="Layer_1" data-name="Layer 1">
    <g>
      <g>
        <g id="_Group_" data-name="&lt;Group&gt;">
          <polyline class="cls-1" points="42 44 42 62 35 56.899 28 62 28 44"/>
        </g>
        <g id="_Group_2" data-name="&lt;Group&gt;">
          <path class="cls-1" d="M55.07546,29.232h0a3.15652,3.15652,0,0,0,0-4.464h0a14.49773,14.49773,0,0,1-4.24631-10.25147v-.18916a3.15652,3.15652,0,0,0-3.15652-3.15652h-.05316A14.49773,14.49773,0,0,1,37.368,6.92458L37.368,6.92452a3.15652,3.15652,0,0,0-4.464,0l-.00006.00006a14.49773,14.49773,0,0,1-10.25143,4.24627h-.32516a3.15652,3.15652,0,0,0-3.15652,3.15652v.18916A14.49773,14.49773,0,0,1,14.92454,24.768h0a3.15652,3.15652,0,0,0,0,4.464h0a14.49773,14.49773,0,0,1,4.24631,10.25147v.18916a3.15652,3.15652,0,0,0,3.15652,3.15652h.32517A14.49773,14.49773,0,0,1,32.904,47.07542l.00006.00006a3.15652,3.15652,0,0,0,4.464,0l.00006-.00006a14.49773,14.49773,0,0,1,10.25142-4.24626h.05317a3.15652,3.15652,0,0,0,3.15652-3.15652v-.18916A14.49773,14.49773,0,0,1,55.07546,29.232Z"/>
        </g>
        <g id="_Group_3" data-name="&lt;Group&gt;">
          <circle class="cls-1" cx="35" cy="27" r="12"/>
        </g>
        <g id="_Group_4" data-name="&lt;Group&gt;">
          <polyline class="cls-1" points="42 44 42 62 35 56.899 28 62 28 44"/>
          <path class="cls-1" d="M42,64a1.99562,1.99562,0,0,1-1.17773-.38379L35,59.373l-5.82227,4.24316A1.99995,1.99995,0,0,1,26,62V44h4V58.06787l3.82227-2.78564a1.999,1.999,0,0,1,2.35547,0L40,58.06787V44h4V62a2.00046,2.00046,0,0,1-2,2Z"/>
        </g>
        <g id="_Group_5" data-name="&lt;Group&gt;">
          <path class="cls-1" d="M55.07546,29.232h0a3.15652,3.15652,0,0,0,0-4.464h0a14.49773,14.49773,0,0,1-4.24631-10.25147v-.18916a3.15652,3.15652,0,0,0-3.15652-3.15652h-.05316A14.49773,14.49773,0,0,1,37.368,6.92458L37.368,6.92452a3.15652,3.15652,0,0,0-4.464,0l-.00006.00006a14.49773,14.49773,0,0,1-10.25143,4.24627h-.32516a3.15652,3.15652,0,0,0-3.15652,3.15652v.18916A14.49773,14.49773,0,0,1,14.92454,24.768h0a3.15652,3.15652,0,0,0,0,4.464h0a14.49773,14.49773,0,0,1,4.24631,10.25147v.18916a3.15652,3.15652,0,0,0,3.15652,3.15652h.32517A14.49773,14.49773,0,0,1,32.904,47.07542l.00006.00006a3.15652,3.15652,0,0,0,4.464,0l.00006-.00006a14.49773,14.49773,0,0,1,10.25142-4.24626h.05317a3.15652,3.15652,0,0,0,3.15652-3.15652v-.18916A14.49773,14.49773,0,0,1,55.07546,29.232Z"/>
          <path class="cls-1" d="M35.13672,50a5.12108,5.12108,0,0,1-3.64648-1.51025,12.41491,12.41491,0,0,0-8.83789-3.66064h-.3252a5.16228,5.16228,0,0,1-5.15625-5.15625V39.4834a12.41617,12.41617,0,0,0-3.66016-8.8374,5.15555,5.15555,0,0,1,0-7.29248A12.41421,12.41421,0,0,0,17.1709,14.5166v-.18945A5.16228,5.16228,0,0,1,22.32715,9.1709h.3252a12.41646,12.41646,0,0,0,8.83789-3.66016,5.15555,5.15555,0,0,1,7.292-.00049A12.41433,12.41433,0,0,0,47.61914,9.1709a5.174,5.174,0,0,1,5.21,5.15625v.18945a12.41617,12.41617,0,0,0,3.66016,8.8374,5.155,5.155,0,0,1,0,7.292,12.41617,12.41617,0,0,0-3.66016,8.8374v.18945a5.16228,5.16228,0,0,1-5.15625,5.15625,12.448,12.448,0,0,0-8.89062,3.66016A5.121,5.121,0,0,1,35.13672,50ZM22.32715,13.1709a1.15738,1.15738,0,0,0-1.15625,1.15625v.18945a16.388,16.388,0,0,1-4.832,11.66553,1.15583,1.15583,0,0,0,0,1.63525,16.39,16.39,0,0,1,4.832,11.666v.18945a1.15738,1.15738,0,0,0,1.15625,1.15625h.3252a16.38913,16.38913,0,0,1,11.666,4.832A1.14853,1.14853,0,0,0,35.13672,46h0a1.14951,1.14951,0,0,0,.81738-.33838,16.38567,16.38567,0,0,1,11.665-4.83252,1.17011,1.17011,0,0,0,1.21-1.15625V39.4834a16.388,16.388,0,0,1,4.832-11.66553v-.00049a1.15524,1.15524,0,0,0,0-1.63477,16.39,16.39,0,0,1-4.832-11.666v-.18945a1.15738,1.15738,0,0,0-1.15625-1.15625,16.42057,16.42057,0,0,1-11.71875-4.832A1.14853,1.14853,0,0,0,35.13574,8h0a1.14951,1.14951,0,0,0-.81738.33838,16.38792,16.38792,0,0,1-11.666,4.83252Z"/>
        </g>
        <g id="_Group_6" data-name="&lt;Group&gt;">
          <circle class="cls-1" cx="35" cy="27" r="12"/>
          <path class="cls-1" d="M35,41A14,14,0,1,1,49,27,14.01573,14.01573,0,0,1,35,41Zm0-24A10,10,0,1,0,45,27,10.01146,10.01146,0,0,0,35,17Z"/>
        </g>
        <g id="_Group_7" data-name="&lt;Group&gt;">
          <path class="cls-1" d="M42,64a1.99562,1.99562,0,0,1-1.17773-.38379L35,59.373l-5.82227,4.24316A1.99995,1.99995,0,0,1,26,62V44h4V58.06787l3.82227-2.78564a1.999,1.999,0,0,1,2.35547,0L40,58.06787V44h4V62a2.00046,2.00046,0,0,1-2,2Z"/>
        </g>
        <g id="_Group_8" data-name="&lt;Group&gt;">
          <path class="cls-1" d="M35.13672,50a5.12108,5.12108,0,0,1-3.64648-1.51025,12.41491,12.41491,0,0,0-8.83789-3.66064h-.3252a5.16228,5.16228,0,0,1-5.15625-5.15625V39.4834a12.41617,12.41617,0,0,0-3.66016-8.8374,5.15555,5.15555,0,0,1,0-7.29248A12.41421,12.41421,0,0,0,17.1709,14.5166v-.18945A5.16228,5.16228,0,0,1,22.32715,9.1709h.3252a12.41646,12.41646,0,0,0,8.83789-3.66016,5.15555,5.15555,0,0,1,7.292-.00049A12.41433,12.41433,0,0,0,47.61914,9.1709a5.174,5.174,0,0,1,5.21,5.15625v.18945a12.41617,12.41617,0,0,0,3.66016,8.8374,5.155,5.155,0,0,1,0,7.292,12.41617,12.41617,0,0,0-3.66016,8.8374v.18945a5.16228,5.16228,0,0,1-5.15625,5.15625,12.448,12.448,0,0,0-8.89062,3.66016A5.121,5.121,0,0,1,35.13672,50ZM22.32715,13.1709a1.15738,1.15738,0,0,0-1.15625,1.15625v.18945a16.388,16.388,0,0,1-4.832,11.66553,1.15583,1.15583,0,0,0,0,1.63525,16.39,16.39,0,0,1,4.832,11.666v.18945a1.15738,1.15738,0,0,0,1.15625,1.15625h.3252a16.38913,16.38913,0,0,1,11.666,4.832A1.14853,1.14853,0,0,0,35.13672,46h0a1.14951,1.14951,0,0,0,.81738-.33838,16.38567,16.38567,0,0,1,11.665-4.83252,1.17011,1.17011,0,0,0,1.21-1.15625V39.4834a16.388,16.388,0,0,1,4.832-11.66553v-.00049a1.15524,1.15524,0,0,0,0-1.63477,16.39,16.39,0,0,1-4.832-11.666v-.18945a1.15738,1.15738,0,0,0-1.15625-1.15625,16.42057,16.42057,0,0,1-11.71875-4.832A1.14853,1.14853,0,0,0,35.13574,8h0a1.14951,1.14951,0,0,0-.81738.33838,16.38792,16.38792,0,0,1-11.666,4.83252Z"/>
        </g>
        <g id="_Group_9" data-name="&lt;Group&gt;">
          <path class="cls-1" d="M35,41A14,14,0,1,1,49,27,14.01573,14.01573,0,0,1,35,41Zm0-24A10,10,0,1,0,45,27,10.01146,10.01146,0,0,0,35,17Z"/>
        </g>
      </g>
      <g>
        <g>
          <g id="_Group_10" data-name="&lt;Group&gt;">
            <polyline class="cls-2" points="38 40 38 58 31 52.899 24 58 24 40"/>
          </g>
          <g>
            <g id="_Group_11" data-name="&lt;Group&gt;">
              <path class="cls-2" d="M51.07546,25.232h0a3.15652,3.15652,0,0,0,0-4.464h0a14.49773,14.49773,0,0,1-4.24631-10.25147v-.18916a3.15652,3.15652,0,0,0-3.15652-3.15652h-.05316A14.49773,14.49773,0,0,1,33.368,2.92458L33.368,2.92452a3.15652,3.15652,0,0,0-4.464,0l-.00006.00006A14.49773,14.49773,0,0,1,18.65252,7.17085h-.32516a3.15652,3.15652,0,0,0-3.15652,3.15652v.18916A14.49773,14.49773,0,0,1,10.92454,20.768h0a3.15652,3.15652,0,0,0,0,4.464h0a14.49773,14.49773,0,0,1,4.24631,10.25147v.18916a3.15652,3.15652,0,0,0,3.15652,3.15652h.32517A14.49773,14.49773,0,0,1,28.904,43.07542l.00006.00006a3.15652,3.15652,0,0,0,4.464,0l.00006-.00006a14.49773,14.49773,0,0,1,10.25142-4.24626h.05317a3.15652,3.15652,0,0,0,3.15652-3.15652v-.18916A14.49773,14.49773,0,0,1,51.07546,25.232Z"/>
            </g>
            <g id="_Group_12" data-name="&lt;Group&gt;">
              <circle class="cls-2" cx="31" cy="23" r="12"/>
            </g>
          </g>
        </g>
        <g>
          <g id="_Group_13" data-name="&lt;Group&gt;">
            <polyline class="cls-2" points="38 40 38 58 31 52.899 24 58 24 40"/>
            <path d="M38,60a1.99562,1.99562,0,0,1-1.17773-.38379L31,55.373l-5.82227,4.24316A1.99995,1.99995,0,0,1,22,58V40h4V54.06787l3.82227-2.78564a1.999,1.999,0,0,1,2.35547,0L36,54.06787V40h4V58a2.00046,2.00046,0,0,1-2,2Z"/>
          </g>
          <g>
            <g id="_Group_14" data-name="&lt;Group&gt;">
              <path class="cls-2" d="M51.07546,25.232h0a3.15652,3.15652,0,0,0,0-4.464h0a14.49773,14.49773,0,0,1-4.24631-10.25147v-.18916a3.15652,3.15652,0,0,0-3.15652-3.15652h-.05316A14.49773,14.49773,0,0,1,33.368,2.92458L33.368,2.92452a3.15652,3.15652,0,0,0-4.464,0l-.00006.00006A14.49773,14.49773,0,0,1,18.65252,7.17085h-.32516a3.15652,3.15652,0,0,0-3.15652,3.15652v.18916A14.49773,14.49773,0,0,1,10.92454,20.768h0a3.15652,3.15652,0,0,0,0,4.464h0a14.49773,14.49773,0,0,1,4.24631,10.25147v.18916a3.15652,3.15652,0,0,0,3.15652,3.15652h.32517A14.49773,14.49773,0,0,1,28.904,43.07542l.00006.00006a3.15652,3.15652,0,0,0,4.464,0l.00006-.00006a14.49773,14.49773,0,0,1,10.25142-4.24626h.05317a3.15652,3.15652,0,0,0,3.15652-3.15652v-.18916A14.49773,14.49773,0,0,1,51.07546,25.232Z"/>
              <path d="M31.13672,46a5.12108,5.12108,0,0,1-3.64648-1.51025,12.41491,12.41491,0,0,0-8.83789-3.66064h-.3252a5.16228,5.16228,0,0,1-5.15625-5.15625V35.4834A12.41617,12.41617,0,0,0,9.51074,26.646a5.15555,5.15555,0,0,1,0-7.29248A12.41421,12.41421,0,0,0,13.1709,10.5166v-.18945A5.16228,5.16228,0,0,1,18.32715,5.1709h.3252a12.41646,12.41646,0,0,0,8.83789-3.66016,5.15555,5.15555,0,0,1,7.292-.00049A12.41433,12.41433,0,0,0,43.61914,5.1709a5.174,5.174,0,0,1,5.21,5.15625v.18945a12.41617,12.41617,0,0,0,3.66016,8.8374,5.155,5.155,0,0,1,0,7.292,12.41617,12.41617,0,0,0-3.66016,8.8374v.18945a5.16228,5.16228,0,0,1-5.15625,5.15625,12.448,12.448,0,0,0-8.89062,3.66016A5.121,5.121,0,0,1,31.13672,46ZM18.32715,9.1709a1.15738,1.15738,0,0,0-1.15625,1.15625v.18945a16.388,16.388,0,0,1-4.832,11.66553,1.15583,1.15583,0,0,0,0,1.63525,16.39,16.39,0,0,1,4.832,11.666v.18945a1.15738,1.15738,0,0,0,1.15625,1.15625h.3252a16.38913,16.38913,0,0,1,11.666,4.832A1.14853,1.14853,0,0,0,31.13672,42h0a1.14951,1.14951,0,0,0,.81738-.33838,16.38567,16.38567,0,0,1,11.665-4.83252,1.17011,1.17011,0,0,0,1.21-1.15625V35.4834a16.388,16.388,0,0,1,4.832-11.66553v-.00049a1.15524,1.15524,0,0,0,0-1.63477,16.39,16.39,0,0,1-4.832-11.666v-.18945A1.15738,1.15738,0,0,0,43.67285,9.1709a16.42057,16.42057,0,0,1-11.71875-4.832A1.14853,1.14853,0,0,0,31.13574,4h0a1.14951,1.14951,0,0,0-.81738.33838,16.38792,16.38792,0,0,1-11.666,4.83252Z"/>
            </g>
            <g id="_Group_15" data-name="&lt;Group&gt;">
              <circle class="cls-2" cx="31" cy="23" r="12"/>
              <path d="M31,37A14,14,0,1,1,45,23,14.01573,14.01573,0,0,1,31,37Zm0-24A10,10,0,1,0,41,23,10.01146,10.01146,0,0,0,31,13Z"/>
            </g>
          </g>
        </g>
        <g>
          <g id="_Group_16" data-name="&lt;Group&gt;">
            <path d="M38,60a1.99562,1.99562,0,0,1-1.17773-.38379L31,55.373l-5.82227,4.24316A1.99995,1.99995,0,0,1,22,58V40h4V54.06787l3.82227-2.78564a1.999,1.999,0,0,1,2.35547,0L36,54.06787V40h4V58a2.00046,2.00046,0,0,1-2,2Z"/>
          </g>
          <g>
            <g id="_Group_17" data-name="&lt;Group&gt;">
              <path d="M31.13672,46a5.12108,5.12108,0,0,1-3.64648-1.51025,12.41491,12.41491,0,0,0-8.83789-3.66064h-.3252a5.16228,5.16228,0,0,1-5.15625-5.15625V35.4834A12.41617,12.41617,0,0,0,9.51074,26.646a5.15555,5.15555,0,0,1,0-7.29248A12.41421,12.41421,0,0,0,13.1709,10.5166v-.18945A5.16228,5.16228,0,0,1,18.32715,5.1709h.3252a12.41646,12.41646,0,0,0,8.83789-3.66016,5.15555,5.15555,0,0,1,7.292-.00049A12.41433,12.41433,0,0,0,43.61914,5.1709a5.174,5.174,0,0,1,5.21,5.15625v.18945a12.41617,12.41617,0,0,0,3.66016,8.8374,5.155,5.155,0,0,1,0,7.292,12.41617,12.41617,0,0,0-3.66016,8.8374v.18945a5.16228,5.16228,0,0,1-5.15625,5.15625,12.448,12.448,0,0,0-8.89062,3.66016A5.121,5.121,0,0,1,31.13672,46ZM18.32715,9.1709a1.15738,1.15738,0,0,0-1.15625,1.15625v.18945a16.388,16.388,0,0,1-4.832,11.66553,1.15583,1.15583,0,0,0,0,1.63525,16.39,16.39,0,0,1,4.832,11.666v.18945a1.15738,1.15738,0,0,0,1.15625,1.15625h.3252a16.38913,16.38913,0,0,1,11.666,4.832A1.14853,1.14853,0,0,0,31.13672,42h0a1.14951,1.14951,0,0,0,.81738-.33838,16.38567,16.38567,0,0,1,11.665-4.83252,1.17011,1.17011,0,0,0,1.21-1.15625V35.4834a16.388,16.388,0,0,1,4.832-11.66553v-.00049a1.15524,1.15524,0,0,0,0-1.63477,16.39,16.39,0,0,1-4.832-11.666v-.18945A1.15738,1.15738,0,0,0,43.67285,9.1709a16.42057,16.42057,0,0,1-11.71875-4.832A1.14853,1.14853,0,0,0,31.13574,4h0a1.14951,1.14951,0,0,0-.81738.33838,16.38792,16.38792,0,0,1-11.666,4.83252Z"/>
            </g>
            <g id="_Group_18" data-name="&lt;Group&gt;">
              <path d="M31,37A14,14,0,1,1,45,23,14.01573,14.01573,0,0,1,31,37Zm0-24A10,10,0,1,0,41,23,10.01146,10.01146,0,0,0,31,13Z"/>
            </g>
          </g>
        </g>
      </g>
    </g>
  </g>
  <g id="Isolation_Mode" data-name="Isolation Mode">
    <rect class="cls-3" width="64" height="64"/>
  </g>
</svg>
