<svg xmlns="http://www.w3.org/2000/svg" viewBox="0 0 64 64">
  <defs>
    <style>
      .cls-1 {
        fill: #00edff;
      }

      .cls-2 {
        fill: #fff;
      }

      .cls-3 {
        fill: none;
      }
    </style>
  </defs>
  <title>cdh_icon_ppl</title>
  <g id="Layer_1" data-name="Layer 1">
    <g id="_Group_" data-name="&lt;Group&gt;">
      <g>
        <circle class="cls-1" cx="36" cy="23" r="15"/>
        <path class="cls-1" d="M36,40A17,17,0,1,1,53,23,17.019,17.019,0,0,1,36,40Zm0-30A13,13,0,1,0,49,23,13.01442,13.01442,0,0,0,36,10Z"/>
      </g>
      <g>
        <circle class="cls-2" cx="30" cy="17" r="15"/>
        <path d="M30,34A17,17,0,1,1,47,17,17.019,17.019,0,0,1,30,34ZM30,4A13,13,0,1,0,43,17,13.01442,13.01442,0,0,0,30,4Z"/>
      </g>
    </g>
    <g id="_Group_2" data-name="&lt;Group&gt;">
      <g>
        <path class="cls-1" d="M59,61H13a23,23,0,0,1,46,0Z"/>
        <path class="cls-1" d="M61,63H11V61A24.73422,24.73422,0,0,1,36,36,24.73422,24.73422,0,0,1,61,61ZM15.08984,59H56.91016A20.74951,20.74951,0,0,0,36,40,20.74951,20.74951,0,0,0,15.08984,59Z"/>
      </g>
      <g>
        <path class="cls-2" d="M53,55H7A22.822,22.822,0,0,1,30,32,22.822,22.822,0,0,1,53,55Z"/>
        <path d="M55,57H5V55A24.73422,24.73422,0,0,1,30,30,24.73422,24.73422,0,0,1,55,55ZM9.08984,53H50.91016A20.74951,20.74951,0,0,0,30,34,20.74951,20.74951,0,0,0,9.08984,53Z"/>
      </g>
    </g>
  </g>
  <g id="Isolation_Mode" data-name="Isolation Mode">
    <rect class="cls-3" width="64" height="64"/>
  </g>
</svg>
