<svg xmlns="http://www.w3.org/2000/svg" viewBox="0 0 64 64">
  <defs>
    <style>
      .cls-1 {
        fill: #00edff;
      }

      .cls-2 {
        fill: #fff;
      }

      .cls-3 {
        fill: none;
      }
    </style>
  </defs>
  <title>cdh_icon_seed</title>
  <g id="Layer_1" data-name="Layer 1">
    <g id="_Group_" data-name="&lt;Group&gt;">
      <rect class="cls-1" x="34" y="24" width="4" height="13"/>
    </g>
    <g id="_Group_2" data-name="&lt;Group&gt;">
      <g>
        <path class="cls-1" d="M20,13.08174C20,22.5425,27.15625,30.198,36,30.198,36,20.73726,28.84375,13.08174,20,13.08174Z"/>
        <path class="cls-1" d="M38,32.19824H36c-9.9248,0-18-8.5752-18-19.11621v-2h2c9.9248,0,18,8.5752,18,19.11621ZM22.14453,15.25879c.87891,6.55078,5.66211,11.75391,11.71094,12.7627C32.97656,21.4707,28.19336,16.26758,22.14453,15.25879Z"/>
      </g>
      <g>
        <path class="cls-2" d="M16,9.08174C16,18.5425,23.15625,26.198,32,26.198,32,16.73726,24.84375,9.08174,16,9.08174Z"/>
        <path d="M34,28.19824H32c-9.9248,0-18-8.5752-18-19.11621v-2h2c9.9248,0,18,8.5752,18,19.11621ZM18.14453,11.25879c.87891,6.55078,5.66211,11.75391,11.71094,12.7627C28.97656,17.4707,24.19336,12.26758,18.14453,11.25879Z"/>
      </g>
    </g>
    <g id="_Group_3" data-name="&lt;Group&gt;">
      <g>
        <path class="cls-1" d="M36.17857,30c0-13.26562,9.68011-24,21.64286-24C57.82143,19.26563,48.14132,30,36.17857,30Z"/>
        <path class="cls-1" d="M36.17871,32h-2V30c0-14.33691,10.60645-26,23.64258-26h2V6C59.82129,20.33691,49.21484,32,36.17871,32ZM55.73047,8.124C46.501,9.22266,39.16016,17.50879,38.26953,27.876,47.499,26.77734,54.83984,18.49121,55.73047,8.124Z"/>
      </g>
      <g>
        <path class="cls-2" d="M32.17857,26c0-13.26562,9.68011-24,21.64286-24C53.82143,15.26563,44.14132,26,32.17857,26Z"/>
        <path d="M32.17871,28h-2V26c0-14.33691,10.60645-26,23.64258-26h2V2C55.82129,16.33691,45.21484,28,32.17871,28ZM51.73047,4.124C42.501,5.22266,35.16016,13.50879,34.26953,23.876,43.499,22.77734,50.83984,14.49121,51.73047,4.124Z"/>
      </g>
    </g>
    <g id="_Group_4" data-name="&lt;Group&gt;">
      <rect class="cls-1" x="9" y="40" width="52" height="4"/>
    </g>
    <g id="_Group_5" data-name="&lt;Group&gt;">
      <g>
        <polygon class="cls-1" points="49.304 62 22.696 62 19 42 53 42 49.304 62"/>
        <path class="cls-1" d="M50.96875,64H21.03125L16.59668,40H55.40332ZM24.35938,60H47.64063l2.95605-16H21.40332Z"/>
      </g>
      <g>
        <polygon class="cls-2" points="45.304 58 18.696 58 15 38 49 38 45.304 58"/>
        <path d="M46.96875,60H17.03125L12.59668,36H51.40332ZM20.35938,56H43.64063l2.95605-16H17.40332Z"/>
      </g>
    </g>
    <g id="_Group_6" data-name="&lt;Group&gt;">
      <rect x="6" y="36" width="52" height="4"/>
    </g>
    <g id="_Group_7" data-name="&lt;Group&gt;">
      <rect x="30" y="24" width="4" height="13"/>
    </g>
  </g>
  <g id="Isolation_Mode" data-name="Isolation Mode">
    <rect class="cls-3" width="64" height="64"/>
  </g>
</svg>
