<svg xmlns="http://www.w3.org/2000/svg" viewBox="0 0 20 20">
  <g fill="var(--icon-accent-color, #00edff)">
    <path
      d="M19.063 10.052c0 3.998-3.373 7.24-7.532 7.24a7.738 7.738 0 0 1-3.602-.88c-.543-.285-4.492 2.026-4.492 2.026s1.993-4.082 1.617-4.688A6.995 6.995 0 0 1 4 10.052c0-3.998 3.372-7.24 7.532-7.24s7.531 3.242 7.531 7.24Z" />
    <path
      d="M3.438 19.063a.625.625 0 0 1-.562-.9c.788-1.614 1.6-3.627 1.602-4.158a7.643 7.643 0 0 1-1.104-3.953c0-4.337 3.66-7.864 8.157-7.864s8.156 3.527 8.156 7.864-3.659 7.865-8.156 7.865a8.417 8.417 0 0 1-3.789-.898c-.538.088-2.451 1.058-3.989 1.958a.624.624 0 0 1-.315.085ZM11.53 3.438c-3.809 0-6.907 2.967-6.907 6.614a6.4 6.4 0 0 0 .961 3.369c.13.208.44.71-.772 3.528 2.724-1.45 3.172-1.213 3.406-1.09a7.156 7.156 0 0 0 3.312.808c3.808 0 6.906-2.968 6.906-6.615 0-3.647-3.098-6.614-6.906-6.614Z" />
  </g>
  <path fill="#fff"
    d="M17.188 8.177c0 3.998-3.373 7.24-7.532 7.24a7.738 7.738 0 0 1-3.602-.88c-.543-.285-4.492 2.025-4.492 2.025s1.993-4.08 1.617-4.687a6.996 6.996 0 0 1-1.055-3.698c0-3.998 3.372-7.24 7.532-7.24s7.531 3.242 7.531 7.24Z" />
  <path fill="var(--icon-color, #414042)"
    d="M1.563 17.188a.625.625 0 0 1-.562-.9c.788-1.614 1.6-3.627 1.602-4.158a7.643 7.643 0 0 1-1.104-3.953c0-4.337 3.66-7.864 8.157-7.864s8.156 3.527 8.156 7.864-3.659 7.865-8.156 7.865a8.417 8.417 0 0 1-3.789-.898c-.538.088-2.451 1.058-3.989 1.958a.624.624 0 0 1-.315.085ZM9.656 1.563c-3.809 0-6.907 2.967-6.907 6.614a6.4 6.4 0 0 0 .961 3.369c.13.208.44.71-.772 3.528 2.724-1.45 3.172-1.213 3.406-1.09a7.156 7.156 0 0 0 3.312.808c3.808 0 6.906-2.968 6.906-6.615 0-3.647-3.098-6.614-6.906-6.614Z" />
  <path fill="var(--icon-color, #414042)"
    d="M5.938 9.063a.937.937 0 1 0 0-1.875.937.937 0 0 0 0 1.875Zm3.75 0a.937.937 0 1 0 0-1.875.937.937 0 0 0 0 1.875Zm3.437 0a.937.937 0 1 0 0-1.875.937.937 0 0 0 0 1.875Z" />
</svg>