<svg xmlns="http://www.w3.org/2000/svg" fill="none" viewBox="0 0 18 25">
  <path fill="#00EDFF" d="m7.398 22.818 1.389 1.389a1.001 1.001 0 0 0 1.415 0l6.6-6.59a1 1 0 0 0-.152-1.54c-.107-.072-.978-1.272-1.103-1.298l-8.149 8.04Z"/>
  <path fill="#fff" d="M1.415 15.43h13.448L8.14 22.154 1.415 15.43Z"/>
  <path fill="#000" d="M.708 14.722a1 1 0 0 1 .708-.293h13.448a1.002 1.002 0 0 1 .708 1.708l-6.724 6.724a1.001 1.001 0 0 1-1.416 0L.708 16.137a1 1 0 0 1 0-1.415Zm11.74 1.708H3.831l4.308 4.308 4.307-4.308Z"/>
  <path fill="#000" d="M8.994 16.015V.5H6.992v15.515h2.002Z"/>
  <path fill="#00EDFF" d="M10.996 14.451V2.19H8.994v12.262h2.002Z"/>
</svg>
