<svg xmlns="http://www.w3.org/2000/svg" fill="none" viewBox="0 0 20 20">
  <path fill="#fff" d="M16.25.938H6.875v1.25H2.187v13.75h13.75v-4.376h1.25V1.85L16.25.938Z" />
  <path fill="var(--icon-accent-color, #00edff)"
    d="M18.573 2.813h-4.646c-.198 0-.377 1.681-.452 1.864a.488.488 0 0 0 .106.533l4.646 4.647a.49.49 0 0 0 .835-.346V3.3a.489.489 0 0 0-.489-.489Zm.49 10.625H2.813v5.624h16.25v-5.625Z" />
  <path fill="#fff" d="M16.563 11.563v5h-15v-15h5.312" />
  <path fill="var(--icon-color, #414042)"
    d="M17.188 17.188H.938V.938h5.937v1.25H2.187v13.75h13.75v-4.376h1.25v5.626Z" />
  <path fill="#fff" d="m16.563 7.5-5.938-5.938h5.938V7.5Z" />
  <path fill="var(--icon-color, #414042)"
    d="M16.562 8.125a.624.624 0 0 1-.442-.183l-5.937-5.938a.625.625 0 0 1 .442-1.067h5.937a.625.625 0 0 1 .625.625V7.5a.625.625 0 0 1-.625.625Zm-4.428-5.938 3.803 3.804V2.188h-3.803Z" />
  <path fill="var(--icon-color, #414042)" d="M13.309 3.933 8.62 8.62l.884.884 4.687-4.688-.883-.883Z" />
</svg>