<svg xmlns="http://www.w3.org/2000/svg" fill="none" viewBox="0 0 64 64">
  <path fill="var(--icon-accent-color)"
    d="M17 24v25.068l-10 .349v1.932c0 5.165 2.812 8.638 7 8.651h40.35A8.626 8.626 0 0 0 63 51.419V24H17Z" />
  <path fill="#fff" d="M54 19H8v32h46V19ZM8 52h.024L8 51.999V52Z" />
  <path fill="#fff"
    d="M8.024 52h40.325A6.616 6.616 0 0 0 55 45.42V20h-2v-7H25l-2.305-3.294A4 4 0 0 0 19.418 8H3v37.349c0 3.65 1.703 6.636 5.001 6.65" />
  <path fill="var(--icon-color)"
    d="M48.35 54H8c-4.188-.013-7-3.486-7-8.651V6h18.418a6.006 6.006 0 0 1 4.916 2.56L26.04 11H53v4H23.959l-2.903-4.148A2.004 2.004 0 0 0 19.417 10H5v35.349C5 46.125 5.146 50 8.024 50 10.785 50 11 46.44 11 45.349V18h46v27.419A8.626 8.626 0 0 1 48.35 54Zm-34.28-4h34.28A4.621 4.621 0 0 0 53 45.419V22H15v23.349A11.103 11.103 0 0 1 14.07 50Z" />
</svg>