<svg xmlns="http://www.w3.org/2000/svg" fill="none" viewBox="0 0 28 28">
  <path fill="var(--icon-accent-color, #00edff)" d="M15.5 27.5a12 12 0 1 1 0-24 12 12 0 0 1 0 24Z" />
  <path fill="#fff"
    d="M20.278 20.278c4.296-4.296 4.296-11.26 0-15.556-4.296-4.296-11.26-4.296-15.556 0-4.296 4.296-4.296 11.26 0 15.556 4.296 4.296 11.26 4.296 15.556 0Z" />
  <path fill="var(--icon-color, #414042)"
    d="M12.5 24.5a12 12 0 1 1 0-24 12 12 0 0 1 0 24Zm0-22a10 10 0 0 0-7.071 17.071A10 10 0 1 0 19.57 5.429 9.935 9.935 0 0 0 12.5 2.5Z" />
  <path fill="var(--icon-color, #414042)"
    d="M12.5 11.351c.552 0 1 .457 1 1.021v5.107a1.01 1.01 0 0 1-1 1.021c-.552 0-1-.457-1-1.021v-5.107a1.01 1.01 0 0 1 1-1.02ZM14 8.032c0 .846-.672 1.532-1.5 1.532S11 8.878 11 8.032 11.672 6.5 12.5 6.5s1.5.686 1.5 1.532Z" />
</svg>