<svg xmlns="http://www.w3.org/2000/svg" viewBox="0 0 20 20">
  <path fill="var(--icon-accent-color, #00edff)"
    d="M10.6 11.9a4.7 4.7 0 100-9.4 4.7 4.7 0 000 9.4Z" />
  <path fill="var(--icon-accent-color, #00edff)"
    d="m10.6 12.5a5.3 5.3 0 115.3-5.3 5.3 5.3 0 01-5.3 5.3zm0-9.4a4.1 4.1 0 100 8.2 4.1 4.1 0 000-8.2z" />
  <path fill="#fff" d="m8.7 10a4.7 4.7 0 100-9.4 4.7 4.7 0 000 9.4z" />
  <path fill="var(--icon-color, #414042)"
    d="m8.68 10.63a5.31 5.31 0 115.31-5.32 5.32 5.32 0 01-5.31 5.32zm0-9.38a4.06 4.06 0 100 8.13 4.06 4.06 0 000-8.13z" />
  <path fill="var(--icon-accent-color, #00edff)"
    d="m17.7 19.1h-14.3a7.2 7.2 0 0114.4 0z" />
  <path fill="var(--icon-accent-color, #00edff)"
    d="m18.4 19.7h-15.7v-.6a7.7 7.7 0 017.9-7.8 7.7 7.7 0 017.8 7.8v.6zm-14.4-1.3h13.1a6.5 6.5 0 00-6.5-5.9 6.5 6.5 0 00-6.6 5.9z" />
  <path fill="#fff"
    d="m15.9 17.2h-14.4a7.1 7.1 0 017.2-7.2 7.1 7.1 0 017.2 7.2z
    " />
  <path fill="var(--icon-color, #414042)"
    d="m16.5 17.8h-15.6v-.6a7.7 7.7 0 017.8-7.8 7.7 7.7 0 017.8 7.8v.6zm-14.3-1.3h13a6.5 6.5 0 00-6.5-5.9 6.5 6.5 0 00-6.5 5.9z" />
</svg>