<svg xmlns="http://www.w3.org/2000/svg" viewBox="0 0 19 20">
  <path fill="var(--icon-accent-color, #00edff)"
    d="M10.25 11.875a4.688 4.688 0 1 0 0-9.375 4.688 4.688 0 0 0 0 9.375Z" />
  <path fill="var(--icon-accent-color, #00edff)"
    d="M10.25 12.5a5.313 5.313 0 1 1 5.313-5.313A5.319 5.319 0 0 1 10.25 12.5Zm0-9.375a4.062 4.062 0 1 0 0 8.125 4.062 4.062 0 0 0 0-8.125Z" />
  <path fill="#fff" d="M8.375 10a4.688 4.688 0 1 0 0-9.375 4.688 4.688 0 0 0 0 9.375Z" />
  <path fill="var(--icon-color, #414042)"
    d="M8.375 10.625a5.313 5.313 0 1 1 5.313-5.313 5.319 5.319 0 0 1-5.313 5.313Zm0-9.375a4.062 4.062 0 1 0 0 8.125 4.062 4.062 0 0 0 0-8.125Z" />
  <path fill="var(--icon-accent-color, #00edff)" d="M17.438 19.063H3.063a7.187 7.187 0 0 1 14.374 0Z" />
  <path fill="var(--icon-accent-color, #00edff)"
    d="M18.063 19.688H2.438v-.625a7.73 7.73 0 0 1 7.813-7.812 7.728 7.728 0 0 1 7.812 7.812v.625Zm-14.347-1.25h13.069a6.484 6.484 0 0 0-6.534-5.937 6.484 6.484 0 0 0-6.535 5.937Z" />
  <path fill="#fff" d="M15.563 17.188H1.188A7.132 7.132 0 0 1 8.375 10a7.134 7.134 0 0 1 7.188 7.188Z" />
  <path fill="var(--icon-color, #414042)"
    d="M16.188 17.813H.563v-.625a7.73 7.73 0 0 1 7.812-7.813 7.73 7.73 0 0 1 7.813 7.813v.625Zm-14.347-1.25H14.91a6.484 6.484 0 0 0-6.535-5.937 6.484 6.484 0 0 0-6.534 5.937Z" />
</svg>