<svg width="24" height="36" viewBox="0 0 24 36" xmlns="http://www.w3.org/2000/svg">
    <path
        d="M8.99861 6.99218H16.2808C19.2935 6.99377 21.7364 9.43674 21.7379 12.4493V27.535C21.7363 30.5477 19.2934 32.9906 16.2808 32.9922H8.99861C5.98591 32.9906 3.54305 30.5476 3.5415 27.535V12.4493C3.54309 9.43658 5.98607 6.99373 8.99861 6.99218Z"
        fill="var(--icon-accent-color, #00edff)" />
    <path
        d="M13.2393 4.1377H5.95711C2.94456 4.13924 0.501585 6.5821 0.5 9.5948V24.6805C0.501548 27.6931 2.9444 30.1361 5.95711 30.1377H13.2393C16.2518 30.1361 18.6948 27.6932 18.6964 24.6805V9.5948C18.6949 6.58226 16.252 4.13928 13.2393 4.1377ZM2.48192 13.2527H16.7149V22.6074H2.48192V13.2527ZM5.95731 6.11922H13.2395C15.1575 6.12386 16.7103 7.67657 16.7149 9.59461V11.2712H2.48192V9.59461C2.48656 7.67657 4.03927 6.12385 5.95731 6.11922ZM13.2395 28.1558H5.95731C4.03927 28.1511 2.48655 26.5984 2.48192 24.6803V24.589H16.7149V24.6803C16.7102 26.5984 15.1575 28.1511 13.2395 28.1558Z"
        fill="var(--icon-color, #414042)" />
    <path
        d="M2.48193 13.2526H16.7149V22.6074H2.48193V13.2526ZM5.95732 6.11914H13.2395C15.1575 6.12378 16.7103 7.6765 16.7149 9.59453V11.2711H2.48193V9.59453C2.48658 7.6765 4.03929 6.12378 5.95732 6.11914ZM13.2395 28.1557H5.95732C4.03929 28.151 2.48657 26.5983 2.48193 24.6803V24.5889H16.7149V24.6803C16.7103 26.5983 15.1575 28.1511 13.2395 28.1557Z"
        fill="white" />
</svg>