<svg xmlns="http://www.w3.org/2000/svg" viewBox="0 0 64 64">
  <path fill="var(--icon-accent-color, #00edff)"
    d="M48.977 10.023A22.867 22.867 0 0 1 53 23c0 12.302-20.724 32.577-21.606 33.435l-1.328 1.289c2.48 2.697 4.293 4.47 4.54 4.71L36 63.789l1.394-1.353C38.275 61.577 59 41.302 59 29a22.99 22.99 0 0 0-10.023-18.977Z" />
  <path fill="#fff"
    d="M30 4a19.021 19.021 0 0 0-19 19c0 8.163 12.629 22.696 19 29.178C36.371 45.696 49 31.163 49 23A19.021 19.021 0 0 0 30 4Z" />
  <path fill="var(--icon-color, #414042)"
    d="m30 57.788-1.394-1.353C27.724 55.577 7 35.302 7 23a23 23 0 0 1 46 0c0 12.302-20.724 32.577-21.606 33.435L30 57.788ZM30 4a19.021 19.021 0 0 0-19 19c0 8.163 12.629 22.696 19 29.178C36.371 45.696 49 31.163 49 23A19.021 19.021 0 0 0 30 4Z" />
  <path fill="var(--icon-color, #414042)"
    d="M30 30a8 8 0 1 1 8-8 8.01 8.01 0 0 1-8 8Zm0-12a4 4 0 1 0 0 8 4 4 0 0 0 0-8Z" />
</svg>