<svg xmlns="http://www.w3.org/2000/svg" fill="none" viewBox="0 0 23 23">
  <g fill="var(--icon-accent-color)">
    <path d="m21.465 19.432-3.814-3.814a7.906 7.906 0 1 0-2.032 2.033l3.813 3.814a1.437 1.437 0 1 0 2.033-2.033Z" />
    <path
      d="M20.449 22.604a2.15 2.15 0 0 1-1.525-.631l-3.405-3.405a8.625 8.625 0 1 1 3.05-3.05l3.405 3.406a2.156 2.156 0 0 1-1.525 3.68Zm-4.745-5.884 4.237 4.237a.719.719 0 1 0 1.016-1.017l-4.237-4.237.34-.493a7.188 7.188 0 1 0-1.85 1.85l.494-.34Z" />
  </g>
  <path fill="#fff"
    d="m19.308 17.276-7.115-7.116a1.437 1.437 0 1 0-2.033 2.033l7.116 7.115a1.438 1.438 0 0 0 2.032-2.032Z" />
  <path fill="var(--icon-color)"
    d="M18.292 20.447a2.14 2.14 0 0 1-1.525-.63L9.652 12.7a2.156 2.156 0 0 1 3.05-3.049l7.115 7.115a2.155 2.155 0 0 1-1.525 3.68Zm-7.115-9.987a.719.719 0 0 0-.509 1.225l7.116 7.115a.74.74 0 0 0 1.016 0 .723.723 0 0 0 0-1.016l-7.115-7.115a.712.712 0 0 0-.508-.21Z" />
  <path fill="#fff" d="M14.575 14.575A7.906 7.906 0 1 0 3.395 3.394a7.906 7.906 0 0 0 11.18 11.18Z" />
  <path fill="var(--icon-color)"
    d="M8.984 17.61a8.625 8.625 0 1 1 0-17.251 8.625 8.625 0 0 1 0 17.25Zm0-15.813a7.188 7.188 0 0 0-2.75 13.83 7.187 7.187 0 0 0 7.833-11.725 7.14 7.14 0 0 0-5.083-2.105Z" />
</svg>