<svg xmlns="http://www.w3.org/2000/svg" fill="none" viewBox="0 0 29 28">
  <path fill="var(--icon-accent-color, #00edff)"
    d="M12.685 5.278c1.362-2.37 4.768-2.37 6.13 0l9.706 16.889c1.362 2.37-.341 5.333-3.065 5.333H6.044c-2.724 0-4.427-2.963-3.065-5.333l9.706-16.89Z" />
  <path fill="var(--icon-accent-color, #00edff)" fill-rule="evenodd"
    d="M26.787 23.163 17.08 6.274a1.531 1.531 0 0 0-2.662 0l-9.706 16.89c-.603 1.05.16 2.336 1.331 2.336h19.412c1.17 0 1.934-1.286 1.33-2.337ZM18.814 5.278c-1.362-2.37-4.768-2.37-6.13 0L2.98 22.167c-1.362 2.37.341 5.333 3.065 5.333h19.412c2.724 0 4.427-2.963 3.065-5.333l-9.706-16.89Z"
    clip-rule="evenodd" />
  <path fill="#fff"
    d="M10.685 2.278c1.362-2.37 4.768-2.37 6.13 0l9.706 16.889c1.362 2.37-.341 5.333-3.065 5.333H4.044C1.32 24.5-.383 21.537.98 19.167l9.706-16.89Z" />
  <path fill="var(--icon-color, #414042)" fill-rule="evenodd"
    d="M24.787 20.163 15.08 3.274a1.531 1.531 0 0 0-2.662 0l-9.706 16.89c-.603 1.05.16 2.336 1.331 2.336h19.412c1.17 0 1.934-1.286 1.33-2.337ZM16.814 2.278c-1.362-2.37-4.768-2.37-6.13 0L.98 19.167c-1.362 2.37.341 5.333 3.065 5.333h19.412c2.724 0 4.427-2.963 3.065-5.333l-9.706-16.89Z"
    clip-rule="evenodd" />
  <path fill="var(--icon-color, #414042)"
    d="M13.5 12.851c.552 0 1 .457 1 1.021v5.107a1.01 1.01 0 0 1-1 1.021c-.552 0-1-.457-1-1.021v-5.107a1.01 1.01 0 0 1 1-1.02ZM15 9.532c0 .846-.672 1.532-1.5 1.532S12 10.378 12 9.532 12.672 8 13.5 8s1.5.686 1.5 1.532Z" />
</svg>