<svg xmlns="http://www.w3.org/2000/svg" fill="none" viewBox="0 0 20 20">
  <path fill="var(--icon-accent-color, #00edff)"
    d="m10.46 11.538-5.737 5.766-1.097-1.1 5.748-5.78L2.799 3.79l1.096-1.099 6.67 6.723 5.874-5.932 1.097 1.1-5.885 5.951 6.981 7-1.096 1.099-7.076-7.094Z" />
  <path fill="var(--icon-color, #414042)"
    d="m9.414 10.598-6.95 6.968-1.097-1.1 6.95-6.968-.024-.024.031-.031-6.957-6.975 1.097-1.1L9.42 8.343l6.95-6.968 1.098 1.1-6.95 6.968.023.024-.03.03 6.956 6.976-1.096 1.1-6.958-6.975Z" />
</svg>