<svg width="800" height="600" viewBox="0 0 800 600" fill="none" xmlns="http://www.w3.org/2000/svg">
<g clip-path="url(#clip0_1118_359)">
<rect width="659" height="460" fill="#FFFEFE"/>
<path d="M61.5 64.5H105.3V73.2H87.9V128.4H78.8V73.2H61.5V64.5Z" fill="black" fill-opacity="0.08"/>
<path d="M160 98.3H124.4V128.4H115.3V64.5H124.4V89.6H160V64.5H169.1V128.4H160V98.3Z" fill="black" fill-opacity="0.08"/>
<path d="M216.2 89.6V98.3H195.2V119.7H223.5V128.4H186V64.5H222.5V73.2H195.1V89.6H216.2Z" fill="black" fill-opacity="0.08"/>
<path d="M293 63.6C302.1 63.6 310.8 67.3 316.4 73.5L310.3 79.5C306.6 75.4 299.9 72.3 293.1 72.3C280 72.3 269.9 82.7 269.9 96.5C269.9 110.9 280.3 120.7 293.9 120.7C302.5 120.7 308.7 116 312.2 111.7L318.7 117.5C313.2 124.5 303.7 129.4 293.9 129.4C274.8 129.4 260.8 115.4 260.8 96.5C260.7 78 274.6 63.6 293 63.6Z" fill="black" fill-opacity="0.08"/>
<path d="M359.2 89.6V98.3H338.2V119.7H366.5V128.4H329.1V64.5H365.6V73.2H338.2V89.6H359.2Z" fill="black" fill-opacity="0.08"/>
<path d="M388 81.5V128.4H378.9V64.5H385.3L423.6 111.4V64.5H432.7V128.4H426.3L388 81.5Z" fill="black" fill-opacity="0.08"/>
<path d="M442.7 64.5H486.5V73.2H469.2V128.4H460.1V73.2H442.8V64.5H442.7Z" fill="black" fill-opacity="0.08"/>
<path d="M526.7 89.6V98.3H505.7V119.7H534V128.4H496.6V64.5H533.1V73.2H505.7V89.6H526.7Z" fill="black" fill-opacity="0.08"/>
<path d="M555.4 98.3V128.4H546.3V64.5H568.7C574.5 64.5 578.2 65.9 581.1 68.2C584.9 71.3 587.4 76 587.4 81.3C587.4 86.6 584.9 91.3 581.1 94.4C579.1 96 576.8 97.2 573.6 97.8L596.5 128.3H585.5L562.8 98.2H555.4V98.3ZM568.2 89.6C572.3 89.6 574.4 88.7 575.9 87.2C577.4 85.7 578.3 83.6 578.3 81.4C578.3 79.2 577.4 77 575.9 75.6C574.4 74.1 572.3 73.2 568.2 73.2H555.4V89.6H568.2Z" fill="black" fill-opacity="0.08"/>
<path d="M98.4 175.6V184.3H77.4V214.4H68.3V150.5H104.8V159.2H77.4V175.6H98.4Z" fill="black" fill-opacity="0.08"/>
<path d="M141.3 149.6C159.4 149.6 173.2 163.8 173.2 182.5C173.2 201.1 159.3 215.4 141.3 215.4C123.2 215.4 109.4 201.2 109.4 182.5C109.4 163.8 123.3 149.6 141.3 149.6ZM141.3 206.6C154.4 206.6 164.1 196.3 164.1 182.4C164.1 168.6 154.3 158.2 141.3 158.2C128.2 158.2 118.5 168.6 118.5 182.4C118.5 196.3 128.3 206.6 141.3 206.6Z" fill="black" fill-opacity="0.08"/>
<path d="M194.3 184.3V214.4H185.2V150.5H207.6C213.4 150.5 217.1 151.9 220 154.2C223.8 157.3 226.3 162 226.3 167.3C226.3 172.6 223.8 177.3 220 180.4C218 182 215.7 183.2 212.5 183.8L235.4 214.3H224.4L201.7 184.2H194.3V184.3ZM207 175.6C211.1 175.6 213.2 174.7 214.7 173.2C216.2 171.7 217.1 169.6 217.1 167.4C217.1 165.1 216.2 163 214.7 161.6C213.2 160.1 211.1 159.2 207 159.2H194.2V175.6H207Z" fill="black" fill-opacity="0.08"/>
<path d="M273.1 214.4V150.5H292.3C302.4 150.5 309 152.7 314.2 156.5C322 162.3 327 171.8 327 182.4C327 193 322.2 202.5 314.3 208.3C309.1 212.1 302.4 214.3 292.3 214.3H273.1V214.4ZM310 164.6C306 161.1 300.7 159.2 291.7 159.2H282.1V205.7H291.7C300.6 205.7 305.9 203.8 310 200.3C314.8 196 317.8 189.5 317.8 182.4C317.8 175.3 314.9 168.9 310 164.6Z" fill="black" fill-opacity="0.08"/>
<path d="M338.8 150.5H347.9V214.4H338.8V150.5Z" fill="black" fill-opacity="0.08"/>
<path d="M417.7 203.4C412.2 210.3 402.7 215.3 392.9 215.3C373.8 215.3 359.8 201.3 359.8 182.4C359.8 164 373.7 149.5 392.1 149.5C401.2 149.5 409.9 153.2 415.5 159.4L409.4 165.4C405.7 161.3 399 158.2 392.2 158.2C379.1 158.2 369 168.6 369 182.4C369 196.8 379.4 206.6 393 206.6C399.8 206.6 405.3 204 408.7 200.7V184.3H390.4V175.6H417.8V203.4H417.7Z" fill="black" fill-opacity="0.08"/>
<path d="M432.3 150.5H441.4V214.4H432.3V150.5Z" fill="black" fill-opacity="0.08"/>
<path d="M451.5 150.5H495.3V159.2H478V214.4H468.9V159.2H451.6V150.5H451.5Z" fill="black" fill-opacity="0.08"/>
<path d="M535.2 198H508.3L501.6 214.4H492.1L518.6 150.5H525L551.5 214.4H542L535.2 198ZM511.9 189.3H531.6L521.7 165.6L511.9 189.3Z" fill="black" fill-opacity="0.08"/>
<path d="M569.7 205.7H598V214.4H560.6V150.5H569.7V205.7Z" fill="black" fill-opacity="0.08"/>
<path d="M113 270.2H77.4V300.3H68.3V236.4H77.4V261.5H113V236.4H122.1V300.3H113V270.2Z" fill="black" fill-opacity="0.08"/>
<path d="M141.9 292.9C137.8 288.4 135.2 282.5 135.2 273.9V236.5H144.3V274.4C144.3 280.4 145.8 284.2 148.3 287C151.5 290.6 156.2 292.7 161.6 292.7C167 292.7 171.7 290.6 174.9 287C177.5 284.2 178.9 280.4 178.9 274.4V236.5H188V273.9C188 282.5 185.4 288.4 181.3 292.9C176.5 298.1 169.3 301.3 161.5 301.3C153.7 301.3 146.7 298.1 141.9 292.9Z" fill="black" fill-opacity="0.08"/>
<path d="M233.4 286.7H227L208.3 257.4V300.4H199.2V236.5H205.6L230.2 275.5L254.8 236.5H261.2V300.4H252.1V257.4L233.4 286.7Z" fill="black" fill-opacity="0.08"/>
<path d="M312.5 283.9H285.6L278.9 300.3H269.4L295.9 236.4H302.3L328.8 300.3H319.3L312.5 283.9ZM289.3 275.3H309L299.1 251.6L289.3 275.3Z" fill="black" fill-opacity="0.08"/>
<path d="M346.1 253.5V300.4H337V236.5H343.4L381.7 283.4V236.5H390.8V300.4H384.4L346.1 253.5Z" fill="black" fill-opacity="0.08"/>
<path d="M406.8 236.5H415.9V300.4H406.8V236.5Z" fill="black" fill-opacity="0.08"/>
<path d="M429.5 236.5H473.3V245.2H456V300.4H446.9V245.2H429.6V236.5H429.5Z" fill="black" fill-opacity="0.08"/>
<path d="M484.9 236.5H494V300.4H484.9V236.5Z" fill="black" fill-opacity="0.08"/>
<path d="M540.6 261.6V270.3H519.6V291.7H547.9V300.4H510.5V236.5H547V245.2H519.6V261.6H540.6Z" fill="black" fill-opacity="0.08"/>
<path d="M560.6 284.4C564.3 289 569.6 292.6 576.2 292.6C582.1 292.6 587.3 288.8 587.3 283C587.3 273.2 573.8 272.1 565.3 266.6C560.7 263.6 557.2 259.2 557.2 252.5C557.2 243.2 565.4 235.5 576.5 235.5C584.6 235.5 590.3 239.1 593.7 241.9L588.3 248.6C584.8 245.7 580.9 244.2 576.9 244.2C571.6 244.2 566.3 247.2 566.3 252.8C566.3 260.9 579.9 262.7 588.1 268.1C592.4 270.9 596.4 275.4 596.4 282.7C596.4 293.9 587.7 301.2 576.6 301.2C567.8 301.2 559.9 297.4 554.2 290.5L560.6 284.4Z" fill="black" fill-opacity="0.08"/>
<path d="M131.3 358V386.3H122.2V322.4H146.4C152.6 322.4 156.6 324 159.7 326.6C163.5 329.9 166 334.7 166 340.2C166 345.7 163.5 350.5 159.7 353.8C156.6 356.4 152.6 358 146.4 358H131.3ZM145.9 349.4C150.3 349.4 152.7 348.3 154.3 346.6C155.9 345 156.9 342.8 156.9 340.3C156.9 337.8 155.9 335.6 154.3 334C152.7 332.3 150.3 331.2 145.9 331.2H131.3V349.5H145.9V349.4Z" fill="black" fill-opacity="0.08"/>
<path d="M183.8 356.2V386.3H174.7V322.4H197C202.8 322.4 206.5 323.8 209.4 326.1C213.2 329.2 215.7 333.9 215.7 339.2C215.7 344.5 213.2 349.2 209.4 352.3C207.4 353.9 205.1 355.1 201.9 355.7L224.8 386.2H213.8L191.1 356.1H183.8V356.2ZM196.5 347.5C200.6 347.5 202.7 346.6 204.2 345.1C205.7 343.6 206.6 341.5 206.6 339.3C206.6 337 205.7 334.9 204.2 333.5C202.7 332 200.6 331.1 196.5 331.1H183.7V347.5H196.5Z" fill="black" fill-opacity="0.08"/>
<path d="M232.1 322.4H241.2V386.3H232.1V322.4Z" fill="black" fill-opacity="0.08"/>
<path d="M261.9 339.4V386.3H252.8V322.4H259.2L297.5 369.3V322.4H306.6V386.3H300.2L261.9 339.4Z" fill="black" fill-opacity="0.08"/>
<path d="M347 321.5C356.1 321.5 364.8 325.2 370.4 331.4L364.3 337.4C360.6 333.3 353.9 330.2 347.1 330.2C334 330.2 323.9 340.6 323.9 354.4C323.9 368.8 334.3 378.6 347.9 378.6C356.5 378.6 362.7 373.9 366.2 369.6L372.7 375.4C367.2 382.4 357.7 387.3 347.9 387.3C328.8 387.3 314.8 373.3 314.8 354.4C314.7 336 328.6 321.5 347 321.5Z" fill="black" fill-opacity="0.08"/>
<path d="M410.6 347.5V356.2H389.6V377.6H417.9V386.3H380.5V322.4H417V331.1H389.6V347.5H410.6Z" fill="black" fill-opacity="0.08"/>
<path d="M424.4 322.4H468.2V331.1H450.9V386.3H441.8V331.1H424.5V322.4H424.4Z" fill="black" fill-opacity="0.08"/>
<path d="M501.5 321.5C519.6 321.5 533.4 335.7 533.4 354.4C533.4 373 519.5 387.3 501.5 387.3C483.4 387.3 469.6 373.1 469.6 354.4C469.6 335.8 483.5 321.5 501.5 321.5ZM501.5 378.6C514.6 378.6 524.3 368.3 524.3 354.4C524.3 340.6 514.5 330.2 501.5 330.2C488.5 330.2 478.7 340.6 478.7 354.4C478.7 368.3 488.5 378.6 501.5 378.6Z" fill="black" fill-opacity="0.08"/>
<path d="M550.4 339.4V386.3H541.3V322.4H547.7L586 369.3V322.4H595.1V386.3H588.7L550.4 339.4Z" fill="black" fill-opacity="0.08"/>
<path d="M96 361.5C94.7 362.7 92.3 364.4 88.6 364.4C83.6 364.4 76.8 360.5 76.8 352.8C76.8 345.4 83.1 341.2 88.1 341.2C90 341.2 92.1 341.6 94 342.9V341.8H99.7V354.8C99.7 356.5 99.9 357.2 100.2 357.8C100.6 358.5 101.3 359 102.5 359C105.7 359 106.4 354.5 106.4 351.4C106.4 341.7 98.3 334.9 89.3 334.9C79.6 334.9 71.8 342.8 71.8 352.7C71.8 362.5 79.5 370.5 89.1 370.5C93.1 370.5 96.9 369.3 99.8 367L103.1 371.9C99.4 374.7 94.7 376.4 89.4 376.4C76.2 376.4 65.8 365.8 65.8 352.6C65.8 339.5 76 328.8 89.2 328.8C101.4 328.8 112.3 338.3 112.3 351.2C112.3 358.2 109.2 364.2 102.3 364.2C99.9 364.3 97.5 363.2 96 361.5ZM88.9 358.9C91 358.9 92.9 358 93.8 356.8C93.7 356.1 93.7 355.3 93.7 354.4V348.4C92.7 347.3 90.9 346.5 88.9 346.5C85.2 346.5 82.7 349.3 82.7 352.7C82.7 356.1 85.3 358.9 88.9 358.9Z" fill="black" fill-opacity="0.08"/>
<path d="M61.5 64.5H105.3V73.2H87.9V128.4H78.8V73.2H61.5V64.5Z" fill="black" fill-opacity="0.08"/>
<path d="M160 98.3H124.4V128.4H115.3V64.5H124.4V89.6H160V64.5H169.1V128.4H160V98.3Z" fill="black" fill-opacity="0.08"/>
<path d="M216.2 89.6V98.3H195.2V119.7H223.5V128.4H186V64.5H222.5V73.2H195.1V89.6H216.2Z" fill="black" fill-opacity="0.08"/>
<path d="M293 63.6C302.1 63.6 310.8 67.3 316.4 73.5L310.3 79.5C306.6 75.4 299.9 72.3 293.1 72.3C280 72.3 269.9 82.7 269.9 96.5C269.9 110.9 280.3 120.7 293.9 120.7C302.5 120.7 308.7 116 312.2 111.7L318.7 117.5C313.2 124.5 303.7 129.4 293.9 129.4C274.8 129.4 260.8 115.4 260.8 96.5C260.7 78 274.6 63.6 293 63.6Z" fill="black" fill-opacity="0.08"/>
<path d="M359.2 89.6V98.3H338.2V119.7H366.5V128.4H329.1V64.5H365.6V73.2H338.2V89.6H359.2Z" fill="black" fill-opacity="0.08"/>
<path d="M388 81.5V128.4H378.9V64.5H385.3L423.6 111.4V64.5H432.7V128.4H426.3L388 81.5Z" fill="black" fill-opacity="0.08"/>
<path d="M442.7 64.5H486.5V73.2H469.2V128.4H460.1V73.2H442.8V64.5H442.7Z" fill="black" fill-opacity="0.08"/>
<path d="M526.7 89.6V98.3H505.7V119.7H534V128.4H496.6V64.5H533.1V73.2H505.7V89.6H526.7Z" fill="black" fill-opacity="0.08"/>
<path d="M555.4 98.3V128.4H546.3V64.5H568.7C574.5 64.5 578.2 65.9 581.1 68.2C584.9 71.3 587.4 76 587.4 81.3C587.4 86.6 584.9 91.3 581.1 94.4C579.1 96 576.8 97.2 573.6 97.8L596.5 128.3H585.5L562.8 98.2H555.4V98.3ZM568.2 89.6C572.3 89.6 574.4 88.7 575.9 87.2C577.4 85.7 578.3 83.6 578.3 81.4C578.3 79.2 577.4 77 575.9 75.6C574.4 74.1 572.3 73.2 568.2 73.2H555.4V89.6H568.2Z" fill="black" fill-opacity="0.08"/>
<path d="M98.4 175.6V184.3H77.4V214.4H68.3V150.5H104.8V159.2H77.4V175.6H98.4Z" fill="black" fill-opacity="0.08"/>
<path d="M141.3 149.6C159.4 149.6 173.2 163.8 173.2 182.5C173.2 201.1 159.3 215.4 141.3 215.4C123.2 215.4 109.4 201.2 109.4 182.5C109.4 163.8 123.3 149.6 141.3 149.6ZM141.3 206.6C154.4 206.6 164.1 196.3 164.1 182.4C164.1 168.6 154.3 158.2 141.3 158.2C128.2 158.2 118.5 168.6 118.5 182.4C118.5 196.3 128.3 206.6 141.3 206.6Z" fill="black" fill-opacity="0.08"/>
<path d="M194.3 184.3V214.4H185.2V150.5H207.6C213.4 150.5 217.1 151.9 220 154.2C223.8 157.3 226.3 162 226.3 167.3C226.3 172.6 223.8 177.3 220 180.4C218 182 215.7 183.2 212.5 183.8L235.4 214.3H224.4L201.7 184.2H194.3V184.3ZM207 175.6C211.1 175.6 213.2 174.7 214.7 173.2C216.2 171.7 217.1 169.6 217.1 167.4C217.1 165.1 216.2 163 214.7 161.6C213.2 160.1 211.1 159.2 207 159.2H194.2V175.6H207Z" fill="black" fill-opacity="0.08"/>
<path d="M273.1 214.4V150.5H292.3C302.4 150.5 309 152.7 314.2 156.5C322 162.3 327 171.8 327 182.4C327 193 322.2 202.5 314.3 208.3C309.1 212.1 302.4 214.3 292.3 214.3H273.1V214.4ZM310 164.6C306 161.1 300.7 159.2 291.7 159.2H282.1V205.7H291.7C300.6 205.7 305.9 203.8 310 200.3C314.8 196 317.8 189.5 317.8 182.4C317.8 175.3 314.9 168.9 310 164.6Z" fill="black" fill-opacity="0.08"/>
<path d="M338.8 150.5H347.9V214.4H338.8V150.5Z" fill="black" fill-opacity="0.08"/>
<path d="M417.7 203.4C412.2 210.3 402.7 215.3 392.9 215.3C373.8 215.3 359.8 201.3 359.8 182.4C359.8 164 373.7 149.5 392.1 149.5C401.2 149.5 409.9 153.2 415.5 159.4L409.4 165.4C405.7 161.3 399 158.2 392.2 158.2C379.1 158.2 369 168.6 369 182.4C369 196.8 379.4 206.6 393 206.6C399.8 206.6 405.3 204 408.7 200.7V184.3H390.4V175.6H417.8V203.4H417.7Z" fill="black" fill-opacity="0.08"/>
<path d="M432.3 150.5H441.4V214.4H432.3V150.5Z" fill="black" fill-opacity="0.08"/>
<path d="M451.5 150.5H495.3V159.2H478V214.4H468.9V159.2H451.6V150.5H451.5Z" fill="black" fill-opacity="0.08"/>
<path d="M535.2 198H508.3L501.6 214.4H492.1L518.6 150.5H525L551.5 214.4H542L535.2 198ZM511.9 189.3H531.6L521.7 165.6L511.9 189.3Z" fill="black" fill-opacity="0.08"/>
<path d="M569.7 205.7H598V214.4H560.6V150.5H569.7V205.7Z" fill="black" fill-opacity="0.08"/>
<path d="M113 270.2H77.4V300.3H68.3V236.4H77.4V261.5H113V236.4H122.1V300.3H113V270.2Z" fill="black" fill-opacity="0.08"/>
<path d="M141.9 292.9C137.8 288.4 135.2 282.5 135.2 273.9V236.5H144.3V274.4C144.3 280.4 145.8 284.2 148.3 287C151.5 290.6 156.2 292.7 161.6 292.7C167 292.7 171.7 290.6 174.9 287C177.5 284.2 178.9 280.4 178.9 274.4V236.5H188V273.9C188 282.5 185.4 288.4 181.3 292.9C176.5 298.1 169.3 301.3 161.5 301.3C153.7 301.3 146.7 298.1 141.9 292.9Z" fill="black" fill-opacity="0.08"/>
<path d="M233.4 286.7H227L208.3 257.4V300.4H199.2V236.5H205.6L230.2 275.5L254.8 236.5H261.2V300.4H252.1V257.4L233.4 286.7Z" fill="black" fill-opacity="0.08"/>
<path d="M312.5 283.9H285.6L278.9 300.3H269.4L295.9 236.4H302.3L328.8 300.3H319.3L312.5 283.9ZM289.3 275.3H309L299.1 251.6L289.3 275.3Z" fill="black" fill-opacity="0.08"/>
<path d="M346.1 253.5V300.4H337V236.5H343.4L381.7 283.4V236.5H390.8V300.4H384.4L346.1 253.5Z" fill="black" fill-opacity="0.08"/>
<path d="M406.8 236.5H415.9V300.4H406.8V236.5Z" fill="black" fill-opacity="0.08"/>
<path d="M429.5 236.5H473.3V245.2H456V300.4H446.9V245.2H429.6V236.5H429.5Z" fill="black" fill-opacity="0.08"/>
<path d="M484.9 236.5H494V300.4H484.9V236.5Z" fill="black" fill-opacity="0.08"/>
<path d="M540.6 261.6V270.3H519.6V291.7H547.9V300.4H510.5V236.5H547V245.2H519.6V261.6H540.6Z" fill="black" fill-opacity="0.08"/>
<path d="M560.6 284.4C564.3 289 569.6 292.6 576.2 292.6C582.1 292.6 587.3 288.8 587.3 283C587.3 273.2 573.8 272.1 565.3 266.6C560.7 263.6 557.2 259.2 557.2 252.5C557.2 243.2 565.4 235.5 576.5 235.5C584.6 235.5 590.3 239.1 593.7 241.9L588.3 248.6C584.8 245.7 580.9 244.2 576.9 244.2C571.6 244.2 566.3 247.2 566.3 252.8C566.3 260.9 579.9 262.7 588.1 268.1C592.4 270.9 596.4 275.4 596.4 282.7C596.4 293.9 587.7 301.2 576.6 301.2C567.8 301.2 559.9 297.4 554.2 290.5L560.6 284.4Z" fill="black" fill-opacity="0.08"/>
<path d="M131.3 358V386.3H122.2V322.4H146.4C152.6 322.4 156.6 324 159.7 326.6C163.5 329.9 166 334.7 166 340.2C166 345.7 163.5 350.5 159.7 353.8C156.6 356.4 152.6 358 146.4 358H131.3ZM145.9 349.4C150.3 349.4 152.7 348.3 154.3 346.6C155.9 345 156.9 342.8 156.9 340.3C156.9 337.8 155.9 335.6 154.3 334C152.7 332.3 150.3 331.2 145.9 331.2H131.3V349.5H145.9V349.4Z" fill="black" fill-opacity="0.08"/>
<path d="M183.8 356.2V386.3H174.7V322.4H197C202.8 322.4 206.5 323.8 209.4 326.1C213.2 329.2 215.7 333.9 215.7 339.2C215.7 344.5 213.2 349.2 209.4 352.3C207.4 353.9 205.1 355.1 201.9 355.7L224.8 386.2H213.8L191.1 356.1H183.8V356.2ZM196.5 347.5C200.6 347.5 202.7 346.6 204.2 345.1C205.7 343.6 206.6 341.5 206.6 339.3C206.6 337 205.7 334.9 204.2 333.5C202.7 332 200.6 331.1 196.5 331.1H183.7V347.5H196.5Z" fill="black" fill-opacity="0.08"/>
<path d="M232.1 322.4H241.2V386.3H232.1V322.4Z" fill="black" fill-opacity="0.08"/>
<path d="M261.9 339.4V386.3H252.8V322.4H259.2L297.5 369.3V322.4H306.6V386.3H300.2L261.9 339.4Z" fill="black" fill-opacity="0.08"/>
<path d="M347 321.5C356.1 321.5 364.8 325.2 370.4 331.4L364.3 337.4C360.6 333.3 353.9 330.2 347.1 330.2C334 330.2 323.9 340.6 323.9 354.4C323.9 368.8 334.3 378.6 347.9 378.6C356.5 378.6 362.7 373.9 366.2 369.6L372.7 375.4C367.2 382.4 357.7 387.3 347.9 387.3C328.8 387.3 314.8 373.3 314.8 354.4C314.7 336 328.6 321.5 347 321.5Z" fill="black" fill-opacity="0.08"/>
<path d="M410.6 347.5V356.2H389.6V377.6H417.9V386.3H380.5V322.4H417V331.1H389.6V347.5H410.6Z" fill="black" fill-opacity="0.08"/>
<path d="M424.4 322.4H468.2V331.1H450.9V386.3H441.8V331.1H424.5V322.4H424.4Z" fill="black" fill-opacity="0.08"/>
<path d="M501.5 321.5C519.6 321.5 533.4 335.7 533.4 354.4C533.4 373 519.5 387.3 501.5 387.3C483.4 387.3 469.6 373.1 469.6 354.4C469.6 335.8 483.5 321.5 501.5 321.5ZM501.5 378.6C514.6 378.6 524.3 368.3 524.3 354.4C524.3 340.6 514.5 330.2 501.5 330.2C488.5 330.2 478.7 340.6 478.7 354.4C478.7 368.3 488.5 378.6 501.5 378.6Z" fill="black" fill-opacity="0.08"/>
<path d="M550.4 339.4V386.3H541.3V322.4H547.7L586 369.3V322.4H595.1V386.3H588.7L550.4 339.4Z" fill="black" fill-opacity="0.08"/>
<path d="M96 361.5C94.7 362.7 92.3 364.4 88.6 364.4C83.6 364.4 76.8 360.5 76.8 352.8C76.8 345.4 83.1 341.2 88.1 341.2C90 341.2 92.1 341.6 94 342.9V341.8H99.7V354.8C99.7 356.5 99.9 357.2 100.2 357.8C100.6 358.5 101.3 359 102.5 359C105.7 359 106.4 354.5 106.4 351.4C106.4 341.7 98.3 334.9 89.3 334.9C79.6 334.9 71.8 342.8 71.8 352.7C71.8 362.5 79.5 370.5 89.1 370.5C93.1 370.5 96.9 369.3 99.8 367L103.1 371.9C99.4 374.7 94.7 376.4 89.4 376.4C76.2 376.4 65.8 365.8 65.8 352.6C65.8 339.5 76 328.8 89.2 328.8C101.4 328.8 112.3 338.3 112.3 351.2C112.3 358.2 109.2 364.2 102.3 364.2C99.9 364.3 97.5 363.2 96 361.5ZM88.9 358.9C91 358.9 92.9 358 93.8 356.8C93.7 356.1 93.7 355.3 93.7 354.4V348.4C92.7 347.3 90.9 346.5 88.9 346.5C85.2 346.5 82.7 349.3 82.7 352.7C82.7 356.1 85.3 358.9 88.9 358.9Z" fill="black" fill-opacity="0.08"/>
<path d="M660 0V460H0L140 600H800V140L660 0Z" fill="url(#paint0_diamond_1118_359)"/>
<path d="M293 63.6C302.1 63.6 310.8 67.3 316.4 73.5L310.3 79.5C306.6 75.4 299.9 72.3 293.1 72.3C280 72.3 269.9 82.7 269.9 96.5C269.9 110.9 280.3 120.7 293.9 120.7C302.5 120.7 308.7 116 312.2 111.7L318.7 117.5C313.2 124.5 303.7 129.4 293.9 129.4C274.8 129.4 260.8 115.4 260.8 96.5C260.7 78 274.6 63.6 293 63.6Z" fill="black"/>
<path d="M388 81.5V128.4H378.9V64.5H385.3L423.6 111.4V64.5H432.7V128.4H426.3L388 81.5Z" fill="black"/>
<path d="M452.7 64.5H496.5V73.2H479.2V128.4H470.1V73.2H452.8V64.5H452.7Z" fill="black"/>
<path d="M98.4 175.6V184.3H77.4V214.4H68.3V150.5H104.8V159.2H77.4V175.6H98.4Z" fill="black"/>
<path d="M361.1 111.5H334.2L327.5 127.9H318L344.5 64H350.9L377.4 127.9H367.9L361.1 111.5ZM337.8 102.8H357.5L347.6 79.1L337.8 102.8Z" fill="black"/>
<path d="M273.1 214.4V150.5H292.3C302.4 150.5 309 152.7 314.2 156.5C322 162.3 327 171.8 327 182.4C327 193 322.2 202.5 314.3 208.3C309.1 212.1 302.4 214.3 292.3 214.3H273.1V214.4ZM310 164.6C306 161.1 300.7 159.2 291.7 159.2H282.1V205.7H291.7C300.6 205.7 305.9 203.8 310 200.3C314.8 196 317.8 189.5 317.8 182.4C317.8 175.3 314.9 168.9 310 164.6Z" fill="black"/>
<path d="M406.8 236.5H415.9V300.4H406.8V236.5Z" fill="black"/>
<path d="M429.5 236.5H473.3V245.2H456V300.4H446.9V245.2H429.6V236.5H429.5Z" fill="black"/>
<path d="M208.1 168V214.9H199V151H205.4L243.7 197.9V151H252.8V214.9H246.4L208.1 168Z" fill="black"/>
<path d="M142 150H151.1V213.9H142V150Z" fill="black"/>
<path d="M498.778 301.568C497.027 301.568 495.523 300.941 494.268 299.686C493.014 298.431 492.386 296.928 492.386 295.176C492.386 293.424 493.014 291.921 494.268 290.666C495.523 289.411 497.027 288.784 498.778 288.784C500.53 288.784 502.034 289.411 503.288 290.666C504.543 291.921 505.17 293.424 505.17 295.176C505.17 296.336 504.875 297.402 504.283 298.372C503.714 299.343 502.945 300.124 501.974 300.716C501.027 301.284 499.962 301.568 498.778 301.568ZM526.317 301.568C524.566 301.568 523.062 300.941 521.808 299.686C520.553 298.431 519.925 296.928 519.925 295.176C519.925 293.424 520.553 291.921 521.808 290.666C523.062 289.411 524.566 288.784 526.317 288.784C528.069 288.784 529.573 289.411 530.827 290.666C532.082 291.921 532.71 293.424 532.71 295.176C532.71 296.336 532.414 297.402 531.822 298.372C531.254 299.343 530.484 300.124 529.513 300.716C528.567 301.284 527.501 301.568 526.317 301.568ZM553.857 301.568C552.105 301.568 550.601 300.941 549.347 299.686C548.092 298.431 547.464 296.928 547.464 295.176C547.464 293.424 548.092 291.921 549.347 290.666C550.601 289.411 552.105 288.784 553.857 288.784C555.608 288.784 557.112 289.411 558.366 290.666C559.621 291.921 560.249 293.424 560.249 295.176C560.249 296.336 559.953 297.402 559.361 298.372C558.793 299.343 558.023 300.124 557.053 300.716C556.106 301.284 555.04 301.568 553.857 301.568Z" fill="black"/>
<path d="M449.057 64.2727V70.6648C449.057 72.6061 448.702 74.6776 447.991 76.8793C447.305 79.0573 446.287 81.1761 444.938 83.2358C443.612 85.2718 442.002 87.0473 440.108 88.5625L435.562 84.8693C437.054 82.7386 438.344 80.5251 439.433 78.2287C440.546 75.9086 441.102 73.4347 441.102 70.8068V64.2727H449.057Z" fill="black"/>
</g>
<defs>
<radialGradient id="paint0_diamond_1118_359" cx="0" cy="0" r="1" gradientUnits="userSpaceOnUse" gradientTransform="translate(400 424) rotate(34.4814) scale(652.667 870.223)">
<stop stop-color="#00EDFF"/>
<stop offset="0.840214" stop-color="#00EDFF" stop-opacity="0"/>
</radialGradient>
<clipPath id="clip0_1118_359">
<rect width="800" height="600" fill="white"/>
</clipPath>
</defs>
</svg>
