<svg width="24" height="24" fill="none" xmlns="http://www.w3.org/2000/svg"><path fill-rule="evenodd" clip-rule="evenodd" d="M3 1a3 3 0 0 0-3 3v12a3 3 0 0 0 3 3h4.876l3.353 4.065a1 1 0 0 0 1.543 0L16.123 19H21a3 3 0 0 0 3-3V4a3 3 0 0 0-3-3H3Zm5.819 16H3a1 1 0 0 1-1-1V4a1 1 0 0 1 1-1h18a1 1 0 0 1 1 1v12a1 1 0 0 1-1 1h-5.819L12 20.857 8.819 17Z" fill="currentColor"/><path d="M10.011 6.313v-1.29H6v1.29h4.011Zm-2.83 8.82c.935 0 1.69-.299 2.143-.8.248.582.88.813 2.075.678v-1.262c-.454.054-.632-.068-.632-.475v-3.067c0-1.642-1.044-2.456-2.775-2.456-1.594 0-2.651.923-3.008 2.103l1.552.353c.192-.692.604-1.045 1.387-1.045.88 0 1.237.421 1.237 1.1v.121l-1.992.408c-1.388.284-2.418.882-2.418 2.238 0 1.276 1.058 2.104 2.431 2.104ZM9.16 12.5c0 .869-.852 1.33-1.731 1.33-.632 0-1.044-.312-1.044-.868 0-.638.522-.855 1.222-1.005l1.553-.325v.868ZM15.983 15.133c.934 0 1.69-.308 2.143-.824.247.6.879.838 2.074.698v-1.3c-.453.057-.632-.069-.632-.488v-3.157c0-1.69-1.044-2.528-2.775-2.528-1.593 0-2.651.95-3.008 2.165l1.552.363c.193-.712.605-1.075 1.388-1.075.879 0 1.236.433 1.236 1.131v.126l-1.992.419c-1.387.293-2.418.908-2.418 2.305 0 1.313 1.058 2.165 2.432 2.165Zm1.978-2.71c0 .894-.852 1.369-1.731 1.369-.632 0-1.044-.322-1.044-.894 0-.657.522-.88 1.223-1.034l1.552-.335v.894Z" fill="currentColor"/></svg>