<svg xmlns="http://www.w3.org/2000/svg" viewBox="0 0 64 64">
  <defs>
    <style>
      .cls-1 {
        fill: #00edff;
      }

      .cls-2 {
        fill: #fff;
      }

      .cls-3 {
        fill: none;
      }
    </style>
  </defs>
  <title>cdh_icon_folder</title>
  <g id="Layer_1" data-name="Layer 1">
    <path class="cls-1" d="M17,24V49.06836L7,49.417v1.93164C7,56.51367,9.812,59.9873,14,60H54.34961A8.62568,8.62568,0,0,0,63,51.41895V24Z"/>
    <rect class="cls-2" x="8" y="19" width="46" height="32"/>
    <g id="_Group_" data-name="&lt;Group&gt;">
      <g>
        <path class="cls-2" d="M8,52h.0238l-.02234-.00128Z"/>
        <path class="cls-2" d="M8.0238,52H48.34943A6.61594,6.61594,0,0,0,55,45.41931V20H53V13H25.00018L22.69464,9.70618A3.99993,3.99993,0,0,0,19.41766,8H3V45.349c0,3.64954,1.70343,6.63586,5.00146,6.64972"/>
      </g>
      <path d="M48.34961,54H8c-4.188-.0127-7-3.48633-7-8.65137V6H19.41748a6.006,6.006,0,0,1,4.916,2.55957L26.0415,11H53v4H23.9585l-2.90234-4.14746A2.00307,2.00307,0,0,0,19.41748,10H5V45.34863C5,46.125,5.146,50,8.02393,50,10.78516,50,11,46.43945,11,45.34863V18H57V45.41895A8.62568,8.62568,0,0,1,48.34961,54ZM14.06934,50H48.34961A4.621,4.621,0,0,0,53,45.41895V22H15V45.34863A11.098,11.098,0,0,1,14.06934,50Z"/>
    </g>
  </g>
  <g id="Isolation_Mode" data-name="Isolation Mode">
    <rect class="cls-3" width="64" height="64"/>
  </g>
</svg>
