<svg xmlns="http://www.w3.org/2000/svg" viewBox="0 0 64 64">
  <defs>
    <style>
      .cls-1 {
        fill: #00edff;
      }

      .cls-2 {
        fill: #fff;
      }

      .cls-3 {
        fill: none;
      }
    </style>
  </defs>
  <title>cdh_icon_pdf</title>
  <g id="Layer_1" data-name="Layer 1">
    <g id="_Group_" data-name="&lt;Group&gt;">
      <polygon class="cls-1" points="59 64 13 64 13 6.857 45.857 6.857 59 20 59 64"/>
    </g>
    <g id="_Group_2" data-name="&lt;Group&gt;">
      <polygon class="cls-2" points="51 56 9 56 9 2 39 2 51 14 51 56"/>
      <path d="M53,58H7V0H39.82861L53,13.17139ZM11,54H49V14.82861L38.17139,4H11Z"/>
    </g>
    <g id="_Group_3" data-name="&lt;Group&gt;">
      <rect class="cls-2" x="13" y="24" width="51" height="30"/>
    </g>
    <path d="M19,40v6.96777H16V30h6.3151c2.18156,0,3.46664.53306,4.41145,1.5267A4.94925,4.94925,0,0,1,28,35a5.15778,5.15778,0,0,1-1.27344,3.55662C25.80541,39.5261,24.49667,40,22.3151,40Zm3-3a3.129,3.129,0,0,0,2.23038-.64024,1.863,1.863,0,0,0,.55723-1.34837,1.91609,1.91609,0,0,0-.55723-1.37115A3.129,3.129,0,0,0,22,33H19v4Z"/>
    <path d="M36.27032,30a9.32582,9.32582,0,0,1,5.8415,1.59968C44.19673,33.151,45,35.18823,45,38s-.80327,5.81674-2.88818,7.36809a9.32894,9.32894,0,0,1-5.8415,1.59968H31V30Zm4.70239,4.79954a5.18649,5.18649,0,0,0-4.33946-1.89112H34V44.05886h2.63325a5.18621,5.18621,0,0,0,4.33946-1.89062,6.11022,6.11022,0,0,0,0-7.3687Z"/>
    <path d="M52,33v3h6v3H52v8H49V30H59v3Z"/>
    <g id="_Group_4" data-name="&lt;Group&gt;">
      <polygon points="51 17 36 17 36 2 40 2 40 13 51 13 51 17"/>
    </g>
  </g>
  <g id="Isolation_Mode" data-name="Isolation Mode">
    <rect class="cls-3" width="64" height="64"/>
  </g>
</svg>
