<svg xmlns="http://www.w3.org/2000/svg" viewBox="0 0 64 64">
  <defs>
    <style>
      .cls-1 {
        fill: #00edff;
      }

      .cls-2 {
        fill: #fff;
      }

      .cls-3 {
        fill: none;
      }
    </style>
  </defs>
  <title>cdh_icon_search</title>
  <g id="Layer_1" data-name="Layer 1">
    <g>
      <path class="cls-1" d="M59.72791,54.071,49.11554,43.45862a21.99989,21.99989,0,1,0-5.65686,5.65692L54.071,59.72791A4,4,0,0,0,59.72791,54.071Z"/>
      <path class="cls-1" d="M56.89941,62.897a5.97985,5.97985,0,0,1-4.24219-1.75488L43.18018,51.666A23.99951,23.99951,0,1,1,51.666,43.18018l9.47607,9.47705A5.99732,5.99732,0,0,1,56.89941,62.897Zm-13.20459-16.373,11.79053,11.79A2.00013,2.00013,0,0,0,58.314,55.48535l-11.79-11.79053.94482-1.37109a19.99994,19.99994,0,1,0-5.145,5.145Z"/>
    </g>
    <g id="_Group_" data-name="&lt;Group&gt;">
      <rect class="cls-2" x="23" y="37" width="36" height="8" rx="4" ry="4" transform="translate(41 -16.98276) rotate(45)"/>
      <path d="M50.89941,56.895a5.95709,5.95709,0,0,1-4.24268-1.75293L26.85791,35.34277a5.99988,5.99988,0,0,1,8.48535-8.48486L55.14209,46.65723A5.99536,5.99536,0,0,1,50.89941,56.895ZM31.10059,29.105A1.9998,1.9998,0,0,0,29.686,32.51416L49.48584,52.314a2.05962,2.05962,0,0,0,2.82813,0,2.01117,2.01117,0,0,0,0-2.82812L32.51465,29.686A1.985,1.985,0,0,0,31.10059,29.105Z"/>
    </g>
    <g id="_Group_2" data-name="&lt;Group&gt;">
      <circle class="cls-2" cx="25" cy="25" r="22" transform="translate(-10.35534 25) rotate(-45)"/>
      <path d="M25,49A23.99951,23.99951,0,0,1,8.02979,8.02979a23.99832,23.99832,0,0,1,33.94043,0h0A24,24,0,0,1,25,49ZM25,5A19.99994,19.99994,0,0,0,10.85791,39.14209,19.99994,19.99994,0,1,0,39.14209,10.85791h0A19.86924,19.86924,0,0,0,25,5Z"/>
    </g>
  </g>
  <g id="Isolation_Mode" data-name="Isolation Mode">
    <rect class="cls-3" width="64" height="64"/>
  </g>
</svg>
